<svg width="62" height="61" viewBox="0 0 62 61" fill="none" xmlns="http://www.w3.org/2000/svg">
<path opacity="0.9" fill-rule="evenodd" clip-rule="evenodd" d="M55.5235 9.668C56.0107 9.86651 56.6978 10.2952 57.1296 10.6064C57.5252 10.9411 57.9991 11.6356 58.2007 12.1467C58.3662 12.6812 58.5474 16.1809 58.5453 19.953C58.5496 23.6952 58.4288 27.0052 58.2816 27.2541C58.128 27.5328 57.6403 27.7706 57.1443 27.7573C56.6717 27.7802 56.1185 27.5986 55.9122 27.3983C55.6528 27.1553 55.5109 24.6306 55.5007 20.4817C55.4643 16.8885 55.4274 13.7316 55.3596 13.4675C55.3215 13.2099 55.0878 12.8478 54.8091 12.6942C54.5304 12.5406 44.7705 12.4019 33.1074 12.4143C21.4443 12.4267 11.7055 12.4796 11.4776 12.524C11.2732 12.6047 10.9917 13.0429 10.8826 13.5494C10.7799 14.0261 10.6857 21.9873 10.6988 31.1875C10.6648 44.3683 10.7649 48.1 11.1581 48.5901C11.3919 48.9522 11.8599 49.2401 12.1473 49.2085C12.4645 49.1833 17.8926 49.1682 24.2532 49.1668C30.5839 49.159 36.1184 49.2291 36.5356 49.319C36.9527 49.4089 37.4271 49.667 37.5907 49.9205C37.7543 50.174 37.807 50.653 37.7662 50.9872C37.6956 51.3149 37.3545 51.7403 37.035 51.9208C36.6793 52.1248 31.0104 52.244 23.9261 52.2765C13.4232 52.2582 11.2541 52.1962 10.2924 51.7396C9.66907 51.4494 8.87795 50.7801 8.49753 50.2304C8.15333 49.6574 7.82427 48.8694 7.73538 48.4138C7.67628 47.9646 7.63197 40.0671 7.65514 30.8435C7.64209 21.6433 7.76831 13.5331 7.92238 12.818C8.07646 12.1029 8.51382 11.2307 8.99975 10.7118C9.43662 10.2759 10.2929 9.77453 10.8508 9.64531C11.4449 9.49271 21.5435 9.36147 33.3024 9.33854C46.9623 9.31988 54.9831 9.42685 55.5235 9.668ZM39.5993 14.8419C40.159 14.9937 40.654 15.8798 41.8323 18.6591C42.8194 21.023 43.2456 22.5178 43.1301 23.0541C43.0145 23.5904 42.7161 23.9626 42.2902 24.0579C41.9304 24.1363 41.4046 24.1165 41.1195 23.9928C40.8706 23.8456 40.3523 22.9233 39.2698 20.1335L38.0136 22.2012C37.3035 23.3264 36.0905 24.9046 35.3318 25.6764C34.5434 26.4419 33.0434 27.6152 31.9932 28.2931C30.9196 28.9347 29.1433 29.7991 28.0317 30.1831C26.9265 30.5374 25.0911 30.9525 23.9351 31.1088C22.2766 31.2814 21.1719 31.1993 18.401 30.6023C15.7493 30.0309 14.845 29.7425 14.5347 29.3015C14.3179 29.0054 14.2015 28.388 14.334 27.9177C14.4303 27.4708 14.7714 27.0454 15.0716 26.9542C15.4017 26.8694 16.5765 27.0602 17.7192 27.4C18.8853 27.7759 20.6327 28.0589 21.78 28.0878C22.8975 28.1104 24.6816 27.9336 25.7675 27.6687C26.847 27.4337 28.621 26.7247 29.6882 26.1128C30.7553 25.501 32.236 24.417 32.9456 23.7281C33.6553 23.0392 34.6721 21.7929 35.1924 20.9697C35.6829 20.1401 36.0584 19.4104 35.9818 19.3315C35.8989 19.2825 35.1302 19.5221 34.2166 19.8553C32.8515 20.403 32.5343 20.4282 32.0026 20.0018C31.6835 19.746 31.3797 19.2752 31.3545 18.958C31.2931 18.6642 31.4256 18.1939 31.6323 17.9579C31.8455 17.692 33.5558 16.8446 35.4449 16.0357C37.7726 15.0719 39.1056 14.6732 39.5993 14.8419ZM32.0928 32.4612C32.4206 32.5318 32.8225 32.8366 33.0095 33.1263C33.1965 33.4161 33.3422 34.4763 33.322 35.4385C33.2953 36.4304 33.2608 38.7613 33.2565 40.6622C33.2595 43.6871 33.1866 44.1702 32.6772 44.6528C32.3554 44.9888 31.8145 45.184 31.4272 45.1006C31.0632 45.0533 30.6251 44.7719 30.4912 44.5248C30.3276 44.2713 30.2178 41.5975 30.2382 38.6089C30.3142 33.4809 30.355 33.1468 30.9409 32.743C31.2668 32.5326 31.7949 32.397 32.0928 32.4612ZM25.3384 34.4354C25.6065 34.4931 26.0214 34.7384 26.2276 34.9387C26.4572 35.1753 26.6171 36.8933 26.5995 39.2902C26.5906 41.5019 26.5478 43.5816 26.4708 43.9391C26.3809 44.3562 25.9867 44.739 25.482 44.9108C24.7728 45.1633 24.5643 45.1184 24.0454 44.6325C23.5797 44.1892 23.4657 43.4163 23.4994 39.9317C23.5275 37.6306 23.5873 35.6169 23.6024 35.402C23.6409 35.2232 23.9329 34.8808 24.2525 34.7002C24.5784 34.4898 25.0702 34.3776 25.3384 34.4354ZM18.7354 34.2597C18.8844 34.2918 19.2396 34.5243 19.4628 34.7906C19.7626 35.1358 19.9013 36.6622 19.8809 39.6509C19.8829 43.5485 19.8036 44.0614 19.2879 44.5739C18.9958 44.9163 18.4251 45.1051 18.0378 45.0216C17.6739 44.9744 17.2655 44.6993 17.1018 44.4458C16.968 44.1987 16.8467 42.3019 16.8235 40.2392C16.83 38.1829 16.9026 36.1096 16.982 35.5967C17.1039 35.0306 17.4152 34.5988 17.7943 34.4311C18.1308 34.3165 18.5566 34.2212 18.7354 34.2597Z" fill="#F24A25"/>
<path opacity="0.9" fill-rule="evenodd" clip-rule="evenodd" d="M48.742 28.389C50.784 28.4804 51.8508 28.6633 52.9175 29.1509C53.7404 29.5167 55.1424 30.5529 56.0873 31.4063C57.093 32.3816 58.0988 33.6922 58.556 34.698C59.1351 35.8866 59.4094 37.0448 59.5008 38.6601C59.5923 40.2145 59.5008 41.4946 59.1656 42.6223C58.8912 43.5366 58.1903 44.9691 57.6112 45.8225C57.0321 46.6454 56.6359 47.4683 56.7578 47.6512C56.8492 47.8341 58.0683 49.3885 59.4703 51.1562C60.8419 52.9239 61.9695 54.6307 62 54.966C62 55.3012 61.8476 55.7584 61.6343 55.9717C61.4209 56.1546 60.9333 56.3375 60.4761 56.3375C59.8666 56.368 59.2265 55.7279 57.1235 53.1068C55.691 51.3086 54.4414 49.6932 54.3195 49.5104C54.1671 49.2665 53.8014 49.3275 53.1004 49.6628C52.5518 49.9371 51.2717 50.3333 50.2659 50.5161C49.0163 50.7295 47.8581 50.76 46.6085 50.5466C45.6027 50.3942 44.0484 49.8761 43.134 49.4189C42.2197 48.9313 40.8481 47.8341 39.9948 46.8892C39.1414 45.9444 38.227 44.5119 37.8918 43.5976C37.587 42.7442 37.2212 41.2812 37.1298 40.3974C37.0079 39.3611 37.0993 38.142 37.4346 36.8314C37.7089 35.7342 38.3794 34.1798 38.928 33.3569C39.4766 32.534 40.3605 31.4673 40.8786 30.9796C41.4272 30.5224 42.4635 29.8214 43.1645 29.4557C43.8655 29.1204 44.8103 28.6937 45.237 28.5718C45.6637 28.4194 47.2486 28.3585 48.742 28.389ZM44.4141 32.3207C43.9569 32.595 43.0426 33.3569 42.4025 34.0579C41.793 34.7284 41.0615 35.8256 40.7872 36.4352C40.5434 37.0753 40.33 38.4163 40.2995 39.4221C40.2995 40.5802 40.5129 41.7384 40.8786 42.6223C41.2139 43.3842 41.8844 44.451 42.3721 44.9996C42.8597 45.5787 44.0179 46.4016 44.9322 46.8283C46.1818 47.4074 47.0657 47.6207 48.4372 47.6207C49.5954 47.6207 50.7536 47.3769 51.6374 46.9807C52.3994 46.6454 53.4661 45.8835 54.0452 45.3348C54.6243 44.7558 55.4167 43.5976 55.7825 42.7747C56.2396 41.8299 56.5139 40.6717 56.5139 39.7269C56.5139 38.8735 56.3616 37.6848 56.2092 37.0448C56.0263 36.4352 55.4472 35.338 54.8986 34.6065C54.35 33.9055 53.2833 32.9302 52.5213 32.473C51.485 31.8025 50.7231 31.5892 49.0468 31.4977C47.8886 31.4063 46.5476 31.4673 46.0904 31.6197C45.6332 31.7416 44.8713 32.0768 44.4141 32.3207Z" fill="#F24A25"/>
</svg>
