<svg width="65" height="53" viewBox="0 0 65 53" fill="none" xmlns="http://www.w3.org/2000/svg">
<path d="M5.29643 6.11605C5.97197 6.11605 6.51961 5.56841 6.51961 4.89286C6.51961 4.21732 5.97197 3.66968 5.29643 3.66968C4.62088 3.66968 4.07324 4.21732 4.07324 4.89286C4.07324 5.56841 4.62088 6.11605 5.29643 6.11605Z" fill="#F24A25"/>
<path d="M13.4551 6.11605C14.1306 6.11605 14.6783 5.56841 14.6783 4.89286C14.6783 4.21732 14.1306 3.66968 13.4551 3.66968C12.7795 3.66968 12.2319 4.21732 12.2319 4.89286C12.2319 5.56841 12.7795 6.11605 13.4551 6.11605Z" fill="#F24A25"/>
<path d="M9.38184 6.11605C10.0574 6.11605 10.605 5.56841 10.605 4.89286C10.605 4.21732 10.0574 3.66968 9.38184 3.66968C8.7063 3.66968 8.15866 4.21732 8.15866 4.89286C8.15866 5.56841 8.7063 6.11605 9.38184 6.11605Z" fill="#F24A25"/>
<path d="M18.3479 22.6412L22.0174 18.9717C22.2478 18.7413 22.3772 18.4289 22.3772 18.1032C22.3772 17.7775 22.2478 17.4651 22.0174 17.2347C21.7871 17.0044 21.4747 16.875 21.149 16.875C20.8232 16.875 20.5108 17.0044 20.2805 17.2347L15.7303 21.7972C15.5024 22.0264 15.3746 22.3364 15.3746 22.6595C15.3746 22.9827 15.5024 23.2927 15.7303 23.5219L20.2805 28.0844C20.3942 28.199 20.5295 28.29 20.6786 28.3521C20.8276 28.4142 20.9875 28.4462 21.149 28.4462C21.3104 28.4462 21.4703 28.4142 21.6194 28.3521C21.7684 28.29 21.9037 28.199 22.0174 28.0844C22.2453 27.8552 22.3731 27.5452 22.3731 27.222C22.3731 26.8989 22.2453 26.5889 22.0174 26.3597L18.3479 22.6412Z" fill="#F24A25"/>
<path d="M35.8637 28.0599C36.0928 28.2877 36.4029 28.4156 36.726 28.4156C37.0492 28.4156 37.3592 28.2877 37.5884 28.0599L42.1508 23.5586C42.3786 23.3294 42.5065 23.0194 42.5065 22.6962C42.5065 22.3731 42.3786 22.0631 42.1508 21.8339L37.5884 17.2714C37.358 17.0427 37.0463 16.9149 36.7217 16.916C36.3971 16.9172 36.0863 17.0472 35.8575 17.2775C35.6288 17.5079 35.501 17.8196 35.5021 18.1442C35.5033 18.4688 35.6333 18.7796 35.8637 19.0083L39.5332 22.6779L35.8637 26.3475C35.6395 26.5761 35.514 26.8835 35.514 27.2037C35.514 27.5239 35.6395 27.8313 35.8637 28.0599Z" fill="#F24A25"/>
<path d="M31.8026 17.626C31.663 17.5451 31.5088 17.4926 31.3488 17.4716C31.1889 17.4506 31.0263 17.4614 30.8706 17.5035C30.7148 17.5456 30.5689 17.618 30.4413 17.7167C30.3136 17.8154 30.2068 17.9384 30.1269 18.0785L25.6133 26.0048C25.5248 26.144 25.4654 26.2997 25.4386 26.4625C25.4118 26.6252 25.4183 26.7918 25.4575 26.952C25.4968 27.1122 25.568 27.2629 25.667 27.3948C25.766 27.5268 25.8906 27.6374 26.0334 27.72C26.1763 27.8025 26.3343 27.8553 26.4981 27.8752C26.6618 27.8951 26.8279 27.8817 26.9864 27.8357C27.1448 27.7898 27.2923 27.7122 27.42 27.6078C27.5477 27.5033 27.653 27.3741 27.7294 27.228L32.2919 19.3384C32.3772 19.1951 32.4324 19.0358 32.4539 18.8704C32.4754 18.705 32.4629 18.5369 32.4171 18.3765C32.3712 18.2161 32.2931 18.0668 32.1874 17.9377C32.0818 17.8087 31.9508 17.7026 31.8026 17.626Z" fill="#F24A25"/>
<path d="M62.2111 34.5672C62.139 34.5666 62.0687 34.5441 62.0097 34.5026C61.9507 34.461 61.9058 34.4025 61.8809 34.3348C61.3942 33.0544 60.7044 31.8608 59.8382 30.7998C59.7971 30.7405 59.7752 30.6701 59.7752 30.598C59.7752 30.5258 59.7971 30.4554 59.8382 30.3961C60.2107 29.7504 60.3117 28.9833 60.1191 28.2631C59.9265 27.543 59.4559 26.9288 58.8107 26.5553L57.8933 26.0049V3.66955C57.8933 2.69633 57.5067 1.76296 56.8185 1.07479C56.1303 0.386613 55.197 0 54.2238 0H3.66955C2.69633 0 1.76296 0.386613 1.07479 1.07479C0.386613 1.76296 0 2.69633 0 3.66955V34.665C0.00321915 35.4199 0.304522 36.143 0.838308 36.6768C1.37209 37.2105 2.09514 37.5118 2.85002 37.5151H19.5709L18.3478 42.0408H16.7209C15.5295 42.0417 14.3732 42.4441 13.4388 43.1832C12.5044 43.9223 11.8465 44.9549 11.5713 46.114H8.56229C8.23788 46.114 7.92676 46.2429 7.69737 46.4723C7.46798 46.7017 7.3391 47.0128 7.3391 47.3372C7.3391 47.6616 7.46798 47.9728 7.69737 48.2021C7.92676 48.4315 8.23788 48.5604 8.56229 48.5604H39.7168C39.6961 48.8526 39.725 49.1463 39.8024 49.4289C39.8941 49.7877 40.0573 50.1243 40.2822 50.4185C40.5071 50.7128 40.7891 50.9586 41.1112 51.1413L43.6921 52.6336C44.0126 52.8176 44.3661 52.9366 44.7326 52.9839C45.099 53.0312 45.4712 53.0059 45.8279 52.9093C46.1846 52.8128 46.5187 52.6469 46.8113 52.4212C47.1038 52.1955 47.349 51.9144 47.5329 51.5939C47.5726 51.5315 47.6296 51.4821 47.6969 51.4516C47.7643 51.4212 47.8391 51.4111 47.9121 51.4227C49.2558 51.6551 50.6294 51.6551 51.9731 51.4227C52.0475 51.4106 52.1238 51.4217 52.1916 51.4546C52.2595 51.4874 52.3156 51.5403 52.3523 51.6061C52.6016 52.033 52.959 52.3866 53.3885 52.6314C53.8179 52.8762 54.3043 53.0036 54.7986 53.0006C55.2918 53.0053 55.7773 52.8787 56.2053 52.6336L58.7862 51.1413C59.1067 50.9565 59.3873 50.7099 59.6119 50.416C59.8366 50.1221 60.0008 49.7866 60.095 49.4289C60.1924 49.0733 60.2177 48.7018 60.1694 48.3363C60.1211 47.9708 60.0002 47.6186 59.8137 47.3005C59.7716 47.2393 59.7491 47.1668 59.7491 47.0926C59.7491 47.0183 59.7716 46.9458 59.8137 46.8846C60.6773 45.8263 61.3668 44.6371 61.8564 43.3619C61.8797 43.2931 61.9243 43.2336 61.9837 43.1918C62.043 43.1501 62.1141 43.1282 62.1867 43.1295C62.9318 43.1263 63.6455 42.8288 64.1724 42.3019C64.6993 41.775 64.9968 41.0613 65 40.3161V37.3316C64.9873 36.5982 64.6886 35.8987 64.1676 35.3823C63.6467 34.8659 62.9446 34.5735 62.2111 34.5672ZM2.44637 3.66955C2.44637 3.34514 2.57524 3.03402 2.80463 2.80463C3.03402 2.57524 3.34514 2.44637 3.66955 2.44637H54.2238C54.5482 2.44637 54.8593 2.57524 55.0887 2.80463C55.3181 3.03402 55.4469 3.34514 55.4469 3.66955V7.3391H2.44637V3.66955ZM2.85002 35.0687C2.79701 35.0687 2.74452 35.0582 2.69555 35.038C2.64658 35.0177 2.60208 34.9879 2.56459 34.9505C2.52711 34.913 2.49738 34.8685 2.47709 34.8195C2.45681 34.7705 2.44637 34.718 2.44637 34.665V9.78547H55.4469V24.7817C54.8681 24.628 54.2553 24.6638 53.6983 24.884C53.1413 25.1041 52.6696 25.497 52.3523 26.0049C52.3142 26.0652 52.2588 26.1127 52.1933 26.141C52.1279 26.1694 52.0554 26.1774 51.9853 26.1639C50.6406 25.9437 49.2691 25.9437 47.9244 26.1639C47.8542 26.1792 47.7811 26.1721 47.7153 26.1435C47.6494 26.115 47.5942 26.0665 47.5574 26.0049C47.3737 25.6842 47.1283 25.4031 46.8354 25.1777C46.5425 24.9523 46.2079 24.7871 45.8509 24.6916C45.4939 24.5961 45.1215 24.5721 44.7552 24.6212C44.3889 24.6703 44.0359 24.7913 43.7166 24.9774L41.1357 26.4697C40.8144 26.6505 40.5328 26.8942 40.3079 27.1864C40.083 27.4785 39.9194 27.8131 39.8269 28.1699C39.6313 28.8911 39.728 29.6602 40.096 30.3105C40.1406 30.3683 40.1648 30.4393 40.1648 30.5123C40.1648 30.5854 40.1406 30.6563 40.096 30.7142C39.2297 31.7752 38.54 32.9688 38.0533 34.2492C38.0284 34.3169 37.9834 34.3754 37.9244 34.4169C37.8654 34.4585 37.7952 34.481 37.723 34.4816C37.1239 34.4824 36.5408 34.6753 36.0595 35.032L2.85002 35.0687ZM35.4723 42.0408H20.7941L22.0173 37.5151H34.8607V40.3161C34.8686 40.9428 35.0836 41.5492 35.4723 42.0408ZM16.7332 44.4872H38.5058C38.7854 45.0511 39.1042 45.5947 39.4599 46.114H14.1522C14.3832 45.628 14.747 45.2174 15.2015 44.9295C15.6561 44.6416 16.1829 44.4882 16.7209 44.4872H16.7332ZM62.5781 40.3161C62.5781 40.4135 62.5394 40.5068 62.4706 40.5756C62.4018 40.6444 62.3085 40.6831 62.2111 40.6831C61.6414 40.6845 61.0854 40.8582 60.616 41.1812C60.1467 41.5043 59.786 41.9617 59.5813 42.4934C59.1903 43.5247 58.637 44.4868 57.9422 45.3434C57.584 45.7859 57.3678 46.3264 57.3219 46.8939C57.2761 47.4613 57.4028 48.0294 57.6854 48.5237C57.705 48.5658 57.7152 48.6118 57.7152 48.6583C57.7152 48.7048 57.705 48.7507 57.6854 48.7928C57.6747 48.8414 57.654 48.8872 57.6245 48.9272C57.5949 48.9673 57.5574 49.0007 57.5141 49.0252L54.9699 50.4686C54.9274 50.4922 54.8806 50.5072 54.8323 50.5126C54.784 50.518 54.7351 50.5137 54.6884 50.5001C54.6418 50.4864 54.5983 50.4636 54.5605 50.433C54.5227 50.4024 54.4914 50.3646 54.4684 50.3218C54.1792 49.8289 53.7473 49.4352 53.2297 49.1928C52.7122 48.9504 52.1333 48.8706 51.5694 48.9641C50.4926 49.1475 49.3926 49.1475 48.3158 48.9641C47.7507 48.8718 47.1709 48.9534 46.6532 49.198C46.1355 49.4427 45.7043 49.8388 45.4168 50.334C45.366 50.416 45.2859 50.4756 45.1927 50.5006C45.0995 50.5256 45.0003 50.5142 44.9153 50.4686L42.3344 48.9763C42.2912 48.9517 42.2536 48.9183 42.2241 48.8783C42.1946 48.8383 42.1738 48.7925 42.1632 48.7439C42.1435 48.7018 42.1333 48.6558 42.1333 48.6093C42.1333 48.5628 42.1435 48.5169 42.1632 48.4748C42.4425 47.9795 42.5672 47.4121 42.5215 46.8453C42.4757 46.2786 42.2614 45.7385 41.9063 45.2945C41.2053 44.4401 40.6476 43.4776 40.255 42.4445C40.0498 41.9268 39.6944 41.4823 39.2344 41.1684C38.7744 40.8545 38.231 40.6855 37.6741 40.6831C37.5767 40.6831 37.4834 40.6444 37.4146 40.5756C37.3458 40.5068 37.3071 40.4135 37.3071 40.3161V37.3316C37.3054 37.2829 37.3137 37.2344 37.3316 37.1892C37.3494 37.1439 37.3764 37.1027 37.4108 37.0683C37.4452 37.0339 37.4864 37.0069 37.5316 36.9891C37.5769 36.9712 37.6254 36.9629 37.6741 36.9646C38.2421 36.9624 38.7962 36.7883 39.2635 36.4652C39.7307 36.1421 40.0892 35.6851 40.2917 35.1543C40.6815 34.1199 41.2394 33.1569 41.943 32.3043C42.2981 31.8603 42.5124 31.3202 42.5582 30.7535C42.6039 30.1867 42.4792 29.6193 42.1999 29.124C42.1799 29.0798 42.1696 29.0318 42.1696 28.9833C42.1696 28.9349 42.1799 28.8869 42.1999 28.8427C42.2098 28.7954 42.2304 28.751 42.26 28.7128C42.2897 28.6747 42.3277 28.6438 42.3711 28.6225L44.952 27.1302C45.012 27.1135 45.0755 27.1135 45.1355 27.1302C45.1967 27.131 45.2567 27.1471 45.3102 27.177C45.3636 27.2069 45.4086 27.2497 45.4413 27.3015C45.73 27.7955 46.1614 28.1906 46.6787 28.4351C47.1961 28.6796 47.7752 28.762 48.3402 28.6714C49.417 28.488 50.5171 28.488 51.5939 28.6714C52.1627 28.7482 52.7413 28.6516 53.2542 28.394C53.7671 28.1365 54.1903 27.7301 54.4684 27.2281C54.4923 27.1877 54.524 27.1525 54.5616 27.1245C54.5992 27.0965 54.642 27.0762 54.6875 27.0648C54.733 27.0534 54.7803 27.0512 54.8267 27.0582C54.8731 27.0653 54.9176 27.0814 54.9577 27.1058L57.5386 28.598C57.582 28.6193 57.62 28.6502 57.6496 28.6884C57.6793 28.7265 57.6999 28.7709 57.7098 28.8182C57.7297 28.8624 57.74 28.9104 57.74 28.9589C57.74 29.0074 57.7297 29.0553 57.7098 29.0995C57.4283 29.592 57.3022 30.158 57.348 30.7233C57.3938 31.2887 57.6095 31.827 57.9667 32.2676C58.6617 33.1285 59.215 34.0947 59.6058 35.1298C59.7986 35.6705 60.1508 36.1399 60.616 36.4762C61.0811 36.8126 61.6373 36.9999 62.2111 37.0135C62.2598 37.0118 62.3083 37.0202 62.3536 37.038C62.3989 37.0558 62.44 37.0828 62.4744 37.1172C62.5088 37.1516 62.5358 37.1928 62.5536 37.2381C62.5715 37.2834 62.5798 37.3319 62.5781 37.3805V40.3161Z" fill="#F24A25"/>
<path d="M49.9424 33.2705C48.8441 33.2705 47.7704 33.5962 46.8572 34.2064C45.944 34.8166 45.2322 35.6839 44.8119 36.6986C44.3916 37.7134 44.2816 38.8299 44.4959 39.9072C44.7101 40.9844 45.239 41.9739 46.0157 42.7505C46.7923 43.5271 47.7818 44.056 48.859 44.2703C49.9363 44.4846 51.0528 44.3746 52.0676 43.9543C53.0823 43.534 53.9496 42.8222 54.5598 41.909C55.17 40.9958 55.4957 39.9221 55.4957 38.8238C55.4957 37.3509 54.9106 35.9385 53.8692 34.897C52.8277 33.8556 51.4152 33.2705 49.9424 33.2705ZM49.9424 41.9307C49.3279 41.9307 48.7272 41.7484 48.2163 41.4071C47.7054 41.0657 47.3072 40.5804 47.072 40.0127C46.8369 39.445 46.7753 38.8203 46.8952 38.2176C47.0151 37.615 47.311 37.0614 47.7455 36.6269C48.18 36.1924 48.7336 35.8965 49.3363 35.7766C49.939 35.6567 50.5637 35.7182 51.1314 35.9534C51.6991 36.1885 52.1843 36.5867 52.5257 37.0977C52.8671 37.6086 53.0493 38.2093 53.0493 38.8238C53.0428 39.6435 52.7127 40.4275 52.1307 41.0049C51.5488 41.5822 50.7622 41.9062 49.9424 41.9062V41.9307Z" fill="#F24A25"/>
</svg>
