<svg width="55" height="62" viewBox="0 0 55 62" fill="none" xmlns="http://www.w3.org/2000/svg">
<path opacity="0.9" fill-rule="evenodd" clip-rule="evenodd" d="M38.3768 0C38.6772 0 38.8525 0.0876223 39.0402 0.350489C39.1904 0.538251 39.3031 0.776083 39.3031 0.876223C39.2906 0.976363 38.89 1.76496 38.4018 2.62867C37.9137 3.49237 37.413 4.25594 37.3003 4.34356C37.1876 4.43118 36.9498 4.50629 36.762 4.50629C36.5618 4.50629 36.2989 4.39363 36.1612 4.25594C36.011 4.10573 35.9109 3.84286 35.9109 3.60503C35.9109 3.32965 36.1988 2.70377 36.737 1.75245C37.2002 0.963845 37.6508 0.237832 37.7634 0.162727C37.8761 0.0751048 38.1515 0 38.3768 0ZM29.6521 0.337972C29.9651 0.363007 30.4908 0.550769 30.8288 0.726013C31.1667 0.913775 31.5673 1.26426 31.73 1.5021C31.8928 1.73993 32.5812 2.89154 33.2572 4.06818C34.0708 5.47013 34.559 6.18363 34.6716 6.14608C34.7718 6.12104 35.1598 6.07097 35.5353 6.03342C35.9234 5.99587 36.4366 6.04594 36.7245 6.13356C36.9999 6.22118 37.4255 6.42146 37.6633 6.58419C37.9011 6.7344 38.2767 7.0974 38.8525 7.88601L52.2462 7.94859L52.9346 8.28656C53.3101 8.46181 53.8108 8.82481 54.0487 9.1002C54.2865 9.36307 54.5994 9.82621 54.7371 10.1391C55 10.7024 55 10.765 55 44.2493L54.7246 44.9377C54.5744 45.3383 54.1738 45.9391 53.7858 46.3522C53.3352 46.8529 52.8595 47.2159 51.4951 47.8793L35.285 47.9419V48.5302C35.285 48.8682 35.3726 49.6943 35.4727 50.3828C35.5729 51.0713 35.7982 52.1478 35.9609 52.7611C36.1237 53.3745 36.3865 54.2132 36.7871 55.3272L38.7648 55.3648C40.1793 55.3898 40.8553 55.4524 41.1682 55.5901C41.406 55.7027 41.8316 55.9781 42.0945 56.216C42.3699 56.4538 42.7204 56.9169 42.8831 57.2674C43.0834 57.7055 43.171 58.1186 43.171 58.6443C43.171 59.1701 43.0834 59.5831 42.8706 60.0213C42.7078 60.3592 42.4199 60.7973 42.2197 60.9851C42.0194 61.1729 41.6063 61.4357 41.2934 61.5734C40.7426 61.8238 40.5423 61.8363 27.5242 61.8363C14.506 61.8363 14.3057 61.8238 13.7549 61.5734C13.442 61.4357 13.0289 61.1729 12.8287 60.9851C12.6284 60.7973 12.3405 60.3592 12.1777 60.0213C11.9649 59.5831 11.8773 59.1701 11.8773 58.6443C11.8773 58.1186 11.9649 57.7055 12.1652 57.2674C12.328 56.9169 12.6784 56.4538 12.9538 56.216C13.2167 55.9781 13.6423 55.7027 13.8801 55.5901C14.1931 55.4524 14.8815 55.3898 18.1986 55.3147L18.474 54.6012C18.6242 54.2132 18.837 53.5748 18.9372 53.1992C19.0498 52.8237 19.2501 51.8474 19.3878 51.0337C19.5255 50.2326 19.6382 49.2062 19.6382 47.9419L3.55321 47.8793L2.73957 47.4788C2.1888 47.2159 1.71314 46.8529 1.26251 46.3522C0.874468 45.9391 0.473909 45.3383 0.0483154 44.2493L0.0107631 28.1643C-0.0142719 12.5675 -0.0142718 12.0543 0.22356 11.2657C0.361252 10.8151 0.661671 10.2017 0.886986 9.8888C1.12482 9.57586 1.58796 9.11272 1.93845 8.86237C2.27642 8.5995 2.80216 8.28656 3.1151 8.17391C3.62831 7.96111 4.50453 7.94859 24.6451 7.88601L25.2585 7.03482C25.5965 6.57167 26.0471 5.88321 26.2724 5.50769C26.6479 4.88181 26.673 4.78167 26.5478 4.38111C26.4602 4.14328 26.3976 3.63007 26.3976 3.25454C26.3976 2.85398 26.4977 2.35328 26.6354 2.06538C26.7606 1.79 26.9984 1.41447 27.1611 1.23923C27.3239 1.06398 27.6618 0.813635 27.8997 0.688461C28.1375 0.563286 28.513 0.413076 28.7133 0.363007C28.9136 0.312937 29.3392 0.300419 29.6521 0.337972ZM28.5506 2.55356C28.3628 2.72881 28.2752 2.95412 28.2752 3.25454C28.2752 3.59251 29.214 5.30741 32.5437 11.078C34.8844 15.1336 36.9373 18.5884 37.1 18.7512C37.2753 18.9014 37.5757 19.0266 37.7885 19.0266C38.0013 19.0266 38.3142 18.9014 38.5145 18.7261C38.7774 18.4883 38.8525 18.3131 38.8399 17.9375C38.8399 17.5495 38.0764 16.1475 34.609 10.1391C32.2808 6.10852 30.253 2.69126 30.1028 2.54105C29.9651 2.39084 29.7022 2.24063 29.527 2.20307C29.3517 2.16552 29.1264 2.17804 29.0263 2.21559C28.9261 2.25314 28.7133 2.40335 28.5506 2.55356ZM25.6215 9.57586C25.1083 10.2017 24.1194 11.2407 23.4435 11.8916C22.755 12.5425 21.7411 13.4438 21.1903 13.8944L20.1764 14.708L23.3308 20.1281C24.3072 19.74 25.1458 19.4271 25.8343 19.1893C26.5228 18.964 27.737 18.601 28.5256 18.4007C29.3142 18.2004 30.3281 17.9751 30.7787 17.9125C31.2293 17.8374 32.1306 17.7247 32.7815 17.6496C33.4324 17.587 33.9832 17.4994 34.0082 17.4619C34.0207 17.4243 32.6939 15.071 31.0541 12.2296C29.4143 9.40062 28.0123 6.97223 27.9498 6.84705C27.8371 6.67181 27.7244 6.77195 27.1987 7.53552C26.8482 8.03621 26.1472 8.94999 25.6215 9.57586ZM36.1988 9.13775C36.5493 9.76363 36.8872 10.2268 36.9373 10.1767C36.9874 10.1266 37.075 9.91384 37.1376 9.70104C37.2002 9.48824 37.2002 9.13775 37.1376 8.91244C37.0875 8.69964 36.8622 8.37419 36.6619 8.19894C36.4491 8.0237 36.1237 7.88601 35.9109 7.88601C35.7106 7.88601 35.5353 7.91104 35.5353 7.94859C35.5353 7.98614 35.8358 8.5244 36.1988 9.13775ZM2.92733 10.4521C2.63943 10.6774 2.32649 11.0905 2.15125 11.4535L1.86335 12.0794V38.4286H53.185C53.1724 11.5036 53.1724 11.1906 52.9346 10.765C52.7969 10.5272 52.4715 10.2017 52.2086 10.0515C51.7455 9.77614 51.7204 9.77614 45.4241 9.76363L39.1028 9.75111C38.8149 10.6649 38.527 11.1656 38.2641 11.441L37.8135 11.9542C39.929 15.6343 40.6049 16.9361 40.68 17.2115C40.7551 17.4869 40.7802 17.9626 40.7301 18.2755C40.68 18.5884 40.5548 19.0015 40.4547 19.2143C40.3546 19.4271 40.1167 19.7526 39.929 19.9403C39.7537 20.1406 39.3782 20.416 39.1028 20.5662C38.7398 20.754 38.3768 20.8291 37.7885 20.8291C37.2127 20.8291 36.8372 20.754 36.4741 20.5662C36.1988 20.4285 35.7732 20.0905 35.5353 19.8277L35.0972 19.352C33.0569 19.4897 31.8176 19.6399 31.029 19.7776C30.2404 19.9153 28.9762 20.2032 28.2126 20.4035C27.4616 20.6163 26.7481 20.8416 26.6479 20.8917C26.4977 20.9793 26.5979 21.1796 27.1737 21.9181C27.5742 22.4313 27.9748 23.0697 28.0749 23.3451C28.1876 23.6705 28.2126 24.021 28.15 24.3465C28.0749 24.6844 27.9122 24.9598 27.6118 25.2227L27.1862 25.5982C28.7133 27.6386 29.189 28.3896 29.2265 28.6024C29.2641 28.8152 29.2641 29.1782 29.214 29.4161C29.1389 29.7165 28.8886 30.067 28.4129 30.5301C28.0249 30.9056 27.5492 31.3187 27.3364 31.4439C27.1361 31.5691 26.723 31.6692 26.4351 31.6692C26.1347 31.6692 25.7467 31.5941 25.5589 31.494C25.3461 31.3938 24.1945 29.9668 22.6799 27.9265L20.1389 24.5342C19.0373 25.0475 18.7369 25.0975 17.4977 25.0975C16.0957 25.0975 16.0331 25.085 15.1193 24.6469C14.481 24.3214 14.0053 23.9835 13.5922 23.5203C13.2542 23.1448 12.8412 22.5565 12.6784 22.2185C12.5157 21.868 12.3029 21.1921 12.2278 20.7164C12.1152 20.0405 12.1152 19.6524 12.2278 19.0266C12.3029 18.5759 12.5407 17.8749 12.741 17.4619C12.9663 16.9862 13.3794 16.4605 13.8551 16.0224C14.3057 15.6093 15.3572 14.8958 16.5213 14.2449C17.6479 13.594 18.5867 13.1433 18.7995 13.1433C19.0373 13.1433 19.4629 12.8805 20.239 12.2296C20.8398 11.7289 21.691 10.9653 22.1416 10.5397L22.9553 9.77614C6.68257 9.77614 4.1916 9.8137 3.86614 9.92635C3.61579 10.014 3.20272 10.2393 2.92733 10.4521ZM14.844 17.6747C14.5435 18.0001 14.2932 18.4758 14.168 18.9014C14.0554 19.3145 13.9928 19.8402 14.0303 20.2157C14.0679 20.5662 14.2556 21.142 14.4559 21.5175C14.6562 21.8805 15.0192 22.3437 15.257 22.5314C15.4949 22.7317 15.9205 22.9821 16.1958 23.0947C16.4712 23.2074 17.0345 23.3075 17.4476 23.3075C17.9858 23.32 18.3864 23.2324 18.8871 23.0071C19.2626 22.8319 20.0888 22.3938 20.7147 22.0182L21.8537 21.3423C19.2126 16.7484 18.3989 15.409 18.3238 15.409C18.2612 15.409 17.5477 15.797 16.7591 16.2727C15.8954 16.7734 15.1319 17.3492 14.844 17.6747ZM25.2084 22.932C25.6591 23.5454 26.0846 24.0085 26.1472 23.971C26.2223 23.9334 26.2349 23.8333 26.1848 23.7456C26.1347 23.6705 25.7717 23.1573 25.3712 22.6191C24.9706 22.0933 24.5951 21.6552 24.52 21.6552C24.4574 21.6552 24.3948 21.6928 24.3948 21.7428C24.4073 21.8054 24.7703 22.3312 25.2084 22.932ZM21.8663 23.658C21.8788 23.7206 22.9052 25.1351 24.1444 26.7874L26.3976 29.7916L27.3614 28.9779C26.9358 28.3896 25.9344 27.0252 24.8579 25.5607C23.7689 24.1086 22.8802 22.907 22.8677 22.9195C22.8426 22.9195 22.6048 23.0697 22.3294 23.2324C22.054 23.3951 21.8412 23.5829 21.8663 23.658ZM1.86335 42.0337C1.86335 43.5608 1.9009 43.8111 2.15125 44.3744C2.31398 44.7124 2.63943 45.1755 2.88978 45.3758C3.14013 45.5761 3.55321 45.8265 3.81607 45.9016C4.1916 46.0267 9.46145 46.0643 27.5242 46.0643C45.5869 46.0643 50.8567 46.0267 51.2322 45.9016C51.4951 45.8265 51.9082 45.5761 52.1585 45.3758C52.4089 45.1755 52.7343 44.7124 52.8971 44.3744C53.1474 43.8111 53.185 43.5608 53.185 42.0211V40.3062H1.86335V42.0337ZM21.5158 48.7305C21.5158 49.1561 21.4282 50.1074 21.3155 50.8209C21.2154 51.5469 20.965 52.7611 20.7647 53.5122C20.5644 54.2757 20.3767 54.9892 20.3391 55.1144C20.264 55.3272 20.6646 55.3272 27.5242 55.3272C34.3837 55.3272 34.7843 55.3272 34.7092 55.1144C34.6591 54.9892 34.4964 54.4385 34.3211 53.8877C34.1584 53.3495 33.9206 52.323 33.7829 51.6346C33.6577 50.9461 33.495 49.8446 33.4449 49.1686L33.3448 47.9419H21.5158V48.7305ZM13.9552 57.8557C13.8426 58.0185 13.7549 58.3815 13.7549 58.6569C13.7424 58.9698 13.8426 59.2827 14.0053 59.4955C14.143 59.6958 14.4559 59.8961 14.7188 59.9712C15.0192 60.0463 19.7508 60.0964 27.5242 60.0964C35.2975 60.0964 40.0291 60.0463 40.317 59.9712C40.5924 59.8961 40.9053 59.6958 41.043 59.4955C41.2057 59.2827 41.3059 58.9698 41.2934 58.6569C41.2934 58.3815 41.1932 58.0185 41.0806 57.8557C40.9554 57.6805 40.6675 57.4677 40.4422 57.3801C40.1167 57.2549 37.5632 57.2174 27.4866 57.2174C17.1972 57.2299 14.869 57.2549 14.5561 57.3926C14.3307 57.4927 14.0679 57.7055 13.9552 57.8557ZM43.4714 4.09321C43.6216 4.13076 43.8344 4.28097 43.9596 4.43118C44.0848 4.58139 44.1849 4.84426 44.1849 5.0195C44.1724 5.19475 44.1098 5.42006 44.0222 5.54524C43.9346 5.6579 43.2085 6.12104 42.4199 6.57167C41.6313 7.0223 40.8427 7.39782 40.6675 7.39782C40.4923 7.39782 40.2294 7.27265 40.0667 7.10992C39.9165 6.95971 39.7913 6.70936 39.7913 6.54664C39.7913 6.39643 39.8413 6.15859 39.9165 6.0209C39.979 5.88321 40.4547 5.53272 40.9429 5.24482C41.4436 4.95692 42.1571 4.55636 42.5326 4.3686C42.9582 4.14328 43.3087 4.04314 43.4714 4.09321ZM40.9053 10.402H44.7983L45.0486 10.74C45.1988 10.9403 45.3115 11.2157 45.299 11.3659C45.299 11.5286 45.1613 11.7915 44.986 11.9667C44.6731 12.2796 44.6481 12.2796 42.7329 12.2421C41.2183 12.2296 40.7551 12.1795 40.6174 12.0293C40.5048 11.9291 40.3921 11.6663 40.342 11.466C40.2669 11.1656 40.317 11.0279 40.5799 10.74L40.9053 10.402ZM27.4866 41.9586C27.6493 41.9586 27.9247 42.0337 28.1125 42.1213C28.3128 42.2214 28.5381 42.4467 28.6132 42.622C28.7008 42.8097 28.7759 43.1227 28.7759 43.323C28.7759 43.5733 28.6507 43.8362 28.4129 44.074C28.125 44.3744 27.9372 44.4495 27.5367 44.4495C27.1361 44.4495 26.9358 44.3744 26.6479 44.074C26.3851 43.8111 26.2724 43.5858 26.2724 43.2979C26.2724 43.0726 26.3726 42.7597 26.4727 42.5969C26.5853 42.4217 26.7856 42.2214 26.9358 42.1213C27.086 42.0337 27.3364 41.9586 27.4866 41.9586Z" fill="#F24A25"/>
</svg>
