<svg width="43" height="64" viewBox="0 0 43 64" fill="none" xmlns="http://www.w3.org/2000/svg">
<path fill-rule="evenodd" clip-rule="evenodd" d="M21.6144 0.0128766C21.7364 0.0321465 21.9163 0.109226 22.0191 0.173459C22.1154 0.237692 22.2375 0.385427 22.2888 0.4882C22.3659 0.648783 22.3852 1.0663 22.3852 2.94832C22.3916 5.2029 22.3852 5.20932 22.2439 5.43414C22.1604 5.55618 21.9934 5.71034 21.8713 5.77457C21.7107 5.85808 21.5759 5.87735 21.3896 5.85165C21.2483 5.82596 21.062 5.7553 20.9721 5.69749C20.8821 5.63326 20.7601 5.4791 20.6959 5.34421C20.5995 5.13867 20.5867 4.87531 20.5867 2.91621C20.5867 0.905714 20.5995 0.693746 20.7023 0.4882C20.7794 0.346888 20.9271 0.205576 21.107 0.11565C21.3189 0.00645369 21.4474 -0.0192399 21.6144 0.0128766ZM11.5941 2.67212C11.7675 2.67854 11.9602 2.72351 12.0758 2.80059C12.2171 2.89051 12.5768 3.45576 13.3733 4.83677C14.0285 5.9737 14.4845 6.82799 14.491 6.94361C14.4974 7.04639 14.4845 7.22624 14.4653 7.32901C14.4396 7.43178 14.3432 7.59879 14.2469 7.69514C14.1441 7.79149 13.9642 7.90068 13.8422 7.93922C13.6923 7.98205 13.5424 7.98205 13.3926 7.93922C13.2705 7.90068 13.1035 7.82361 13.0264 7.75937C12.9494 7.70156 12.397 6.79588 11.7932 5.7553C10.8489 4.12379 10.6948 3.82189 10.6948 3.59065C10.6948 3.43649 10.7398 3.22452 10.7911 3.12175C10.8425 3.01898 10.9838 2.87124 11.0995 2.80059C11.2279 2.72351 11.4142 2.67212 11.5941 2.67212ZM31.3778 2.67212C31.5512 2.67212 31.7504 2.72351 31.8788 2.80059C31.988 2.87124 32.1293 3.01898 32.1807 3.12175C32.2321 3.22452 32.2771 3.43649 32.2771 3.59065C32.2771 3.82189 32.1229 4.12379 31.1658 5.77457C30.3693 7.162 30.0096 7.72726 29.8683 7.81718C29.7656 7.88142 29.5857 7.94565 29.4829 7.95849C29.3802 7.97134 29.2003 7.96492 29.0975 7.9328C28.9948 7.90711 28.8085 7.77864 28.6993 7.6566C28.513 7.45748 28.4873 7.3804 28.4873 7.09135C28.4937 6.77661 28.5451 6.65457 29.271 5.40202C29.7013 4.65692 30.1702 3.84758 30.318 3.6035C30.4593 3.35299 30.6199 3.09606 30.6712 3.01898C30.7226 2.94832 30.8382 2.83913 30.9282 2.78132C31.0245 2.71708 31.2108 2.67212 31.3778 2.67212ZM21.3896 9.55147C21.6401 9.54505 22.1411 9.57717 22.5137 9.60928C22.8862 9.64782 23.4065 9.7249 23.6698 9.77629C23.9332 9.82767 24.4406 9.96256 24.7939 10.0718C25.1472 10.181 25.6932 10.3801 26.0143 10.5214C26.3355 10.6563 26.8365 10.9196 27.1384 11.0995C27.4403 11.2793 27.8964 11.5812 28.1533 11.7739C28.4038 11.9602 28.8534 12.3392 29.1361 12.6154C29.4251 12.8852 29.8426 13.3284 30.061 13.5917C30.2794 13.8551 30.6263 14.3176 30.8254 14.6195C31.0245 14.9213 31.3264 15.4545 31.5063 15.8078C31.6797 16.161 31.9238 16.752 32.0458 17.1245C32.1743 17.4971 32.3285 18.0752 32.3991 18.4092C32.4698 18.7432 32.5597 19.3984 32.5982 19.8544C32.6496 20.4518 32.6496 20.9271 32.5982 21.5245C32.5597 21.9806 32.4698 22.6486 32.3991 23.0019C32.3285 23.3551 32.1807 23.9011 32.0779 24.2223C31.9752 24.5434 31.6861 25.205 31.442 25.6996C31.198 26.1942 30.7997 26.8751 30.562 27.2091C30.318 27.5431 29.8169 28.1212 29.4444 28.4938C29.0718 28.8663 28.5516 29.3738 28.2882 29.6243C28.0248 29.8748 27.7165 30.2345 27.6073 30.4272C27.4917 30.6199 27.3183 30.9924 27.2219 31.2558C27.0613 31.7054 27.0485 31.8275 27.0164 33.1185C26.9843 34.2876 26.9586 34.5317 26.8622 34.6794C26.8044 34.7758 26.6567 34.9106 26.5411 34.9813C26.4254 35.052 26.2199 35.1098 26.0786 35.1098C25.9373 35.1098 25.7317 35.052 25.6097 34.9813C25.5005 34.9106 25.3592 34.7565 25.3014 34.6473C25.2114 34.461 25.1986 34.2298 25.2243 32.958C25.25 31.8275 25.2821 31.3843 25.372 31.0631C25.4298 30.8319 25.6161 30.3565 25.7831 30.0032C25.9565 29.6435 26.2584 29.149 26.4704 28.8792C26.6824 28.6158 27.1127 28.179 27.4339 27.9093C27.7486 27.6395 28.1405 27.2798 28.301 27.1063C28.4616 26.9329 28.7764 26.5475 28.9948 26.2456C29.2196 25.9437 29.5279 25.4684 29.6821 25.1858C29.8362 24.9032 30.0739 24.37 30.2152 23.9975C30.3501 23.6249 30.5364 23.0211 30.6199 22.6486C30.7483 22.0705 30.7676 21.8007 30.7676 20.7216C30.7676 19.7581 30.7419 19.347 30.652 18.9231C30.5877 18.6212 30.44 18.088 30.3244 17.7348C30.2023 17.3815 29.9904 16.8612 29.8491 16.5786C29.7077 16.2959 29.4123 15.7885 29.1875 15.4545C28.937 15.0819 28.5066 14.5681 28.0698 14.1377C27.6202 13.6817 27.132 13.2706 26.7209 13.0008C26.3676 12.7631 25.8024 12.442 25.4684 12.2878C25.1344 12.1272 24.7104 11.9474 24.537 11.8896C24.3571 11.8317 23.9974 11.729 23.7341 11.6583C23.4707 11.5941 23.0532 11.5106 22.8027 11.472C22.5522 11.4399 21.9612 11.4078 21.4859 11.4078C20.9913 11.4078 20.3747 11.4463 20.0407 11.5042C19.7195 11.562 19.2892 11.6455 19.0772 11.7033C18.8652 11.7547 18.4027 11.9152 18.0495 12.0501C17.6962 12.1914 17.1566 12.4548 16.8419 12.6411C16.5336 12.8274 16.1032 13.11 15.8848 13.2706C15.6664 13.4311 15.2232 13.823 14.9085 14.1377C14.5873 14.4589 14.1313 14.992 13.8936 15.326C13.6559 15.66 13.3155 16.2253 13.1421 16.5786C12.9622 16.9318 12.7374 17.4778 12.6282 17.799C12.5254 18.1201 12.3905 18.6212 12.3199 18.9231C12.23 19.347 12.2043 19.7452 12.2043 20.7216C12.2043 21.8007 12.2235 22.0705 12.352 22.6486C12.4355 23.0211 12.6218 23.6249 12.7567 23.9975C12.898 24.37 13.1356 24.9032 13.2898 25.1858C13.444 25.4684 13.7523 25.9437 13.9771 26.2456C14.1955 26.5475 14.6002 27.01 14.8699 27.2733C15.1397 27.5367 15.6022 27.9863 15.9041 28.269C16.206 28.5516 16.5721 28.9563 16.7134 29.1682C16.8547 29.3802 17.0603 29.727 17.163 29.939C17.2722 30.151 17.42 30.5107 17.4906 30.7419C17.5677 30.9732 17.6576 31.3329 17.6962 31.5448C17.7283 31.7568 17.7604 32.5083 17.7604 33.2149C17.7604 34.3839 17.7476 34.5188 17.6319 34.7115C17.5613 34.8207 17.4007 34.962 17.2787 35.0134C17.1566 35.0648 16.9575 35.1098 16.8419 35.1098C16.7327 35.1098 16.54 35.052 16.4244 34.9813C16.3152 34.9106 16.1674 34.7758 16.1032 34.6794C16.0133 34.5317 15.9876 34.2876 15.9555 33.1185C15.9234 31.9174 15.8977 31.6862 15.7692 31.32C15.6921 31.0888 15.5508 30.774 15.4609 30.6135C15.3709 30.4529 15.1782 30.1767 15.0369 30.0032C14.8892 29.8234 14.5167 29.4444 14.1955 29.1618C13.8743 28.8792 13.4311 28.436 13.1999 28.179C12.9686 27.9221 12.6025 27.466 12.3777 27.1577C12.1593 26.8494 11.7739 26.1942 11.5298 25.6996C11.2857 25.205 10.9903 24.5242 10.8875 24.1902C10.7783 23.8562 10.6306 23.3038 10.5663 22.9697C10.4957 22.6357 10.4122 21.9806 10.3736 21.5245C10.3222 20.9271 10.3222 20.4518 10.3736 19.8544C10.4122 19.3984 10.5021 18.7625 10.5727 18.4413C10.637 18.1201 10.7847 17.587 10.8939 17.253C11.0095 16.919 11.2279 16.3666 11.3821 16.0326C11.5362 15.6986 11.7996 15.204 11.9602 14.9406C12.1272 14.6773 12.3905 14.2854 12.5511 14.0735C12.7117 13.8615 13.0329 13.4697 13.2641 13.2063C13.5018 12.943 13.9386 12.519 14.234 12.2685C14.5295 12.018 15.0177 11.6455 15.3196 11.4463C15.6215 11.2472 16.1225 10.9453 16.4436 10.7847C16.7648 10.6242 17.3108 10.3801 17.6641 10.2452C18.0173 10.1167 18.6404 9.93045 19.0451 9.84052C19.4497 9.75059 20.0407 9.64782 20.3618 9.61571C20.683 9.59001 21.1391 9.5579 21.3896 9.55147ZM4.33572 9.93045C4.57981 9.93045 4.75966 10.0075 5.55615 10.47C6.07002 10.7655 6.93716 11.2665 7.48314 11.5812C8.3824 12.1015 8.4916 12.185 8.62649 12.442C8.74211 12.6668 8.76138 12.776 8.72926 12.9815C8.69715 13.1357 8.6008 13.3284 8.47233 13.4633C8.27321 13.6752 8.24109 13.6881 7.85569 13.6881C7.45102 13.6881 7.43818 13.6817 6.0379 12.8595C5.26068 12.4098 4.4385 11.9281 4.20726 11.7932C3.97602 11.6583 3.71909 11.472 3.62916 11.3757C3.51997 11.2536 3.46216 11.1123 3.44289 10.9068C3.43004 10.7141 3.45573 10.5278 3.52639 10.3993C3.5842 10.2837 3.72551 10.1296 3.83471 10.0589C3.96317 9.98183 4.1623 9.93045 4.33572 9.93045ZM38.6361 9.93045C38.8096 9.93045 39.0087 9.98183 39.1307 10.0589C39.2463 10.1296 39.3877 10.2773 39.439 10.3801C39.4904 10.4829 39.5354 10.6755 39.5354 10.7976C39.5354 10.9196 39.4968 11.0995 39.4455 11.2023C39.3941 11.2986 39.3042 11.4271 39.2399 11.4849C39.1693 11.5427 38.3085 12.0566 37.3194 12.6282C35.7842 13.5211 35.4759 13.6752 35.1997 13.7009C34.9556 13.7202 34.8271 13.6945 34.6665 13.5982C34.5573 13.5211 34.4224 13.399 34.3711 13.3219C34.3197 13.2384 34.2619 13.0714 34.2362 12.9494C34.2105 12.7824 34.2362 12.6475 34.3454 12.442C34.4867 12.1658 34.5895 12.0951 36.4201 11.0417C38.1415 10.0461 38.3792 9.93045 38.6361 9.93045ZM25.1472 17.5742C25.3142 17.5742 25.5198 17.6256 25.629 17.6898C25.7317 17.754 25.873 17.9146 25.9373 18.0431C25.9951 18.1715 26.0465 18.3707 26.0465 18.4734C26.0465 18.5762 26.0079 18.7432 25.9565 18.846C25.9052 18.9423 24.7811 20.0985 23.4643 21.4153C21.2675 23.6121 21.0491 23.8112 20.8115 23.8497C20.6702 23.869 20.4646 23.869 20.3618 23.8433C20.227 23.8112 19.7452 23.3744 18.7689 22.4045C17.9981 21.6401 17.3236 20.9336 17.2722 20.8372C17.2209 20.7344 17.1823 20.5353 17.1823 20.3876C17.1823 20.2334 17.2401 20.0279 17.3044 19.9187C17.3686 19.8159 17.5292 19.6746 17.6576 19.6168C17.7861 19.5525 17.9595 19.5012 18.0495 19.5012C18.1394 19.5012 18.2871 19.5333 18.3835 19.5654C18.4862 19.6039 19.0258 20.0985 20.6188 21.6851L22.5458 19.7517C23.6056 18.6854 24.5627 17.7604 24.6655 17.6962C24.7811 17.6256 24.9738 17.5742 25.1472 17.5742ZM3.6934 19.8223C5.96724 19.8159 5.97367 19.8223 6.19848 19.9636C6.32052 20.0471 6.47468 20.2141 6.53891 20.3362C6.61599 20.4903 6.64169 20.6381 6.62242 20.8179C6.60315 20.9592 6.53892 21.1391 6.48753 21.2226C6.43614 21.2997 6.29483 21.4217 6.17921 21.4924C5.98651 21.6144 5.85805 21.6208 3.72551 21.6208C1.71502 21.6208 1.45167 21.608 1.25254 21.5052C1.1305 21.4474 0.976342 21.2933 0.905686 21.1712C0.835029 21.0492 0.783643 20.8436 0.783643 20.7216C0.783643 20.5995 0.835028 20.4004 0.892838 20.2912C0.950648 20.1756 1.09196 20.0214 1.20758 19.9508C1.40028 19.8287 1.52874 19.8223 3.6934 19.8223ZM39.2592 19.8223C41.1476 19.8223 41.5587 19.8416 41.7193 19.9187C41.8285 19.9701 41.9762 20.1114 42.0533 20.227C42.1304 20.349 42.1882 20.5353 42.1882 20.6895C42.1946 20.8308 42.1368 21.0492 42.0662 21.1712C41.9955 21.2933 41.8414 21.4474 41.7193 21.5052C41.5202 21.608 41.2568 21.6208 39.2463 21.6208C37.1138 21.6208 36.9853 21.6144 36.7862 21.4924C36.677 21.4217 36.5357 21.2997 36.4843 21.2226C36.4329 21.1391 36.3687 20.9592 36.3494 20.8179C36.3302 20.6381 36.3559 20.4903 36.4329 20.3362C36.4972 20.2141 36.6449 20.0471 36.767 19.9701C36.9853 19.8223 37.0046 19.8223 39.2592 19.8223ZM6.68023 34.7565C6.82154 34.7693 7.00139 34.8336 7.07847 34.885C7.16198 34.9363 7.27117 35.0455 7.32256 35.129C7.37395 35.2061 7.43818 35.386 7.45745 35.5273C7.48314 35.7328 7.43818 35.932 7.20694 36.5229C7.04636 36.9276 6.83439 37.5827 6.73161 37.9681C6.62242 38.3535 6.5068 38.7389 6.46826 38.8224C6.4233 38.8995 6.29483 39.028 6.17921 39.1115C5.98009 39.2464 5.91586 39.2528 3.99529 39.2849C2.10684 39.317 2.01049 39.3235 1.92056 39.4455C1.84349 39.5547 1.83064 40.0043 1.83064 42.0662C1.83064 44.4685 1.83706 44.5584 1.95911 44.6805C2.08115 44.8025 2.17107 44.8089 3.95033 44.8089C5.34418 44.8089 5.86447 44.8282 6.01863 44.8925C6.13425 44.9438 6.29483 45.0659 6.37833 45.1687C6.46184 45.2714 6.55176 45.4706 6.5903 45.6119C6.62242 45.7532 6.77015 46.2478 6.91147 46.7038C7.0592 47.1599 7.31613 47.86 7.48956 48.2454C7.66299 48.6308 7.97131 49.2539 8.18328 49.6264C8.38883 49.999 8.5751 50.3715 8.59437 50.4614C8.62006 50.5514 8.60722 50.7248 8.5751 50.8468C8.52372 51.0139 8.16401 51.4185 7.16198 52.4206C5.92228 53.6603 5.81308 53.7887 5.81308 53.9943C5.81308 54.2062 5.94155 54.3411 7.56664 55.9726C9.19174 57.6042 9.32663 57.7262 9.51933 57.7069C9.68633 57.6941 9.95611 57.4564 11.0738 56.358C12.1465 55.3046 12.4805 55.0091 12.6667 54.9578C12.8081 54.9192 12.9879 54.9192 13.1035 54.9513C13.2063 54.977 13.5981 55.1761 13.9707 55.3817C14.3432 55.5872 14.9213 55.8827 15.2553 56.0304C15.5893 56.1846 16.2702 56.4351 16.7648 56.5957C17.2594 56.7499 17.7861 56.9104 17.9338 56.949C18.088 56.9811 18.2935 57.0839 18.4027 57.1738C18.5119 57.2637 18.6211 57.4436 18.6597 57.5785C18.6918 57.7069 18.7239 58.6319 18.7239 59.6339C18.7239 61.3618 18.7303 61.4517 18.8524 61.5738C18.9744 61.6958 19.0643 61.7022 21.4667 61.7022C23.5285 61.7022 23.9782 61.6894 24.0874 61.6123C24.2094 61.5224 24.2158 61.426 24.2479 59.5376C24.2736 57.7904 24.2929 57.5335 24.3893 57.3793C24.4535 57.283 24.5691 57.1609 24.6462 57.1096C24.7297 57.0646 25.1536 56.9169 25.5968 56.7884C26.04 56.6599 26.7145 56.4287 27.1063 56.281C27.4917 56.1268 28.0313 55.8956 28.2946 55.7607C28.558 55.6258 28.9948 55.3945 29.2581 55.2468C29.5215 55.0926 29.8426 54.9513 29.9647 54.9256C30.1253 54.8999 30.2601 54.9192 30.4464 55.0156C30.5942 55.0926 31.2429 55.69 31.9687 56.4351C33.0993 57.5785 33.2663 57.7198 33.4461 57.7198C33.6324 57.7198 33.8379 57.5399 35.4052 55.9726C37.0367 54.3411 37.1588 54.2062 37.1588 53.9943C37.1588 53.7887 37.0496 53.6603 35.8099 52.4206C34.8078 51.4185 34.4481 51.0139 34.3968 50.8468C34.3646 50.7184 34.3582 50.5385 34.3839 50.4293C34.416 50.3201 34.5445 50.0632 34.673 49.8512C34.795 49.6393 35.0776 49.1061 35.2896 48.6629C35.5016 48.2197 35.8227 47.4104 35.9962 46.8644C36.176 46.3184 36.3494 45.7532 36.3815 45.6119C36.4201 45.4706 36.51 45.2714 36.5935 45.1687C36.677 45.0659 36.8376 44.9438 36.9468 44.8925C37.1074 44.8282 37.6277 44.8089 39.0215 44.8089C40.8008 44.8089 40.8907 44.8025 41.0127 44.6805C41.1348 44.5584 41.1412 44.4685 41.1412 39.4776L40.9935 39.3813C40.8779 39.2978 40.5438 39.2849 39.0215 39.2849C37.3322 39.2849 37.1716 39.2721 36.9147 39.1564C36.767 39.0858 36.5999 38.9637 36.5486 38.8867C36.4972 38.8032 36.3687 38.4178 36.2659 38.0324C36.1567 37.647 35.9705 37.0496 35.8356 36.7156C35.7071 36.3816 35.5979 35.9898 35.5979 35.8484C35.5979 35.7071 35.6429 35.5016 35.7071 35.3988C35.7649 35.296 35.9062 35.1483 36.0218 35.0841C36.1375 35.0134 36.343 34.9556 36.4843 34.9556C36.6256 34.9556 36.8376 35.0134 36.9468 35.0841C37.0624 35.1483 37.2102 35.3089 37.2808 35.4309C37.3451 35.553 37.5442 36.054 38.0259 37.4157L39.5996 37.4414C41.0192 37.4607 41.2054 37.4735 41.5266 37.5956C41.7193 37.6727 42.0341 37.8718 42.2268 38.0452C42.4516 38.2443 42.6378 38.4948 42.9719 39.1886L42.9911 41.8221C43.0104 44.0895 43.004 44.5135 42.914 44.8732C42.8562 45.1044 42.7085 45.4449 42.5865 45.6311C42.4644 45.811 42.2396 46.0551 42.0854 46.1643C41.9377 46.2735 41.7129 46.4148 41.5908 46.4726C41.411 46.5561 41.0513 46.5818 38.0259 46.6396L37.8139 47.2498C37.7048 47.5838 37.5185 48.0913 37.4093 48.3739C37.3001 48.6565 37.0303 49.241 36.4201 50.4614L37.5185 51.5663C38.3085 52.3756 38.6554 52.7674 38.7582 52.9986C38.8417 53.1785 38.9316 53.4804 38.9573 53.6731C38.983 53.8658 38.983 54.187 38.9509 54.3797C38.9188 54.5724 38.8288 54.8614 38.7517 55.022C38.6554 55.2211 38.0452 55.8827 36.7477 57.1931C35.2896 58.6576 34.795 59.1136 34.4931 59.2806C34.127 59.4733 34.0692 59.4862 33.4333 59.4862C32.8166 59.4862 32.7267 59.4733 32.4055 59.2999C32.1614 59.1714 31.7118 58.7796 29.894 56.9811L29.271 57.2958C28.9305 57.4693 28.3589 57.7326 28.0056 57.8804C27.6523 58.0281 27.0806 58.2401 26.1107 58.5548L26.0914 60.1478C26.0722 61.4453 26.0465 61.7857 25.9565 62.0234C25.8987 62.184 25.7703 62.4281 25.6739 62.5694C25.5711 62.7107 25.3528 62.9355 25.1729 63.0639C24.9995 63.1988 24.7104 63.3594 24.537 63.4172C24.2479 63.52 23.9204 63.5329 21.4859 63.5329C19.0322 63.5329 18.7239 63.52 18.4349 63.4172C18.255 63.353 17.9788 63.2053 17.8054 63.0832C17.6384 62.9612 17.42 62.7364 17.3172 62.5886C17.2144 62.4345 17.0795 62.184 17.0153 62.0234C16.9254 61.7857 16.8997 61.4324 16.829 58.5484L16.1867 58.3364C15.8334 58.2144 15.281 58.0152 14.9663 57.8804C14.6451 57.7519 14.0927 57.495 13.0778 56.9811L11.9987 58.0474C11.26 58.7796 10.8104 59.1714 10.5663 59.2999C10.2387 59.4733 10.1552 59.4862 9.53859 59.4862C8.9605 59.4862 8.81919 59.4605 8.54298 59.332C8.2989 59.2164 7.75292 58.709 6.28841 57.2444C4.92025 55.8763 4.31646 55.2275 4.22011 55.022C4.14303 54.8614 4.0531 54.5595 4.02098 54.3475C3.98244 54.1227 3.98244 53.8273 4.00814 53.641C4.04025 53.4675 4.13018 53.1785 4.21368 52.9986C4.31645 52.7674 4.65689 52.3756 6.55176 50.4614L6.15994 49.6714C5.94155 49.241 5.67819 48.6565 5.56257 48.3739C5.45338 48.0913 5.2671 47.5838 4.94594 46.6396L1.60582 46.5754L1.25254 46.3891C1.05984 46.2927 0.75795 46.0615 0.590944 45.8752C0.417515 45.6954 0.218393 45.3935 0.141313 45.1943C0.0064239 44.8475 0 44.7704 0 39.1886L0.199123 38.771C0.334012 38.4948 0.520287 38.2508 0.745102 38.0452C0.937801 37.8718 1.25254 37.6727 1.44524 37.5956C1.76641 37.4735 1.94626 37.4607 4.97805 37.4222L5.17718 36.7991C5.2928 36.4522 5.46623 35.9512 5.569 35.6879C5.67177 35.4245 5.80666 35.1355 5.87089 35.0455C5.9287 34.962 6.07644 34.8528 6.19848 34.8079C6.32052 34.7629 6.53892 34.7372 6.68023 34.7565ZM13.4568 35.6236C13.6495 35.6236 13.8144 35.6729 13.9514 35.7714C14.067 35.8484 14.2083 36.009 14.2597 36.1246C14.3111 36.2338 14.3561 36.4265 14.3561 36.5422C14.3561 36.6835 14.2148 36.9854 13.9257 37.4864C13.6816 37.8975 13.3926 38.4756 13.2705 38.771C13.1549 39.0729 12.9879 39.574 12.9108 39.8951C12.8273 40.2163 12.7246 40.7751 12.686 41.1477C12.6346 41.5331 12.6218 42.1112 12.641 42.4966C12.6603 42.8691 12.7438 43.4729 12.8145 43.8455C12.8916 44.218 13.0521 44.7961 13.1806 45.1301C13.3026 45.4641 13.5275 45.9716 13.6816 46.2542C13.8358 46.5368 14.112 46.9864 14.2983 47.2498C14.4845 47.5132 14.9277 48.0206 15.2874 48.3739C15.6407 48.7272 16.1803 49.1768 16.4758 49.3759C16.7777 49.575 17.2658 49.8641 17.5677 50.0118C17.8696 50.1596 18.4027 50.3779 18.756 50.4936C19.1093 50.6092 19.6874 50.7505 20.0407 50.8147C20.4325 50.879 21.0042 50.9175 21.518 50.9175C21.9741 50.9175 22.6293 50.8661 22.9633 50.8083C23.2973 50.7505 23.8754 50.6028 24.2479 50.4807C24.6205 50.3587 25.2114 50.1146 25.5647 49.9283C25.918 49.7485 26.4832 49.3888 26.8173 49.1382C27.1513 48.8877 27.6138 48.4767 27.845 48.2326C28.0762 47.9885 28.3845 47.6352 28.5323 47.4425C28.68 47.2498 28.9498 46.8451 29.1297 46.5432C29.3095 46.2413 29.5664 45.7082 29.7077 45.3549C29.8426 45.0016 30.0161 44.4685 30.0867 44.1666C30.1638 43.8647 30.2537 43.3187 30.2923 42.9462C30.3372 42.5608 30.3501 41.9827 30.3244 41.5973C30.3051 41.2247 30.228 40.6466 30.1574 40.3126C30.0931 39.9786 29.9583 39.484 29.8619 39.2207C29.772 38.9573 29.5857 38.5077 29.4508 38.2251C29.3159 37.9424 29.0847 37.5249 28.9305 37.2937C28.7635 37.0303 28.6543 36.7798 28.6351 36.6192C28.6158 36.4522 28.6479 36.2852 28.725 36.1439C28.7892 36.0219 28.9113 35.8677 29.0012 35.8035C29.0911 35.7393 29.2645 35.6686 29.3866 35.6429C29.5472 35.6172 29.6949 35.6429 29.9004 35.7393C30.1253 35.8484 30.2537 35.9769 30.4914 36.343C30.6584 36.6 30.9346 37.1138 31.1145 37.4864C31.2879 37.8589 31.5191 38.4178 31.6219 38.7389C31.7311 39.0601 31.8788 39.6189 31.9559 39.9915C32.0394 40.4026 32.1101 41.0449 32.1293 41.6294C32.155 42.2461 32.1422 42.8498 32.0908 43.2995C32.0458 43.6849 31.9238 44.3272 31.8274 44.7126C31.7247 45.098 31.5512 45.6504 31.442 45.933C31.3264 46.2156 31.1466 46.6203 31.0438 46.8323C30.9346 47.0443 30.7483 47.3911 30.6199 47.6031C30.4914 47.8151 30.2409 48.1876 30.0546 48.4381C29.8748 48.6886 29.5215 49.0997 29.2838 49.3631C29.0397 49.6264 28.5965 50.0439 28.2946 50.3009C27.9927 50.5514 27.4724 50.9239 27.1384 51.1295C26.8044 51.3414 26.2841 51.6241 25.9822 51.7654C25.6803 51.9003 25.1922 52.0994 24.8903 52.2022C24.5884 52.2985 24.0681 52.4398 23.7341 52.5169C23.4001 52.5876 22.7449 52.6839 22.2888 52.7224C21.6465 52.7803 21.2611 52.7803 20.6188 52.716C20.1563 52.6711 19.5076 52.5811 19.1735 52.5041C18.8395 52.4334 18.3192 52.2857 18.0173 52.1829C17.7155 52.0801 17.1245 51.8232 16.7006 51.6112C16.2766 51.3993 15.6664 51.046 15.3517 50.8147C15.0305 50.5899 14.5166 50.1596 14.2019 49.8705C13.8872 49.575 13.4632 49.1383 13.2641 48.8877C13.0586 48.6372 12.7374 48.194 12.5447 47.8921C12.3456 47.5902 12.0822 47.1278 11.9473 46.8644C11.8124 46.601 11.6069 46.1257 11.4849 45.8046C11.3628 45.4834 11.1958 44.9374 11.1123 44.5841C11.0288 44.2309 10.926 43.6528 10.8811 43.2995C10.8361 42.9076 10.8168 42.2717 10.8425 41.6615C10.8618 41.0192 10.926 40.4283 11.016 39.9915C11.093 39.6189 11.2408 39.0601 11.3435 38.7389C11.4527 38.4178 11.7097 37.814 11.9152 37.39C12.1208 36.9661 12.4098 36.4522 12.5575 36.2467C12.7053 36.0411 12.898 35.8163 12.9943 35.7521C13.1035 35.6686 13.2705 35.6236 13.4568 35.6236ZM21.4538 38.2572C25.539 38.2572 25.706 38.2636 25.963 38.3857C26.1749 38.4884 26.2713 38.5784 26.3676 38.8032C26.4576 39.0087 26.4833 39.1629 26.4576 39.3363C26.4254 39.4905 26.3291 39.6575 25.918 40.0557L16.9768 40.0236L16.7712 39.7988C16.6492 39.6639 16.5464 39.4712 16.5143 39.317C16.4758 39.0986 16.495 39.0151 16.6428 38.7839C16.7391 38.6297 16.9061 38.4499 17.0153 38.3857C17.208 38.2636 17.3493 38.2572 21.4538 38.2572ZM21.4859 43.2031C23.4515 43.2031 23.5157 43.2095 23.7919 43.3509C24.0167 43.4601 24.1066 43.5564 24.203 43.7812C24.2929 43.9868 24.3122 44.1345 24.2801 44.2951C24.2544 44.4171 24.1837 44.5906 24.1259 44.6805C24.0617 44.7704 23.8882 44.8925 23.7469 44.9567C23.5093 45.053 23.2331 45.0659 21.4667 45.0659C19.5075 45.0659 19.4562 45.0659 19.18 44.9246C19.013 44.8346 18.8524 44.6869 18.7753 44.552C18.6854 44.385 18.6597 44.2565 18.6854 44.0574C18.7046 43.9033 18.7753 43.7041 18.8331 43.6078C18.8973 43.5179 19.0643 43.383 19.2057 43.3187C19.4369 43.216 19.6746 43.2031 21.4859 43.2031Z" fill="#F24A25"/>
</svg>
