<svg width="129" height="32" viewBox="0 0 129 32" fill="none" xmlns="http://www.w3.org/2000/svg">
<path d="M9.75 24.4062C8.17708 24.4062 6.59375 24.2188 5 23.8438C3.40625 23.4688 2.03125 22.9583 0.875 22.3125L2.46875 18.9219C3.35417 19.3906 4.41146 19.8177 5.64062 20.2031C6.88021 20.5781 8.21354 20.7656 9.64062 20.7656C10.5885 20.7656 11.3021 20.6302 11.7812 20.3594C12.2708 20.0885 12.599 19.7135 12.7656 19.2344C12.9427 18.7448 13.0312 18.1875 13.0312 17.5625C13.0312 17.1354 12.9583 16.7448 12.8125 16.3906C12.6667 16.026 12.3646 15.6927 11.9062 15.3906C11.4583 15.0781 10.7708 14.7865 9.84375 14.5156L5.90625 13.3594C4.65625 12.9844 3.68229 12.4844 2.98438 11.8594C2.29688 11.224 1.8125 10.4844 1.53125 9.64062C1.26042 8.79688 1.125 7.88542 1.125 6.90625C1.125 5.46875 1.47396 4.28125 2.17188 3.34375C2.88021 2.40625 3.83854 1.70833 5.04688 1.25C6.26562 0.78125 7.63021 0.546875 9.14062 0.546875C10.6615 0.546875 12.0625 0.692708 13.3438 0.984375C14.625 1.27604 15.7969 1.72917 16.8594 2.34375L15.5469 5.60938C14.6927 5.20312 13.7604 4.86458 12.75 4.59375C11.7396 4.32292 10.6719 4.1875 9.54688 4.1875C8.36979 4.1875 7.43229 4.36979 6.73438 4.73438C6.03646 5.08854 5.6875 5.76042 5.6875 6.75C5.6875 7.54167 5.89062 8.15104 6.29688 8.57812C6.71354 9.00521 7.50521 9.39583 8.67188 9.75L12.5938 10.9219C14.1458 11.3906 15.3125 12.1354 16.0938 13.1562C16.875 14.1771 17.2656 15.5938 17.2656 17.4062C17.2656 18.7083 17.0052 19.8906 16.4844 20.9531C15.9635 22.0052 15.151 22.8438 14.0469 23.4688C12.9427 24.0938 11.5104 24.4062 9.75 24.4062ZM22.0318 18.5781V9.92188H19.8131V7.21875H22.1568L22.5474 1.82812H26.2818V7.21875H30.2662V9.92188H26.2818V18.2656C26.2818 19.3073 26.5058 20.0312 26.9537 20.4375C27.412 20.8333 28.2818 21.0312 29.5631 21.0312H30.3756L30.2193 24.1875H29.0631C27.3756 24.1875 26.0162 24.0208 24.9849 23.6875C23.9537 23.3542 23.2037 22.7812 22.7349 21.9688C22.2662 21.1458 22.0318 20.0156 22.0318 18.5781ZM38.8605 24.3594C37.7876 24.3594 36.8605 24.1458 36.0793 23.7188C35.3084 23.2917 34.7095 22.7083 34.2824 21.9688C33.8657 21.2292 33.6574 20.3906 33.6574 19.4531V7.21875H37.9074V18.7656C37.9074 19.349 38.0532 19.8177 38.3449 20.1719C38.6366 20.5156 39.0011 20.7656 39.4386 20.9219C39.8761 21.0781 40.3136 21.1562 40.7511 21.1562C41.272 21.1562 41.7876 21.0677 42.298 20.8906C42.8084 20.7135 43.2303 20.4323 43.5636 20.0469C43.9074 19.6615 44.0793 19.1562 44.0793 18.5312V7.21875H48.3293V24H44.3293L44.2043 22.1562C43.8709 22.8542 43.1886 23.3958 42.1574 23.7812C41.1261 24.1667 40.0272 24.3594 38.8605 24.3594ZM52.5642 18.9375V12.2344C52.5642 10.6823 53.1111 9.40104 54.2048 8.39062C55.309 7.36979 57.085 6.85938 59.533 6.85938C60.0121 6.85938 60.5277 6.91667 61.0798 7.03125C61.6423 7.13542 62.1684 7.27604 62.658 7.45312V0.328125H66.908V24H64.033L63.5798 23.0156C63.0382 23.401 62.3923 23.724 61.6423 23.9844C60.9027 24.2344 60.1007 24.3594 59.2361 24.3594C57.7257 24.3594 56.4757 24.1406 55.4861 23.7031C54.4965 23.2656 53.7621 22.6458 53.283 21.8438C52.8038 21.0312 52.5642 20.0625 52.5642 18.9375ZM62.658 20.7031V10.4062C62.3767 10.2708 61.9913 10.1406 61.5017 10.0156C61.0225 9.89062 60.4861 9.82812 59.8923 9.82812C58.9236 9.82812 58.1684 10 57.6267 10.3438C57.085 10.6875 56.8142 11.2865 56.8142 12.1406V19C56.8142 19.8542 57.0642 20.4635 57.5642 20.8281C58.0746 21.1927 58.7986 21.375 59.7361 21.375C60.3194 21.375 60.8715 21.3125 61.3923 21.1875C61.9132 21.0625 62.335 20.901 62.658 20.7031ZM71.0648 7.21875H75.2991V24H71.0648V7.21875ZM71.0335 4.46875V0.328125H75.3148V4.46875H71.0335Z" fill="#111111"/>
<path d="M79.5966 18.4844V0.328125H83.8466V18.4219C83.8466 19.0365 83.9351 19.5365 84.1122 19.9219C84.2997 20.3073 84.6122 20.5885 85.0497 20.7656C85.4872 20.9427 86.0862 21.0312 86.8466 21.0312H87.3778L87.0497 24.1875H85.2685C84.0289 24.1875 82.9872 24.0052 82.1435 23.6406C81.2997 23.276 80.6643 22.6771 80.2372 21.8438C79.8101 21.0104 79.5966 19.8906 79.5966 18.4844ZM90.1909 31.5781L89.8784 28.0625C90.9305 27.9062 91.8367 27.5104 92.5972 26.875C93.368 26.25 93.993 25.3073 94.4722 24.0469L94.8472 23.0625L95.2378 24.6406L88.4097 7.21875H92.644L97.7847 21.2188H96.0034L100.347 7.21875H104.582L98.7847 23.8125C97.8784 26.4062 96.7222 28.2865 95.3159 29.4531C93.9201 30.6302 92.2117 31.3385 90.1909 31.5781ZM108.488 9.92188H106.254V7.21875H108.488V6.42188C108.488 4.43229 108.931 2.91667 109.816 1.875C110.712 0.833333 112.155 0.3125 114.145 0.3125H116.113L116.223 3.26562H114.91C113.994 3.26562 113.4 3.49479 113.129 3.95312C112.869 4.40104 112.738 4.90625 112.738 5.46875V7.21875H116.082V9.92188H112.738V24H108.488V9.92188ZM119.942 18.5781V9.92188H117.723V7.21875H120.067L120.458 1.82812H124.192V7.21875H128.176V9.92188H124.192V18.2656C124.192 19.3073 124.416 20.0312 124.864 20.4375C125.322 20.8333 126.192 21.0312 127.473 21.0312H128.286L128.13 24.1875H126.973C125.286 24.1875 123.926 24.0208 122.895 23.6875C121.864 23.3542 121.114 22.7812 120.645 21.9688C120.176 21.1458 119.942 20.0156 119.942 18.5781Z" fill="#F24A25"/>
</svg>
