<svg width="56" height="56" viewBox="0 0 56 56" fill="none" xmlns="http://www.w3.org/2000/svg">
<path fill-rule="evenodd" clip-rule="evenodd" d="M24.0547 8.69343C24.4146 8.69343 25.4518 8.31241 26.3832 7.84672C27.2934 7.38102 28.3307 7 28.6482 7C28.9657 7 29.8759 7.33869 30.6591 7.76204C31.7599 8.33358 32.5854 8.58759 34.1095 8.82044C35.6547 9.03212 36.2263 9.22263 36.6285 9.58248C36.8825 9.85766 37.3693 10.5985 37.708 11.2336C38.0679 11.9745 38.7664 12.8212 39.592 13.562C40.4387 14.3029 40.989 14.9803 41.1372 15.4672C41.3066 16.0175 41.2854 16.5255 41.0949 17.4781C40.9044 18.3248 40.8832 19.1715 40.9891 20.0182C41.0737 20.7168 41.1584 21.7328 41.1796 22.2832C41.2007 23.2781 41.1584 23.3416 39.6978 24.7175C38.7029 25.6701 37.962 26.6015 37.5175 27.4905C37.1577 28.2102 36.6496 28.9299 36.3745 29.0993C36.1204 29.2474 35.1891 29.438 34.3212 29.5015C33.0511 29.5861 32.4372 29.7555 31.2518 30.3693C30.0664 30.962 29.5161 31.1314 28.5423 31.1314C27.5474 31.1314 27.0818 31.0044 25.8963 30.3693C24.7321 29.7343 24.1818 29.5861 22.8905 29.5015C22.0226 29.438 21.0912 29.2474 20.8161 29.0993C20.562 28.9299 20.054 28.2102 19.673 27.4905C19.2285 26.6015 18.4664 25.6277 15.7993 23.0453L15.9686 21.8599C16.0745 21.2036 16.2015 20.1876 16.265 19.5949C16.3285 19.0234 16.2438 18.0073 16.1168 17.3723C15.9263 16.5044 15.9051 16.0175 16.0745 15.4672C16.2226 14.9803 16.773 14.3029 17.6197 13.562C18.4453 12.8212 19.1438 11.9745 19.5036 11.2336C19.8423 10.5985 20.3292 9.85766 20.5832 9.60365C20.8796 9.32847 21.5993 9.03212 22.2555 8.90511C22.8905 8.7781 23.7161 8.69343 24.0547 8.69343ZM18.2124 39.7679C18.6781 38.7942 19.4825 36.5504 20.0328 34.7934L21.0489 31.5547H21.8533C22.319 31.5547 23.1869 31.6606 23.7796 31.7876C24.3934 31.9358 25.4942 32.3591 27.5474 33.4599V34.5818C27.5474 35.3156 27.2582 36.5292 26.6796 38.2226C26.1927 39.6197 25.346 41.673 24.7745 42.7737C24.2241 43.8745 23.1022 45.6314 22.319 46.6686C21.5358 47.7058 20.7737 48.5949 20.6679 48.6372C20.562 48.6796 20.2869 48.0234 20.054 47.1766C19.8423 46.3299 19.6307 45.462 19.5883 45.2715C19.546 45.0599 19.3343 44.8905 19.1226 44.8905C18.9321 44.8905 18.1277 45.1445 17.3234 45.4197C16.5401 45.7161 15.4818 45.9489 14 45.9489L15.6934 43.7263C16.6248 42.4985 17.7679 40.7204 18.2124 39.7679ZM31.3788 32.6555C32.1197 32.2533 33.0934 31.8723 33.5591 31.7876C34.0248 31.6818 34.8504 31.5971 36.3109 31.5759L37.327 34.8993C37.8985 36.7409 38.7453 39.0482 39.211 40.0431C39.6766 41.0168 40.4599 42.3927 40.9679 43.1124C41.4759 43.8109 42.1321 44.6153 42.4285 44.9117C42.746 45.1869 43 45.5467 43 45.6949C42.9788 45.8642 42.6825 45.9701 42.1321 45.9701C41.6664 45.9701 40.5445 45.7161 39.6555 45.4197C38.7453 45.1234 37.9197 44.9117 37.7927 44.9752C37.6869 45.0175 37.4752 45.6102 37.3482 46.3088C37.2 46.9861 36.9883 47.8328 36.6073 48.8277L35.7394 47.8752C35.2737 47.346 34.4693 46.2876 33.9825 45.5467C33.4956 44.7847 32.6912 43.3453 32.1832 42.3715C31.6964 41.3766 30.9555 39.5562 30.5533 38.3496C30.1511 37.1219 29.7701 35.6825 29.7066 35.1745C29.6431 34.6453 29.6854 34.0102 29.8124 33.7985C29.9182 33.5657 30.638 33.0365 31.3788 32.6555ZM24.838 11.9744C25.4518 11.6992 26.5314 11.3605 27.2299 11.2546C27.9285 11.17 28.7752 11.1065 29.1351 11.1488C29.4949 11.1911 30.1511 11.2758 30.6168 11.3393C31.0825 11.424 32.0139 11.7838 32.7124 12.1437C33.3898 12.5247 34.3635 13.2656 34.8715 13.8371C35.3796 14.3875 36.0569 15.3824 36.3956 16.0386C36.9037 17.1182 36.9672 17.5203 36.9672 19.2773C36.9672 21.013 36.8825 21.4364 36.3956 22.4525C36.0781 23.0875 35.3584 24.0824 34.7869 24.6751C34.2153 25.2466 33.0934 26.0722 32.2891 26.4744C30.892 27.1729 30.7226 27.2152 28.6059 27.2152C26.5314 27.2152 26.2774 27.1729 24.9438 26.5167C24.0759 26.1145 23.1022 25.416 22.446 24.7174C21.8533 24.1247 21.1548 23.1298 20.8584 22.5583C20.5832 21.9656 20.2657 20.9707 20.1599 20.3357C20.054 19.6583 20.054 18.6846 20.1599 18.0072C20.2657 17.3722 20.6044 16.3349 20.9219 15.6999C21.2606 15.086 22.0226 14.1123 22.6365 13.5408C23.2292 12.9692 24.2453 12.2707 24.838 11.9744Z" fill="white"/>
<path d="M31.2529 15.5517C30.6602 15.9328 29.75 16.716 29.2208 17.2875C28.6916 17.859 28.0142 18.7693 27.6967 19.3408L27.1251 20.3357C25.8974 19.5101 25.3682 19.2773 25.1565 19.2773C24.966 19.2773 24.5638 19.3831 24.2675 19.489C23.9711 19.5948 23.7383 19.87 23.7383 20.0817C23.7594 20.2722 24.1405 20.8014 24.585 21.2459C25.0507 21.6693 25.6646 22.516 25.9609 23.0875C26.2573 23.6802 26.6806 24.2517 26.9135 24.3576C27.1675 24.4846 27.485 24.4846 27.7178 24.3787C27.9084 24.2729 28.374 23.4474 28.7551 22.5371C29.1361 21.6058 29.8346 20.251 30.3427 19.489C30.8507 18.7481 31.7397 17.605 32.3536 16.9488C32.9886 16.2714 33.4543 15.5729 33.4755 15.3189C33.4755 14.9379 33.3485 14.832 32.904 14.832C32.5653 14.832 31.8456 15.1495 31.2529 15.5517Z" fill="white"/>
<rect width="56" height="56" rx="28" fill="black" fill-opacity="0.2"/>
</svg>
