<svg width="111" height="111" viewBox="0 0 111 111" fill="none" xmlns="http://www.w3.org/2000/svg">
<circle cx="55.5" cy="55.5" r="55.5" fill="white"/>
<path fill-rule="evenodd" clip-rule="evenodd" d="M55.6144 23.0129C55.7364 23.0321 55.9163 23.1092 56.0191 23.1735C56.1154 23.2377 56.2375 23.3854 56.2888 23.4882C56.3659 23.6488 56.3852 24.0663 56.3852 25.9483C56.3916 28.2029 56.3852 28.2093 56.2439 28.4341C56.1604 28.5562 55.9934 28.7103 55.8713 28.7746C55.7107 28.8581 55.5759 28.8773 55.3896 28.8517C55.2483 28.826 55.062 28.7553 54.9721 28.6975C54.8821 28.6333 54.7601 28.4791 54.6959 28.3442C54.5995 28.1387 54.5867 27.8753 54.5867 25.9162C54.5867 23.9057 54.5995 23.6937 54.7023 23.4882C54.7794 23.3469 54.9271 23.2056 55.107 23.1156C55.3189 23.0065 55.4474 22.9808 55.6144 23.0129ZM45.5941 25.6721C45.7675 25.6785 45.9602 25.7235 46.0758 25.8006C46.2171 25.8905 46.5768 26.4558 47.3733 27.8368C48.0285 28.9737 48.4845 29.828 48.491 29.9436C48.4974 30.0464 48.4845 30.2262 48.4653 30.329C48.4396 30.4318 48.3432 30.5988 48.2469 30.6951C48.1441 30.7915 47.9642 30.9007 47.8422 30.9392C47.6923 30.982 47.5425 30.982 47.3926 30.9392C47.2705 30.9007 47.1035 30.8236 47.0264 30.7594C46.9494 30.7016 46.397 29.7959 45.7932 28.7553C44.8489 27.1238 44.6948 26.8219 44.6948 26.5907C44.6948 26.4365 44.7398 26.2245 44.7911 26.1218C44.8425 26.019 44.9838 25.8712 45.0995 25.8006C45.2279 25.7235 45.4142 25.6721 45.5941 25.6721ZM65.3778 25.6721C65.5512 25.6721 65.7504 25.7235 65.8788 25.8006C65.988 25.8712 66.1293 26.019 66.1807 26.1218C66.2321 26.2245 66.2771 26.4365 66.2771 26.5907C66.2771 26.8219 66.1229 27.1238 65.1658 28.7746C64.3693 30.162 64.0096 30.7273 63.8683 30.8172C63.7656 30.8814 63.5857 30.9456 63.4829 30.9585C63.3802 30.9713 63.2003 30.9649 63.0975 30.9328C62.9948 30.9071 62.8085 30.7786 62.6993 30.6566C62.513 30.4575 62.4873 30.3804 62.4873 30.0913C62.4937 29.7766 62.5451 29.6546 63.271 28.402C63.7013 27.6569 64.1702 26.8476 64.318 26.6035C64.4593 26.353 64.6199 26.0961 64.6712 26.019C64.7226 25.9483 64.8382 25.8391 64.9282 25.7813C65.0245 25.7171 65.2108 25.6721 65.3778 25.6721ZM55.3896 32.5515C55.6401 32.545 56.1411 32.5772 56.5137 32.6093C56.8862 32.6478 57.4065 32.7249 57.6698 32.7763C57.9332 32.8277 58.4406 32.9626 58.7939 33.0718C59.1472 33.181 59.6932 33.3801 60.0143 33.5214C60.3355 33.6563 60.8365 33.9196 61.1384 34.0995C61.4403 34.2793 61.8964 34.5812 62.1533 34.7739C62.4038 34.9602 62.8534 35.3392 63.1361 35.6154C63.4251 35.8852 63.8426 36.3284 64.061 36.5917C64.2794 36.8551 64.6263 37.3176 64.8254 37.6195C65.0245 37.9213 65.3264 38.4545 65.5063 38.8078C65.6797 39.161 65.9238 39.752 66.0458 40.1245C66.1743 40.4971 66.3285 41.0752 66.3991 41.4092C66.4698 41.7432 66.5597 42.3984 66.5982 42.8544C66.6496 43.4518 66.6496 43.9271 66.5982 44.5245C66.5597 44.9806 66.4698 45.6486 66.3991 46.0019C66.3285 46.3551 66.1807 46.9011 66.0779 47.2223C65.9752 47.5434 65.6861 48.205 65.442 48.6996C65.198 49.1942 64.7997 49.8751 64.562 50.2091C64.318 50.5431 63.8169 51.1212 63.4444 51.4938C63.0718 51.8663 62.5516 52.3738 62.2882 52.6243C62.0248 52.8748 61.7165 53.2345 61.6073 53.4272C61.4917 53.6199 61.3183 53.9924 61.2219 54.2558C61.0613 54.7054 61.0485 54.8275 61.0164 56.1185C60.9843 57.2876 60.9586 57.5317 60.8622 57.6794C60.8044 57.7758 60.6567 57.9106 60.5411 57.9813C60.4254 58.052 60.2199 58.1098 60.0786 58.1098C59.9373 58.1098 59.7317 58.052 59.6097 57.9813C59.5005 57.9106 59.3592 57.7565 59.3014 57.6473C59.2114 57.461 59.1986 57.2298 59.2243 55.958C59.25 54.8275 59.2821 54.3843 59.372 54.0631C59.4298 53.8319 59.6161 53.3565 59.7831 53.0032C59.9565 52.6435 60.2584 52.149 60.4704 51.8792C60.6824 51.6158 61.1127 51.179 61.4339 50.9093C61.7486 50.6395 62.1405 50.2798 62.301 50.1063C62.4616 49.9329 62.7764 49.5475 62.9948 49.2456C63.2196 48.9437 63.5279 48.4684 63.6821 48.1858C63.8362 47.9032 64.0739 47.37 64.2152 46.9975C64.3501 46.6249 64.5364 46.0211 64.6199 45.6486C64.7483 45.0705 64.7676 44.8007 64.7676 43.7216C64.7676 42.7581 64.7419 42.347 64.652 41.9231C64.5877 41.6212 64.44 41.088 64.3244 40.7348C64.2023 40.3815 63.9904 39.8612 63.8491 39.5786C63.7077 39.2959 63.4123 38.7885 63.1875 38.4545C62.937 38.0819 62.5066 37.5681 62.0698 37.1377C61.6202 36.6817 61.132 36.2706 60.7209 36.0008C60.3676 35.7631 59.8024 35.442 59.4684 35.2878C59.1344 35.1272 58.7104 34.9474 58.537 34.8896C58.3571 34.8317 57.9974 34.729 57.7341 34.6583C57.4707 34.5941 57.0532 34.5106 56.8027 34.472C56.5522 34.4399 55.9612 34.4078 55.4859 34.4078C54.9913 34.4078 54.3747 34.4463 54.0407 34.5042C53.7195 34.562 53.2892 34.6455 53.0772 34.7033C52.8652 34.7547 52.4027 34.9152 52.0495 35.0501C51.6962 35.1914 51.1566 35.4548 50.8419 35.6411C50.5336 35.8274 50.1032 36.11 49.8848 36.2706C49.6664 36.4311 49.2232 36.823 48.9085 37.1377C48.5873 37.4589 48.1313 37.992 47.8936 38.326C47.6559 38.66 47.3155 39.2253 47.1421 39.5786C46.9622 39.9318 46.7374 40.4778 46.6282 40.799C46.5254 41.1202 46.3905 41.6212 46.3199 41.9231C46.23 42.347 46.2043 42.7452 46.2043 43.7216C46.2043 44.8007 46.2235 45.0705 46.352 45.6486C46.4355 46.0211 46.6218 46.6249 46.7567 46.9975C46.898 47.37 47.1356 47.9032 47.2898 48.1858C47.444 48.4684 47.7523 48.9437 47.9771 49.2456C48.1955 49.5475 48.6002 50.01 48.8699 50.2733C49.1397 50.5367 49.6022 50.9863 49.9041 51.269C50.206 51.5516 50.5721 51.9563 50.7134 52.1682C50.8547 52.3802 51.0603 52.727 51.163 52.939C51.2722 53.151 51.42 53.5107 51.4906 53.7419C51.5677 53.9732 51.6576 54.3329 51.6962 54.5448C51.7283 54.7568 51.7604 55.5083 51.7604 56.2149C51.7604 57.3839 51.7476 57.5188 51.6319 57.7115C51.5613 57.8207 51.4007 57.962 51.2787 58.0134C51.1566 58.0648 50.9575 58.1098 50.8419 58.1098C50.7327 58.1098 50.54 58.052 50.4244 57.9813C50.3152 57.9106 50.1674 57.7758 50.1032 57.6794C50.0133 57.5317 49.9876 57.2876 49.9555 56.1185C49.9234 54.9174 49.8977 54.6862 49.7692 54.32C49.6921 54.0888 49.5508 53.774 49.4609 53.6135C49.3709 53.4529 49.1782 53.1767 49.0369 53.0032C48.8892 52.8234 48.5166 52.4444 48.1955 52.1618C47.8743 51.8792 47.4311 51.436 47.1999 51.179C46.9686 50.9221 46.6025 50.466 46.3777 50.1577C46.1593 49.8494 45.7739 49.1942 45.5298 48.6996C45.2857 48.205 44.9903 47.5242 44.8875 47.1902C44.7783 46.8562 44.6306 46.3038 44.5663 45.9697C44.4957 45.6357 44.4122 44.9806 44.3736 44.5245C44.3222 43.9271 44.3222 43.4518 44.3736 42.8544C44.4122 42.3984 44.5021 41.7625 44.5727 41.4413C44.637 41.1202 44.7847 40.587 44.8939 40.253C45.0095 39.919 45.2279 39.3666 45.3821 39.0326C45.5362 38.6986 45.7996 38.204 45.9602 37.9406C46.1272 37.6773 46.3905 37.2854 46.5511 37.0735C46.7117 36.8615 47.0329 36.4697 47.2641 36.2063C47.5018 35.943 47.9386 35.519 48.234 35.2685C48.5295 35.018 49.0177 34.6455 49.3196 34.4463C49.6215 34.2472 50.1225 33.9453 50.4436 33.7847C50.7648 33.6242 51.3108 33.3801 51.6641 33.2452C52.0173 33.1167 52.6404 32.9304 53.0451 32.8405C53.4497 32.7506 54.0407 32.6478 54.3618 32.6157C54.683 32.59 55.1391 32.5579 55.3896 32.5515ZM38.3357 32.9304C38.5798 32.9304 38.7597 33.0075 39.5562 33.47C40.07 33.7655 40.9372 34.2665 41.4831 34.5812C42.3824 35.1015 42.4916 35.185 42.6265 35.442C42.7421 35.6668 42.7614 35.776 42.7293 35.9815C42.6971 36.1357 42.6008 36.3284 42.4723 36.4633C42.2732 36.6752 42.2411 36.6881 41.8557 36.6881C41.451 36.6881 41.4382 36.6817 40.0379 35.8595C39.2607 35.4098 38.4385 34.9281 38.2073 34.7932C37.976 34.6583 37.7191 34.472 37.6292 34.3757C37.52 34.2536 37.4622 34.1123 37.4429 33.9068C37.43 33.7141 37.4557 33.5278 37.5264 33.3993C37.5842 33.2837 37.7255 33.1296 37.8347 33.0589C37.9632 32.9818 38.1623 32.9304 38.3357 32.9304ZM72.6361 32.9304C72.8096 32.9304 73.0087 32.9818 73.1307 33.0589C73.2463 33.1296 73.3877 33.2773 73.439 33.3801C73.4904 33.4829 73.5354 33.6755 73.5354 33.7976C73.5354 33.9196 73.4969 34.0995 73.4455 34.2023C73.3941 34.2986 73.3042 34.4271 73.2399 34.4849C73.1693 34.5427 72.3085 35.0566 71.3194 35.6282C69.7842 36.5211 69.4759 36.6752 69.1997 36.7009C68.9556 36.7202 68.8271 36.6945 68.6665 36.5981C68.5573 36.5211 68.4224 36.399 68.3711 36.3219C68.3197 36.2384 68.2619 36.0714 68.2362 35.9494C68.2105 35.7824 68.2362 35.6475 68.3454 35.442C68.4867 35.1658 68.5894 35.0951 70.4201 34.0417C72.1415 33.0461 72.3792 32.9304 72.6361 32.9304ZM59.1472 40.5742C59.3142 40.5742 59.5198 40.6256 59.629 40.6898C59.7317 40.754 59.873 40.9146 59.9373 41.0431C59.9951 41.1715 60.0465 41.3707 60.0465 41.4734C60.0465 41.5762 60.0079 41.7432 59.9565 41.846C59.9052 41.9423 58.7811 43.0985 57.4643 44.4153C55.2675 46.6121 55.0491 46.8112 54.8115 46.8497C54.6702 46.869 54.4646 46.869 54.3618 46.8433C54.227 46.8112 53.7452 46.3744 52.7689 45.4045C51.9981 44.6401 51.3236 43.9336 51.2722 43.8372C51.2209 43.7344 51.1823 43.5353 51.1823 43.3876C51.1823 43.2334 51.2401 43.0279 51.3044 42.9187C51.3686 42.8159 51.5292 42.6746 51.6576 42.6168C51.7861 42.5525 51.9595 42.5012 52.0495 42.5012C52.1394 42.5012 52.2871 42.5333 52.3835 42.5654C52.4862 42.6039 53.0258 43.0985 54.6188 44.6851L56.5458 42.7517C57.6056 41.6854 58.5627 40.7604 58.6655 40.6962C58.7811 40.6256 58.9738 40.5742 59.1472 40.5742ZM37.6934 42.8223C39.9672 42.8159 39.9737 42.8223 40.1985 42.9636C40.3205 43.0471 40.4747 43.2141 40.5389 43.3362C40.616 43.4903 40.6417 43.6381 40.6224 43.8179C40.6031 43.9592 40.5389 44.1391 40.4875 44.2226C40.4361 44.2997 40.2948 44.4217 40.1792 44.4924C39.9865 44.6144 39.858 44.6208 37.7255 44.6208C35.715 44.6208 35.4517 44.608 35.2525 44.5052C35.1305 44.4474 34.9763 44.2933 34.9057 44.1712C34.835 44.0492 34.7836 43.8436 34.7836 43.7216C34.7836 43.5995 34.835 43.4004 34.8928 43.2912C34.9506 43.1756 35.092 43.0214 35.2076 42.9508C35.4003 42.8287 35.5287 42.8223 37.6934 42.8223ZM73.2592 42.8223C75.1476 42.8223 75.5587 42.8416 75.7193 42.9187C75.8285 42.9701 75.9762 43.1114 76.0533 43.227C76.1304 43.349 76.1882 43.5353 76.1882 43.6895C76.1946 43.8308 76.1368 44.0492 76.0662 44.1712C75.9955 44.2933 75.8414 44.4474 75.7193 44.5052C75.5202 44.608 75.2568 44.6208 73.2463 44.6208C71.1138 44.6208 70.9853 44.6144 70.7862 44.4924C70.677 44.4217 70.5357 44.2997 70.4843 44.2226C70.4329 44.1391 70.3687 43.9592 70.3494 43.8179C70.3302 43.6381 70.3559 43.4903 70.4329 43.3362C70.4972 43.2141 70.6449 43.0471 70.767 42.9701C70.9853 42.8223 71.0046 42.8223 73.2592 42.8223ZM40.6802 57.7565C40.8215 57.7693 41.0014 57.8336 41.0785 57.885C41.162 57.9363 41.2712 58.0455 41.3226 58.129C41.3739 58.2061 41.4382 58.386 41.4574 58.5273C41.4831 58.7328 41.4382 58.932 41.2069 59.5229C41.0464 59.9276 40.8344 60.5827 40.7316 60.9681C40.6224 61.3535 40.5068 61.7389 40.4683 61.8224C40.4233 61.8995 40.2948 62.028 40.1792 62.1115C39.9801 62.2464 39.9159 62.2528 37.9953 62.2849C36.1068 62.317 36.0105 62.3235 35.9206 62.4455C35.8435 62.5547 35.8306 63.0043 35.8306 65.0662C35.8306 67.4685 35.8371 67.5584 35.9591 67.6805C36.0811 67.8025 36.1711 67.8089 37.9503 67.8089C39.3442 67.8089 39.8645 67.8282 40.0186 67.8925C40.1342 67.9438 40.2948 68.0659 40.3783 68.1687C40.4618 68.2714 40.5518 68.4705 40.5903 68.6119C40.6224 68.7532 40.7702 69.2478 40.9115 69.7038C41.0592 70.1599 41.3161 70.86 41.4896 71.2454C41.663 71.6308 41.9713 72.2539 42.1833 72.6264C42.3888 72.999 42.5751 73.3715 42.5944 73.4614C42.6201 73.5514 42.6072 73.7248 42.5751 73.8468C42.5237 74.0139 42.164 74.4185 41.162 75.4206C39.9223 76.6603 39.8131 76.7887 39.8131 76.9943C39.8131 77.2062 39.9415 77.3411 41.5666 78.9726C43.1917 80.6042 43.3266 80.7262 43.5193 80.7069C43.6863 80.6941 43.9561 80.4564 45.0738 79.358C46.1465 78.3046 46.4805 78.0091 46.6667 77.9578C46.8081 77.9192 46.9879 77.9192 47.1035 77.9513C47.2063 77.977 47.5981 78.1761 47.9707 78.3817C48.3432 78.5872 48.9213 78.8827 49.2553 79.0304C49.5893 79.1846 50.2702 79.4351 50.7648 79.5957C51.2594 79.7499 51.7861 79.9104 51.9338 79.949C52.088 79.9811 52.2935 80.0839 52.4027 80.1738C52.5119 80.2637 52.6211 80.4436 52.6597 80.5785C52.6918 80.7069 52.7239 81.6319 52.7239 82.6339C52.7239 84.3618 52.7303 84.4517 52.8524 84.5738C52.9744 84.6958 53.0643 84.7022 55.4667 84.7022C57.5285 84.7022 57.9782 84.6894 58.0874 84.6123C58.2094 84.5224 58.2158 84.426 58.2479 82.5376C58.2736 80.7904 58.2929 80.5335 58.3893 80.3793C58.4535 80.283 58.5691 80.1609 58.6462 80.1096C58.7297 80.0646 59.1536 79.9169 59.5968 79.7884C60.04 79.6599 60.7145 79.4287 61.1063 79.281C61.4917 79.1268 62.0313 78.8956 62.2946 78.7607C62.558 78.6258 62.9948 78.3945 63.2581 78.2468C63.5215 78.0926 63.8426 77.9513 63.9647 77.9256C64.1253 77.8999 64.2601 77.9192 64.4464 78.0156C64.5942 78.0926 65.2429 78.69 65.9687 79.4351C67.0992 80.5785 67.2663 80.7198 67.4461 80.7198C67.6324 80.7198 67.8379 80.5399 69.4052 78.9726C71.0367 77.3411 71.1588 77.2062 71.1588 76.9943C71.1588 76.7887 71.0496 76.6603 69.8099 75.4206C68.8078 74.4185 68.4481 74.0139 68.3968 73.8468C68.3646 73.7184 68.3582 73.5385 68.3839 73.4293C68.416 73.3201 68.5445 73.0632 68.673 72.8512C68.795 72.6393 69.0776 72.1061 69.2896 71.6629C69.5016 71.2197 69.8227 70.4104 69.9962 69.8644C70.176 69.3184 70.3494 68.7532 70.3816 68.6119C70.4201 68.4705 70.51 68.2714 70.5935 68.1687C70.677 68.0659 70.8376 67.9438 70.9468 67.8925C71.1074 67.8282 71.6277 67.8089 73.0215 67.8089C74.8008 67.8089 74.8907 67.8025 75.0127 67.6805C75.1348 67.5584 75.1412 67.4685 75.1412 62.4776L74.9935 62.3813C74.8779 62.2978 74.5439 62.2849 73.0215 62.2849C71.3322 62.2849 71.1716 62.2721 70.9147 62.1564C70.767 62.0858 70.5999 61.9637 70.5486 61.8867C70.4972 61.8032 70.3687 61.4178 70.2659 61.0324C70.1567 60.647 69.9705 60.0496 69.8356 59.7156C69.7071 59.3816 69.5979 58.9898 69.5979 58.8484C69.5979 58.7071 69.6429 58.5016 69.7071 58.3988C69.7649 58.296 69.9062 58.1483 70.0218 58.0841C70.1375 58.0134 70.343 57.9556 70.4843 57.9556C70.6256 57.9556 70.8376 58.0134 70.9468 58.0841C71.0624 58.1483 71.2102 58.3089 71.2808 58.4309C71.345 58.553 71.5442 59.054 72.0259 60.4157L73.5996 60.4414C75.0192 60.4607 75.2054 60.4735 75.5266 60.5956C75.7193 60.6727 76.0341 60.8718 76.2268 61.0452C76.4516 61.2443 76.6378 61.4948 76.9719 62.1886L76.9911 64.8221C77.0104 67.0895 77.004 67.5135 76.914 67.8732C76.8562 68.1044 76.7085 68.4449 76.5865 68.6311C76.4644 68.811 76.2396 69.0551 76.0854 69.1643C75.9377 69.2735 75.7129 69.4148 75.5908 69.4726C75.411 69.5561 75.0513 69.5818 72.0259 69.6396L71.8139 70.2498C71.7048 70.5838 71.5185 71.0913 71.4093 71.3739C71.3001 71.6565 71.0303 72.241 70.4201 73.4614L71.5185 74.5663C72.3085 75.3756 72.6554 75.7674 72.7582 75.9986C72.8417 76.1785 72.9316 76.4804 72.9573 76.6731C72.983 76.8658 72.983 77.187 72.9509 77.3797C72.9188 77.5724 72.8288 77.8614 72.7517 78.022C72.6554 78.2211 72.0452 78.8827 70.7477 80.1931C69.2896 81.6576 68.795 82.1136 68.4931 82.2806C68.127 82.4733 68.0692 82.4862 67.4333 82.4862C66.8166 82.4862 66.7267 82.4733 66.4055 82.2999C66.1614 82.1714 65.7118 81.7796 63.894 79.9811L63.271 80.2958C62.9305 80.4693 62.3589 80.7326 62.0056 80.8804C61.6523 81.0281 61.0806 81.2401 60.1107 81.5548L60.0914 83.1478C60.0722 84.4453 60.0465 84.7857 59.9565 85.0234C59.8987 85.184 59.7703 85.4281 59.6739 85.5694C59.5711 85.7107 59.3528 85.9355 59.1729 86.064C58.9995 86.1988 58.7104 86.3594 58.537 86.4172C58.2479 86.52 57.9204 86.5329 55.4859 86.5329C53.0322 86.5329 52.7239 86.52 52.4349 86.4172C52.255 86.353 51.9788 86.2053 51.8054 86.0832C51.6384 85.9612 51.42 85.7364 51.3172 85.5886C51.2144 85.4345 51.0795 85.184 51.0153 85.0234C50.9254 84.7857 50.8997 84.4324 50.829 81.5484L50.1867 81.3364C49.8334 81.2144 49.281 81.0152 48.9663 80.8804C48.6451 80.7519 48.0927 80.495 47.0778 79.9811L45.9987 81.0474C45.26 81.7796 44.8104 82.1714 44.5663 82.2999C44.2387 82.4733 44.1552 82.4862 43.5386 82.4862C42.9605 82.4862 42.8192 82.4605 42.543 82.332C42.2989 82.2164 41.7529 81.709 40.2884 80.2444C38.9202 78.8763 38.3165 78.2275 38.2201 78.022C38.143 77.8614 38.0531 77.5595 38.021 77.3475C37.9824 77.1227 37.9824 76.8273 38.0081 76.641C38.0403 76.4675 38.1302 76.1785 38.2137 75.9986C38.3165 75.7674 38.6569 75.3756 40.5518 73.4614L40.1599 72.6714C39.9415 72.241 39.6782 71.6565 39.5626 71.3739C39.4534 71.0913 39.2671 70.5838 38.9459 69.6396L35.6058 69.5754L35.2525 69.3891C35.0598 69.2927 34.758 69.0615 34.5909 68.8752C34.4175 68.6954 34.2184 68.3935 34.1413 68.1943C34.0064 67.8475 34 67.7704 34 62.1886L34.1991 61.771C34.334 61.4948 34.5203 61.2508 34.7451 61.0452C34.9378 60.8718 35.2525 60.6727 35.4452 60.5956C35.7664 60.4735 35.9463 60.4607 38.9781 60.4222L39.1772 59.7991C39.2928 59.4522 39.4662 58.9512 39.569 58.6879C39.6718 58.4245 39.8067 58.1355 39.8709 58.0455C39.9287 57.962 40.0764 57.8528 40.1985 57.8079C40.3205 57.7629 40.5389 57.7372 40.6802 57.7565ZM47.4568 58.6236C47.6495 58.6236 47.8144 58.6729 47.9514 58.7714C48.067 58.8484 48.2083 59.009 48.2597 59.1246C48.3111 59.2338 48.3561 59.4265 48.3561 59.5422C48.3561 59.6835 48.2148 59.9854 47.9257 60.4864C47.6816 60.8975 47.3926 61.4756 47.2705 61.771C47.1549 62.0729 46.9879 62.574 46.9108 62.8951C46.8273 63.2163 46.7246 63.7751 46.686 64.1477C46.6346 64.5331 46.6218 65.1112 46.641 65.4966C46.6603 65.8691 46.7438 66.4729 46.8145 66.8455C46.8916 67.218 47.0521 67.7961 47.1806 68.1301C47.3026 68.4641 47.5275 68.9716 47.6816 69.2542C47.8358 69.5368 48.112 69.9864 48.2983 70.2498C48.4845 70.5132 48.9277 71.0206 49.2874 71.3739C49.6407 71.7272 50.1803 72.1768 50.4758 72.3759C50.7776 72.575 51.2658 72.8641 51.5677 73.0118C51.8696 73.1596 52.4027 73.3779 52.756 73.4936C53.1093 73.6092 53.6874 73.7505 54.0407 73.8147C54.4325 73.879 55.0042 73.9175 55.518 73.9175C55.9741 73.9175 56.6293 73.8661 56.9633 73.8083C57.2973 73.7505 57.8754 73.6028 58.2479 73.4807C58.6205 73.3587 59.2114 73.1146 59.5647 72.9283C59.918 72.7485 60.4832 72.3888 60.8173 72.1383C61.1513 71.8877 61.6138 71.4766 61.845 71.2326C62.0762 70.9885 62.3845 70.6352 62.5323 70.4425C62.68 70.2498 62.9498 69.8451 63.1296 69.5432C63.3095 69.2413 63.5664 68.7082 63.7077 68.3549C63.8426 68.0016 64.0161 67.4685 64.0867 67.1666C64.1638 66.8647 64.2537 66.3187 64.2923 65.9462C64.3372 65.5608 64.3501 64.9827 64.3244 64.5973C64.3051 64.2247 64.228 63.6466 64.1574 63.3126C64.0931 62.9786 63.9583 62.484 63.8619 62.2207C63.772 61.9573 63.5857 61.5077 63.4508 61.2251C63.3159 60.9424 63.0847 60.5249 62.9305 60.2937C62.7635 60.0303 62.6543 59.7798 62.6351 59.6192C62.6158 59.4522 62.6479 59.2852 62.725 59.1439C62.7892 59.0219 62.9113 58.8677 63.0012 58.8035C63.0911 58.7393 63.2645 58.6686 63.3866 58.6429C63.5472 58.6172 63.6949 58.6429 63.9004 58.7393C64.1253 58.8484 64.2537 58.9769 64.4914 59.343C64.6584 59.6 64.9346 60.1138 65.1144 60.4864C65.2879 60.8589 65.5191 61.4178 65.6219 61.7389C65.7311 62.0601 65.8788 62.6189 65.9559 62.9915C66.0394 63.4026 66.1101 64.0449 66.1293 64.6294C66.155 65.2461 66.1422 65.8498 66.0908 66.2995C66.0458 66.6849 65.9238 67.3272 65.8274 67.7126C65.7247 68.098 65.5512 68.6504 65.442 68.933C65.3264 69.2157 65.1466 69.6203 65.0438 69.8323C64.9346 70.0443 64.7483 70.3911 64.6199 70.6031C64.4914 70.8151 64.2409 71.1876 64.0546 71.4381C63.8748 71.6886 63.5215 72.0997 63.2838 72.3631C63.0397 72.6264 62.5965 73.0439 62.2946 73.3009C61.9927 73.5514 61.4724 73.9239 61.1384 74.1295C60.8044 74.3414 60.2841 74.6241 59.9822 74.7654C59.6803 74.9003 59.1922 75.0994 58.8903 75.2022C58.5884 75.2985 58.0681 75.4398 57.7341 75.5169C57.4001 75.5876 56.7449 75.6839 56.2888 75.7224C55.6465 75.7803 55.2611 75.7803 54.6188 75.716C54.1563 75.6711 53.5076 75.5811 53.1735 75.5041C52.8395 75.4334 52.3192 75.2857 52.0173 75.1829C51.7155 75.0801 51.1245 74.8232 50.7006 74.6112C50.2766 74.3993 49.6664 74.046 49.3517 73.8147C49.0305 73.5899 48.5166 73.1596 48.2019 72.8705C47.8872 72.575 47.4632 72.1383 47.2641 71.8877C47.0586 71.6372 46.7374 71.194 46.5447 70.8921C46.3456 70.5902 46.0822 70.1278 45.9473 69.8644C45.8124 69.601 45.6069 69.1257 45.4849 68.8046C45.3628 68.4834 45.1958 67.9374 45.1123 67.5841C45.0288 67.2309 44.926 66.6528 44.8811 66.2995C44.8361 65.9077 44.8168 65.2717 44.8425 64.6615C44.8618 64.0192 44.926 63.4283 45.016 62.9915C45.093 62.6189 45.2408 62.0601 45.3435 61.7389C45.4527 61.4178 45.7097 60.814 45.9152 60.39C46.1208 59.9661 46.4098 59.4522 46.5575 59.2467C46.7053 59.0411 46.898 58.8163 46.9943 58.7521C47.1035 58.6686 47.2705 58.6236 47.4568 58.6236ZM55.4538 61.2572C59.539 61.2572 59.706 61.2636 59.963 61.3857C60.1749 61.4884 60.2713 61.5783 60.3676 61.8032C60.4576 62.0087 60.4833 62.1629 60.4576 62.3363C60.4254 62.4905 60.3291 62.6575 59.918 63.0557L50.9768 63.0236L50.7712 62.7988C50.6492 62.6639 50.5464 62.4712 50.5143 62.317C50.4758 62.0986 50.495 62.0151 50.6428 61.7839C50.7391 61.6297 50.9061 61.4499 51.0153 61.3857C51.208 61.2636 51.3493 61.2572 55.4538 61.2572ZM55.4859 66.2031C57.4515 66.2031 57.5157 66.2095 57.7919 66.3509C58.0167 66.4601 58.1066 66.5564 58.203 66.7812C58.2929 66.9868 58.3122 67.1345 58.2801 67.2951C58.2544 67.4171 58.1837 67.5906 58.1259 67.6805C58.0617 67.7704 57.8882 67.8925 57.7469 67.9567C57.5093 68.053 57.2331 68.0659 55.4667 68.0659C53.5076 68.0659 53.4562 68.0659 53.18 67.9246C53.013 67.8346 52.8524 67.6869 52.7753 67.552C52.6854 67.385 52.6597 67.2565 52.6854 67.0574C52.7046 66.9033 52.7753 66.7041 52.8331 66.6078C52.8973 66.5179 53.0643 66.383 53.2057 66.3187C53.4369 66.216 53.6746 66.2031 55.4859 66.2031Z" fill="#F24A25"/>
</svg>
