<svg width="111" height="111" viewBox="0 0 111 111" fill="none" xmlns="http://www.w3.org/2000/svg">
<circle cx="55.5" cy="55.5" r="55.5" fill="white"/>
<path opacity="0.9" fill-rule="evenodd" clip-rule="evenodd" d="M66.3768 24C66.6772 24 66.8525 24.0876 67.0402 24.3505C67.1904 24.5383 67.3031 24.7761 67.3031 24.8762C67.2906 24.9764 66.89 25.765 66.4018 26.6287C65.9137 27.4924 65.413 28.2559 65.3003 28.3436C65.1876 28.4312 64.9498 28.5063 64.762 28.5063C64.5618 28.5063 64.2989 28.3936 64.1612 28.2559C64.011 28.1057 63.9109 27.8429 63.9109 27.605C63.9109 27.3296 64.1988 26.7038 64.737 25.7524C65.2002 24.9638 65.6508 24.2378 65.7634 24.1627C65.8761 24.0751 66.1515 24 66.3768 24ZM57.6521 24.338C57.9651 24.363 58.4908 24.5508 58.8288 24.726C59.1667 24.9138 59.5673 25.2643 59.73 25.5021C59.8928 25.7399 60.5812 26.8915 61.2572 28.0682C62.0708 29.4701 62.559 30.1836 62.6716 30.1461C62.7718 30.121 63.1598 30.071 63.5353 30.0334C63.9234 29.9959 64.4366 30.0459 64.7245 30.1336C64.9999 30.2212 65.4255 30.4215 65.6633 30.5842C65.9011 30.7344 66.2767 31.0974 66.8525 31.886L80.2462 31.9486L80.9346 32.2866C81.3101 32.4618 81.8108 32.8248 82.0487 33.1002C82.2865 33.3631 82.5994 33.8262 82.7371 34.1391C83 34.7024 83 34.765 83 68.2493L82.7246 68.9377C82.5744 69.3383 82.1738 69.9391 81.7858 70.3522C81.3352 70.8529 80.8595 71.2159 79.4951 71.8793L63.285 71.9419V72.5302C63.285 72.8682 63.3726 73.6943 63.4727 74.3828C63.5729 75.0713 63.7982 76.1478 63.9609 76.7611C64.1237 77.3745 64.3865 78.2132 64.7871 79.3272L66.7648 79.3648C68.1793 79.3898 68.8553 79.4524 69.1682 79.5901C69.406 79.7027 69.8316 79.9781 70.0945 80.216C70.3699 80.4538 70.7204 80.9169 70.8831 81.2674C71.0834 81.7055 71.171 82.1186 71.171 82.6443C71.171 83.1701 71.0834 83.5831 70.8706 84.0213C70.7078 84.3592 70.4199 84.7973 70.2197 84.9851C70.0194 85.1729 69.6063 85.4357 69.2934 85.5734C68.7426 85.8238 68.5423 85.8363 55.5242 85.8363C42.506 85.8363 42.3057 85.8238 41.7549 85.5734C41.442 85.4357 41.0289 85.1729 40.8287 84.9851C40.6284 84.7973 40.3405 84.3592 40.1777 84.0213C39.9649 83.5831 39.8773 83.1701 39.8773 82.6443C39.8773 82.1186 39.9649 81.7055 40.1652 81.2674C40.328 80.9169 40.6784 80.4538 40.9538 80.216C41.2167 79.9781 41.6423 79.7027 41.8801 79.5901C42.1931 79.4524 42.8815 79.3898 46.1986 79.3147L46.474 78.6012C46.6242 78.2132 46.837 77.5748 46.9372 77.1992C47.0498 76.8237 47.2501 75.8474 47.3878 75.0337C47.5255 74.2326 47.6382 73.2062 47.6382 71.9419L31.5532 71.8793L30.7396 71.4788C30.1888 71.2159 29.7131 70.8529 29.2625 70.3522C28.8745 69.9391 28.4739 69.3383 28.0483 68.2493L28.0108 52.1643C27.9857 36.5675 27.9857 36.0543 28.2236 35.2657C28.3613 34.8151 28.6617 34.2017 28.887 33.8888C29.1248 33.5759 29.588 33.1127 29.9385 32.8624C30.2764 32.5995 30.8022 32.2866 31.1151 32.1739C31.6283 31.9611 32.5045 31.9486 52.6451 31.886L53.2585 31.0348C53.5965 30.5717 54.0471 29.8832 54.2724 29.5077C54.6479 28.8818 54.673 28.7817 54.5478 28.3811C54.4602 28.1433 54.3976 27.6301 54.3976 27.2545C54.3976 26.854 54.4977 26.3533 54.6354 26.0654C54.7606 25.79 54.9984 25.4145 55.1612 25.2392C55.3239 25.064 55.6618 24.8136 55.8997 24.6885C56.1375 24.5633 56.513 24.4131 56.7133 24.363C56.9136 24.3129 57.3392 24.3004 57.6521 24.338ZM56.5506 26.5536C56.3628 26.7288 56.2752 26.9541 56.2752 27.2545C56.2752 27.5925 57.214 29.3074 60.5437 35.078C62.8844 39.1336 64.9373 42.5884 65.1 42.7512C65.2753 42.9014 65.5757 43.0266 65.7885 43.0266C66.0013 43.0266 66.3142 42.9014 66.5145 42.7261C66.7774 42.4883 66.8525 42.3131 66.8399 41.9375C66.8399 41.5495 66.0764 40.1475 62.609 34.1391C60.2808 30.1085 58.253 26.6913 58.1028 26.541C57.9651 26.3908 57.7022 26.2406 57.527 26.2031C57.3517 26.1655 57.1264 26.178 57.0263 26.2156C56.9261 26.2531 56.7133 26.4034 56.5506 26.5536ZM53.6215 33.5759C53.1083 34.2017 52.1194 35.2407 51.4435 35.8916C50.755 36.5425 49.7411 37.4438 49.1903 37.8944L48.1764 38.708L51.3308 44.1281C52.3072 43.74 53.1458 43.4271 53.8343 43.1893C54.5228 42.964 55.737 42.601 56.5256 42.4007C57.3142 42.2004 58.3281 41.9751 58.7787 41.9125C59.2293 41.8374 60.1306 41.7247 60.7815 41.6496C61.4324 41.587 61.9832 41.4994 62.0082 41.4619C62.0207 41.4243 60.6939 39.071 59.0541 36.2296C57.4143 33.4006 56.0123 30.9722 55.9498 30.8471C55.8371 30.6718 55.7244 30.772 55.1987 31.5355C54.8482 32.0362 54.1472 32.95 53.6215 33.5759ZM64.1988 33.1378C64.5493 33.7636 64.8872 34.2268 64.9373 34.1767C64.9874 34.1266 65.075 33.9138 65.1376 33.701C65.2002 33.4882 65.2002 33.1378 65.1376 32.9124C65.0875 32.6996 64.8622 32.3742 64.6619 32.1989C64.4491 32.0237 64.1237 31.886 63.9109 31.886C63.7106 31.886 63.5353 31.911 63.5353 31.9486C63.5353 31.9861 63.8358 32.5244 64.1988 33.1378ZM30.9273 34.4521C30.6394 34.6774 30.3265 35.0905 30.1512 35.4535L29.8633 36.0794V62.4286H81.185C81.1724 35.5036 81.1724 35.1906 80.9346 34.765C80.7969 34.5272 80.4715 34.2017 80.2086 34.0515C79.7455 33.7761 79.7204 33.7761 73.4241 33.7636L67.1028 33.7511C66.8149 34.6649 66.527 35.1656 66.2641 35.441L65.8135 35.9542C67.929 39.6343 68.6049 40.9361 68.68 41.2115C68.7551 41.4869 68.7802 41.9626 68.7301 42.2755C68.68 42.5884 68.5548 43.0015 68.4547 43.2143C68.3546 43.4271 68.1167 43.7526 67.929 43.9403C67.7537 44.1406 67.3782 44.416 67.1028 44.5662C66.7398 44.754 66.3768 44.8291 65.7885 44.8291C65.2127 44.8291 64.8372 44.754 64.4741 44.5662C64.1988 44.4285 63.7732 44.0905 63.5353 43.8277L63.0972 43.352C61.0569 43.4897 59.8176 43.6399 59.029 43.7776C58.2404 43.9153 56.9762 44.2032 56.2126 44.4035C55.4616 44.6163 54.7481 44.8416 54.6479 44.8917C54.4977 44.9793 54.5979 45.1796 55.1737 45.9181C55.5742 46.4313 55.9748 47.0697 56.0749 47.3451C56.1876 47.6705 56.2126 48.021 56.15 48.3465C56.0749 48.6844 55.9122 48.9598 55.6118 49.2227L55.1862 49.5982C56.7133 51.6386 57.189 52.3896 57.2265 52.6024C57.2641 52.8152 57.2641 53.1782 57.214 53.4161C57.1389 53.7165 56.8886 54.067 56.4129 54.5301C56.0249 54.9056 55.5492 55.3187 55.3364 55.4439C55.1361 55.5691 54.723 55.6692 54.4351 55.6692C54.1347 55.6692 53.7467 55.5941 53.5589 55.494C53.3461 55.3938 52.1945 53.9668 50.6799 51.9265L48.1389 48.5342C47.0373 49.0475 46.7369 49.0975 45.4977 49.0975C44.0957 49.0975 44.0331 49.085 43.1193 48.6469C42.481 48.3214 42.0053 47.9835 41.5922 47.5203C41.2542 47.1448 40.8412 46.5565 40.6784 46.2185C40.5157 45.868 40.3029 45.1921 40.2278 44.7164C40.1152 44.0405 40.1152 43.6524 40.2278 43.0266C40.3029 42.5759 40.5407 41.8749 40.741 41.4619C40.9663 40.9862 41.3794 40.4605 41.8551 40.0224C42.3057 39.6093 43.3572 38.8958 44.5213 38.2449C45.6479 37.594 46.5867 37.1433 46.7995 37.1433C47.0373 37.1433 47.4629 36.8805 48.239 36.2296C48.8398 35.7289 49.691 34.9653 50.1416 34.5397L50.9553 33.7761C34.6826 33.7761 32.1916 33.8137 31.8661 33.9264C31.6158 34.014 31.2027 34.2393 30.9273 34.4521ZM42.844 41.6747C42.5435 42.0001 42.2932 42.4758 42.168 42.9014C42.0554 43.3145 41.9928 43.8402 42.0303 44.2157C42.0679 44.5662 42.2556 45.142 42.4559 45.5175C42.6562 45.8805 43.0192 46.3437 43.257 46.5314C43.4949 46.7317 43.9205 46.9821 44.1958 47.0947C44.4712 47.2074 45.0345 47.3075 45.4476 47.3075C45.9858 47.32 46.3864 47.2324 46.8871 47.0071C47.2626 46.8319 48.0888 46.3938 48.7147 46.0182L49.8537 45.3423C47.2126 40.7484 46.3989 39.409 46.3238 39.409C46.2612 39.409 45.5477 39.797 44.7591 40.2727C43.8954 40.7734 43.1319 41.3492 42.844 41.6747ZM53.2084 46.932C53.6591 47.5454 54.0846 48.0085 54.1472 47.971C54.2223 47.9334 54.2349 47.8333 54.1848 47.7456C54.1347 47.6705 53.7717 47.1573 53.3712 46.6191C52.9706 46.0933 52.5951 45.6552 52.52 45.6552C52.4574 45.6552 52.3948 45.6928 52.3948 45.7428C52.4073 45.8054 52.7703 46.3312 53.2084 46.932ZM49.8663 47.658C49.8788 47.7206 50.9052 49.1351 52.1444 50.7874L54.3976 53.7916L55.3614 52.9779C54.9358 52.3896 53.9344 51.0252 52.8579 49.5607C51.7689 48.1086 50.8802 46.907 50.8677 46.9195C50.8426 46.9195 50.6048 47.0697 50.3294 47.2324C50.054 47.3951 49.8412 47.5829 49.8663 47.658ZM29.8633 66.0337C29.8633 67.5608 29.9009 67.8111 30.1512 68.3744C30.314 68.7124 30.6394 69.1755 30.8898 69.3758C31.1401 69.5761 31.5532 69.8265 31.8161 69.9016C32.1916 70.0267 37.4615 70.0643 55.5242 70.0643C73.5869 70.0643 78.8567 70.0267 79.2322 69.9016C79.4951 69.8265 79.9082 69.5761 80.1585 69.3758C80.4089 69.1755 80.7343 68.7124 80.8971 68.3744C81.1474 67.8111 81.185 67.5608 81.185 66.0211V64.3062H29.8633V66.0337ZM49.5158 72.7305C49.5158 73.1561 49.4282 74.1074 49.3155 74.8209C49.2154 75.5469 48.965 76.7611 48.7647 77.5122C48.5644 78.2757 48.3767 78.9892 48.3391 79.1144C48.264 79.3272 48.6646 79.3272 55.5242 79.3272C62.3837 79.3272 62.7843 79.3272 62.7092 79.1144C62.6591 78.9892 62.4964 78.4385 62.3211 77.8877C62.1584 77.3495 61.9206 76.323 61.7829 75.6346C61.6577 74.9461 61.495 73.8446 61.4449 73.1686L61.3448 71.9419H49.5158V72.7305ZM41.9552 81.8557C41.8426 82.0185 41.7549 82.3815 41.7549 82.6569C41.7424 82.9698 41.8426 83.2827 42.0053 83.4955C42.143 83.6958 42.4559 83.8961 42.7188 83.9712C43.0192 84.0463 47.7508 84.0964 55.5242 84.0964C63.2975 84.0964 68.0291 84.0463 68.317 83.9712C68.5924 83.8961 68.9053 83.6958 69.043 83.4955C69.2057 83.2827 69.3059 82.9698 69.2934 82.6569C69.2934 82.3815 69.1932 82.0185 69.0806 81.8557C68.9554 81.6805 68.6675 81.4677 68.4422 81.3801C68.1167 81.2549 65.5632 81.2174 55.4866 81.2174C45.1972 81.2299 42.869 81.2549 42.5561 81.3926C42.3307 81.4927 42.0679 81.7055 41.9552 81.8557ZM71.4714 28.0932C71.6216 28.1308 71.8344 28.281 71.9596 28.4312C72.0848 28.5814 72.1849 28.8443 72.1849 29.0195C72.1724 29.1947 72.1098 29.4201 72.0222 29.5452C71.9346 29.6579 71.2085 30.121 70.4199 30.5717C69.6313 31.0223 68.8427 31.3978 68.6675 31.3978C68.4923 31.3978 68.2294 31.2726 68.0667 31.1099C67.9165 30.9597 67.7913 30.7094 67.7913 30.5466C67.7913 30.3964 67.8413 30.1586 67.9164 30.0209C67.979 29.8832 68.4547 29.5327 68.9429 29.2448C69.4436 28.9569 70.1571 28.5564 70.5326 28.3686C70.9582 28.1433 71.3087 28.0431 71.4714 28.0932ZM68.9053 34.402H72.7983L73.0486 34.74C73.1988 34.9403 73.3115 35.2157 73.299 35.3659C73.299 35.5286 73.1613 35.7915 72.986 35.9667C72.6731 36.2796 72.6481 36.2796 70.7329 36.2421C69.2183 36.2296 68.7551 36.1795 68.6174 36.0293C68.5048 35.9291 68.3921 35.6663 68.342 35.466C68.2669 35.1656 68.317 35.0279 68.5799 34.74L68.9053 34.402ZM55.4866 65.9586C55.6493 65.9586 55.9247 66.0337 56.1125 66.1213C56.3128 66.2214 56.5381 66.4467 56.6132 66.622C56.7008 66.8097 56.7759 67.1227 56.7759 67.323C56.7759 67.5733 56.6507 67.8362 56.4129 68.074C56.125 68.3744 55.9372 68.4495 55.5367 68.4495C55.1361 68.4495 54.9358 68.3744 54.6479 68.074C54.3851 67.8111 54.2724 67.5858 54.2724 67.2979C54.2724 67.0726 54.3726 66.7597 54.4727 66.5969C54.5853 66.4217 54.7856 66.2214 54.9358 66.1213C55.086 66.0337 55.3364 65.9586 55.4866 65.9586Z" fill="#F24A25"/>
</svg>
