<svg width="56" height="56" viewBox="0 0 56 56" fill="none" xmlns="http://www.w3.org/2000/svg">
<path fill-rule="evenodd" clip-rule="evenodd" d="M31.7214 11.6819C31.9329 11.4705 32.9296 10.3378 33.9415 9.15982C34.9533 7.96674 35.8141 7.0002 35.8595 7.0002C35.9048 6.9851 36.6599 7.83082 37.5358 8.84267C38.4117 9.86963 39.4085 11.0023 39.7558 11.3799C40.1032 11.7574 40.3901 12.135 40.3901 12.2105C40.3901 12.3011 40.3146 12.4521 40.2089 12.5578C40.0881 12.6635 39.5897 12.7391 37.6717 12.7391V19.8371C37.6717 23.7486 37.6415 27.0409 37.5962 27.1617C37.5509 27.2976 37.3999 27.358 37.2187 27.3127C36.9166 27.2372 36.9166 27.1315 36.9921 11.9084L37.853 11.8782C38.3362 11.848 38.7289 11.7725 38.7289 11.6819C38.7289 11.6064 38.5023 11.2741 38.2305 10.9721C37.9738 10.6549 37.6868 10.3227 37.5962 10.2321C37.5056 10.1415 37.098 9.67347 36.6903 9.20538L36.6901 9.20513C36.2672 8.73696 35.8897 8.3594 35.8444 8.38961C35.799 8.41981 35.1345 9.14472 34.3794 10.0206C33.6243 10.8966 33.0353 11.6517 33.0655 11.7272C33.1108 11.7876 33.4431 11.8329 33.8207 11.8329C34.2284 11.8329 34.5909 11.9235 34.7268 12.0595C34.9231 12.2558 34.9533 13.2072 34.9533 18.7497C34.9684 24.3829 34.9382 25.2286 34.7268 25.3947C34.5456 25.5458 34.4549 25.5458 34.2737 25.3947C34.0623 25.2286 34.0321 24.4131 34.0472 12.7391H32.9145C32.2953 12.7391 31.6761 12.7088 31.5553 12.6635C31.4345 12.6182 31.3288 12.4672 31.3288 12.3313C31.3288 12.1803 31.4949 11.8933 31.7214 11.6819ZM24.9556 20.1694C24.9405 17.7681 24.9858 15.7595 25.0613 15.7142C25.1369 15.6538 25.9071 15.6085 26.783 15.6085C27.8704 15.6085 28.4443 15.6689 28.5802 15.7897C28.7161 15.9407 28.7614 16.9224 28.7614 19.7616C28.7614 22.5555 28.7161 23.6127 28.5802 23.8241C28.4443 24.0053 28.2932 24.0808 28.112 24.0204C27.8855 23.9298 27.8553 23.5825 27.7798 16.4391H25.9675L25.8165 24.4433L24.9858 24.5188L24.9556 20.1694ZM16 25.6817C16 22.7518 16.0453 20.2449 16.1057 20.109C16.1963 19.8673 16.438 19.8371 17.7368 19.8371C18.5674 19.8371 19.3527 19.8673 19.4735 19.9126C19.6698 19.973 19.7001 20.5318 19.7001 23.6429C19.7152 27.1466 19.7001 27.3278 19.398 27.5846C19.2319 27.7205 19.0204 27.8111 18.9449 27.7658C18.8543 27.7205 18.7939 26.3764 18.7939 20.7432H16.8306V25.7572C16.8306 29.9103 16.8004 30.8315 16.6192 31.0883C16.438 31.3299 16.3625 31.3601 16.1963 31.194C16.0453 31.043 16 29.8801 16 25.6817ZM25.4691 25.9686C25.9977 25.8478 26.6622 25.7119 26.9491 25.6817C27.2361 25.6364 28.1573 25.6213 28.9879 25.6515C29.8186 25.6817 30.9361 25.8176 31.4798 25.9535C32.0235 26.0894 32.9749 26.4368 33.5941 26.7388C34.2133 27.0258 35.1345 27.5544 35.6329 27.9017C36.1313 28.2642 36.9468 28.9891 37.4452 29.5328C37.9436 30.0764 38.5779 30.892 38.8346 31.3299C39.1064 31.783 39.4991 32.5532 39.6954 33.0516C39.9069 33.5499 40.1938 34.3957 40.3297 34.9394C40.511 35.6341 40.5865 36.4798 40.5865 37.8088C40.5865 39.2284 40.4958 39.9684 40.2844 40.7537C40.1183 41.3427 39.8465 42.1582 39.6803 42.566C39.5142 42.9889 39.1215 43.7289 38.8044 44.2272C38.5023 44.7256 38.0644 45.3448 37.8379 45.5864C37.6264 45.8432 37.0072 46.4473 36.4635 46.9456C35.9199 47.444 34.9231 48.1387 34.2737 48.4861C33.6092 48.8334 32.6276 49.2714 32.0839 49.4526C31.3137 49.7094 30.619 49.7849 28.9124 49.8453C27.0095 49.9057 26.5565 49.8755 25.4389 49.5885C24.7291 49.4073 23.5511 48.9391 22.796 48.5616C21.9805 48.1236 21.029 47.4742 20.3797 46.8852C19.8058 46.3416 19.0356 45.526 18.6882 45.073C18.3408 44.6048 17.8123 43.7591 17.5253 43.1701C17.2384 42.5811 16.8457 41.5692 16.6645 40.9047C16.4078 39.9684 16.3322 39.2586 16.3322 37.8088C16.3171 36.4647 16.3927 35.6341 16.589 34.9394C16.7249 34.3957 17.0119 33.5499 17.2233 33.0516C17.4196 32.5532 17.8123 31.783 18.0841 31.3299C18.3408 30.8769 19.0809 29.9858 19.7001 29.3515C20.3192 28.7172 21.1348 27.9772 21.5123 27.7356C21.8899 27.4788 22.7205 27.0258 23.3548 26.7237C24.0042 26.4217 24.9556 26.0894 25.4691 25.9686ZM24.7139 28.4302C25.1519 28.249 25.9221 28.0225 26.4205 27.9016C26.9944 27.7657 27.8703 27.7204 28.8368 27.7506C29.894 27.7959 30.7095 27.9318 31.5552 28.1886C32.265 28.4151 33.2316 28.8833 33.8961 29.3213C34.5153 29.729 35.4214 30.4992 35.9047 31.0278C36.388 31.5564 37.0374 32.5078 37.3696 33.127C37.6868 33.7462 38.0643 34.6977 38.2153 35.2413C38.3815 35.8454 38.4872 36.7969 38.4872 37.7332C38.4872 38.5638 38.4117 39.621 38.2908 40.0741C38.1851 40.5271 37.868 41.3728 37.5961 41.9618C37.3394 42.5508 36.8108 43.4268 36.4333 43.9251C36.0557 44.4235 35.4214 45.1031 35.0137 45.4354C34.6059 45.7676 33.8961 46.266 33.443 46.5378C32.99 46.8097 32.2046 47.157 31.7063 47.3231C31.2079 47.4893 30.2867 47.7007 29.6675 47.7762C28.8519 47.897 28.1723 47.897 27.2511 47.7762C26.5413 47.6705 25.4539 47.3986 24.8347 47.1721C24.2155 46.9305 23.1886 46.3717 22.5694 45.9337C21.9502 45.4958 21.1196 44.7255 20.7269 44.2272C20.3192 43.7288 19.8057 42.9435 19.5641 42.4904C19.3224 42.0373 18.9751 41.2218 18.8089 40.6781C18.6277 40.1345 18.4465 39.1528 18.4012 38.4883C18.3559 37.703 18.4012 36.8271 18.5522 35.9964C18.7032 35.1205 18.9902 34.2899 19.4583 33.3536C19.8661 32.5078 20.4702 31.6168 21.0139 31.0127C21.5122 30.469 22.358 29.7441 22.9168 29.3817C23.4755 29.0343 24.2911 28.6114 24.7139 28.4302Z" fill="white"/>
<path d="M27.9296 30.6663C27.8541 30.7116 27.8088 31.0891 27.8239 31.4969C27.8541 32.0708 27.7937 32.2369 27.5822 32.3124C27.4463 32.3577 27.0839 32.4936 26.7969 32.6145C26.51 32.7353 26.0569 33.0524 25.7851 33.3243C25.5283 33.581 25.2263 33.9888 25.1508 34.2304C25.0602 34.4569 24.9846 34.9402 24.9846 35.3178C24.9846 35.6953 25.0753 36.1786 25.1961 36.4202C25.3169 36.6468 25.6038 37.0092 25.8455 37.2357C26.072 37.4623 26.7969 37.8851 27.4463 38.1721C28.0806 38.4741 28.6847 38.7158 28.7602 38.7158C28.8357 38.7158 29.1529 38.9423 29.4398 39.2141C29.7721 39.5313 29.9533 39.8333 29.9684 40.1203C29.9684 40.3468 29.908 40.664 29.8174 40.8301C29.7268 40.9962 29.47 41.2378 29.2133 41.3587C28.9565 41.4795 28.3676 41.5852 27.8994 41.5852C27.4161 41.5701 26.661 41.4644 26.2381 41.3133C25.8002 41.1774 25.3924 41.0868 25.3169 41.1321C25.2565 41.1774 25.1206 41.4493 25.03 41.7362C24.894 42.1289 24.9091 42.3252 25.03 42.5215C25.1357 42.6574 25.5887 42.884 26.0418 43.0048C26.4949 43.1407 27.0537 43.2464 27.2953 43.2464C27.6879 43.2464 27.7031 43.2766 27.7031 44.0771C27.7031 44.6811 27.7635 44.9228 27.9296 44.9832C28.0504 45.0285 28.2467 45.0587 28.3676 45.0587C28.4884 45.0587 28.6998 44.953 28.8206 44.8322C28.9716 44.6963 29.0623 44.3489 29.0623 43.926C29.0623 43.4126 29.1227 43.2313 29.319 43.1709C29.47 43.1256 29.9533 42.8991 30.4064 42.6726C30.9651 42.4007 31.3427 42.0685 31.5994 41.6607C31.826 41.2982 32.0072 40.7546 32.0525 40.3015C32.0827 39.8333 32.0223 39.3199 31.8864 38.9423C31.7505 38.61 31.4182 38.1268 31.1464 37.8851C30.8745 37.6284 30.3459 37.281 29.9684 37.13C29.5908 36.9639 28.881 36.6317 28.3827 36.3749C27.8843 36.1333 27.3859 35.7557 27.2651 35.5443C27.1443 35.3178 27.099 35.0006 27.1594 34.759C27.2047 34.5173 27.4614 34.2153 27.7333 34.0341C28.0051 33.8679 28.5035 33.732 28.8357 33.732C29.168 33.732 29.7419 33.8377 30.1194 33.9586C30.497 34.0794 30.8896 34.1851 30.9953 34.1851C31.086 34.1851 31.2823 33.9132 31.4031 33.581C31.5239 33.2487 31.6296 32.9467 31.6296 32.9014C31.6296 32.8561 31.4484 32.7353 31.2068 32.6145C30.9802 32.4936 30.4366 32.3426 29.9986 32.2671L29.2133 32.1463V30.5605C28.3222 30.5605 28.0051 30.6059 27.9296 30.6663Z" fill="white"/>
<rect width="56" height="56" rx="28" fill="black" fill-opacity="0.2"/>
</svg>
