<svg width="56" height="56" viewBox="0 0 56 56" fill="none" xmlns="http://www.w3.org/2000/svg">
<path fill-rule="evenodd" clip-rule="evenodd" d="M24.1029 12.0558C24.4498 12.1053 25.0197 12.477 25.4162 12.8735C25.887 13.4186 26.0852 13.8646 26.0852 14.5337C26.0852 15.054 25.887 15.7231 25.6392 15.9956C25.4162 16.293 24.9701 16.6647 24.648 16.8133C24.3507 16.962 23.8799 17.0859 23.6073 17.0859C23.3347 17.0859 22.7896 16.8877 22.3683 16.6399C21.9719 16.4169 21.5258 15.9709 21.3772 15.6487C21.2533 15.3514 21.1294 14.7815 21.1294 14.3602C21.1294 13.9142 21.3772 13.3195 21.7489 12.8982C22.0958 12.5018 22.6161 12.1053 22.9383 12.0558C23.2356 11.9814 23.756 11.9814 24.1029 12.0558ZM21.7984 17.8293C21.9719 17.8293 22.517 18.0027 22.9878 18.201C23.5825 18.4488 23.9046 18.7957 24.0285 19.2417C24.1277 19.6629 23.9294 21.0506 23.5082 22.7851C23.1365 24.3462 22.8639 25.6347 22.9135 25.6595C22.963 25.6595 23.7064 25.9816 24.5985 26.3533C25.4905 26.7498 26.4073 27.2453 26.6303 27.4684C26.8534 27.6914 27.3242 28.8064 27.6463 29.9711C27.9932 31.1357 28.3401 32.3994 28.4144 32.8206C28.4888 33.2419 28.4888 33.7127 28.3649 33.8614C28.2658 34.0348 27.8693 34.2826 27.4481 34.4065C26.9525 34.5552 26.5064 34.5304 26.11 34.357C25.5896 34.1092 25.4162 33.6879 24.9949 31.8047C24.6976 30.541 24.425 29.4755 24.3507 29.4259C24.2763 29.3516 23.2852 28.9799 22.1205 28.5834C20.9559 28.2117 19.7417 27.6418 19.3948 27.3692C19.0479 27.0719 18.701 26.5268 18.6019 26.1798C18.478 25.7586 18.5771 24.7179 18.8993 23.4046C19.1718 22.24 19.3205 21.2984 19.2214 21.2984C19.0975 21.2984 18.8249 21.4223 18.6019 21.5957C18.3789 21.7692 18.0072 22.6364 17.7842 23.5285C17.5612 24.4205 17.2143 25.3869 17.016 25.6843C16.8178 26.0064 16.4213 26.2542 16.124 26.2542C15.8019 26.2542 15.3311 26.1055 15.0585 25.9073C14.5629 25.5604 14.5629 25.5356 15.0337 23.7267C15.2815 22.7356 15.6532 21.5462 15.8266 21.1001C16.0744 20.5302 16.5452 20.109 17.4868 19.6382C18.1807 19.2913 19.3948 18.7213 20.1382 18.424C20.8816 18.1019 21.6497 17.8541 21.8232 17.8293H21.7984ZM36.3438 19.316C36.7402 19.316 37.1119 19.539 37.3349 19.9355C37.657 20.4807 37.657 20.6293 36.9632 21.7939L42.5385 21.9178V26.8737L36.9632 26.9976V32.9445H40.9279C43.3315 32.9445 44.9421 33.0437 45.0164 33.1923C45.0908 33.341 44.9917 33.6136 44.843 33.8118C44.5704 34.1587 43.6784 34.2083 33.2464 34.1835V34.9764C33.2464 35.4225 33.1225 35.9428 32.949 36.0915C32.726 36.3393 31.3136 36.4136 22.5913 36.4136L22.4675 38.2721L12.1841 38.3959V39.2632C12.1841 39.734 12.0602 40.18 11.9363 40.2544C11.7877 40.3287 11.5151 40.2296 11.2921 40.0561C11.0195 39.8331 10.9204 39.4119 11.0691 37.2809L21.3524 37.157V36.5375C21.3524 36.1906 21.4019 35.7446 21.4763 35.5464C21.5754 35.2242 22.3931 35.1747 32.0074 35.1747V32.9445H35.7243V27.2453C35.7243 24.0984 35.6499 21.4966 35.526 21.447C35.4269 21.3975 35.2783 21.1497 35.1791 20.9019C35.1048 20.6293 35.1791 20.1833 35.3774 19.8612C35.6004 19.539 35.9968 19.316 36.3438 19.316ZM24.6728 20.778L25.317 21.1992C25.664 21.4223 26.6799 22.1409 27.6215 22.7603C29.0091 23.7019 29.2817 23.9993 29.2321 24.5196C29.1826 24.9161 28.9348 25.2135 28.5136 25.3869C27.9189 25.6099 27.6463 25.486 26.1843 24.5196C25.2427 23.9002 24.4002 23.355 24.2763 23.2807C24.1524 23.2064 24.202 22.6364 24.3754 21.9674L24.6728 20.778ZM44.5456 23.0329C45.2642 23.0329 45.9333 23.132 45.9828 23.2807C46.0572 23.4046 45.8837 23.9993 45.066 25.6347L45.5864 26.6754C45.8837 27.2701 46.0572 27.84 45.9828 27.9887C45.9333 28.1374 44.7439 28.2365 43.2571 28.2365C40.8288 28.2365 40.6553 28.2117 40.6553 27.7409C40.6553 27.3197 40.8288 27.2453 42.8854 27.2453L42.8607 25.2878C42.8359 24.2223 42.9102 23.2807 43.0093 23.1816C43.1332 23.1072 43.827 23.0329 44.5456 23.0329ZM18.3293 27.5427L19.717 28.2613C21.0303 28.9551 21.0798 29.0047 20.9311 29.7728C20.8568 30.2188 20.4851 31.7056 20.1134 33.0684C19.5435 35.1994 19.3701 35.5711 18.8001 35.8437C18.3789 36.0419 17.8585 36.0915 17.4621 35.9676C17.1152 35.8685 16.7187 35.5959 16.5948 35.3481C16.4461 35.0755 16.6444 33.9357 17.1399 32.0029C17.5612 30.4171 17.9824 28.7569 18.1063 28.3109L18.3293 27.5427Z" fill="white"/>
<rect width="56" height="56" rx="28" fill="black" fill-opacity="0.2"/>
</svg>
