<svg width="111" height="111" viewBox="0 0 111 111" fill="none" xmlns="http://www.w3.org/2000/svg">
<circle cx="55.5" cy="55.5" r="55.5" fill="white"/>
<path opacity="0.9" fill-rule="evenodd" clip-rule="evenodd" d="M80.5229 34.668C81.0101 34.8665 81.6972 35.2952 82.129 35.6064C82.5245 35.9411 82.9984 36.6356 83.2001 37.1467C83.3655 37.6812 83.5468 41.1809 83.5447 44.953C83.549 48.6952 83.4281 52.0052 83.281 52.2541C83.1274 52.5328 82.6397 52.7706 82.1437 52.7573C81.6711 52.7802 81.1178 52.5986 80.9116 52.3983C80.6522 52.1553 80.5103 49.6306 80.5 45.4817C80.4636 41.8885 80.4268 38.7316 80.3589 38.4675C80.3209 38.2099 80.0872 37.8478 79.8085 37.6942C79.5298 37.5406 69.7699 37.4019 58.1068 37.4143C46.4437 37.4267 36.7048 37.4796 36.477 37.524C36.2726 37.6047 35.9911 38.0429 35.8819 38.5494C35.7792 39.0261 35.6851 46.9873 35.6982 56.1875C35.6641 69.3683 35.7642 73.1 36.1575 73.5901C36.3912 73.9522 36.8592 74.2401 37.1466 74.2085C37.4638 74.1833 42.892 74.1682 49.2526 74.1668C55.5833 74.159 61.1178 74.2291 61.5349 74.319C61.9521 74.4089 62.4265 74.667 62.5901 74.9205C62.7537 75.174 62.8064 75.653 62.7656 75.9872C62.695 76.3149 62.3539 76.7403 62.0344 76.9208C61.6787 77.1248 56.0098 77.244 48.9255 77.2765C38.4225 77.2582 36.2535 77.1962 35.2918 76.7396C34.6684 76.4494 33.8773 75.7801 33.4969 75.2304C33.1527 74.6574 32.8236 73.8694 32.7348 73.4138C32.6757 72.9646 32.6313 65.0671 32.6545 55.8435C32.6415 46.6433 32.7677 38.5331 32.9218 37.818C33.0758 37.1029 33.5132 36.2307 33.9991 35.7118C34.436 35.2759 35.2923 34.7745 35.8502 34.6453C36.4442 34.4927 46.5429 34.3615 58.3018 34.3385C71.9617 34.3199 79.9824 34.4268 80.5229 34.668ZM64.5987 39.8419C65.1583 39.9937 65.6533 40.8798 66.8316 43.6591C67.8188 46.023 68.245 47.5178 68.1294 48.0541C68.0139 48.5904 67.7154 48.9626 67.2896 49.0579C66.9298 49.1363 66.404 49.1165 66.1189 48.9928C65.87 48.8456 65.3516 47.9233 64.2691 45.1335L63.013 47.2012C62.3029 48.3264 61.0899 49.9046 60.3312 50.6764C59.5427 51.4419 58.0428 52.6152 56.9926 53.2931C55.919 53.9347 54.1427 54.7991 53.0311 55.1831C51.9259 55.5374 50.0905 55.9525 48.9345 56.1088C47.276 56.2814 46.1713 56.1993 43.4004 55.6023C40.7487 55.0309 39.8443 54.7425 39.5341 54.3015C39.3173 54.0054 39.2009 53.388 39.3334 52.9177C39.4297 52.4708 39.7708 52.0454 40.071 51.9542C40.401 51.8694 41.5759 52.0602 42.7186 52.4C43.8847 52.7759 45.632 53.0589 46.7794 53.0878C47.8969 53.1104 49.6809 52.9336 50.7669 52.6687C51.8464 52.4337 53.6204 51.7247 54.6875 51.1128C55.7547 50.501 57.2354 49.417 57.945 48.7281C58.6546 48.0392 59.6714 46.7929 60.1918 45.9697C60.6823 45.1401 61.0578 44.4104 60.9812 44.3315C60.8983 44.2825 60.1295 44.5221 59.2159 44.8553C57.8508 45.403 57.5336 45.4282 57.0019 45.0018C56.6829 44.746 56.3791 44.2752 56.3539 43.958C56.2925 43.6642 56.425 43.1939 56.6317 42.9579C56.8449 42.692 58.5552 41.8446 60.4442 41.0357C62.772 40.0719 64.105 39.6732 64.5987 39.8419ZM57.0922 57.4612C57.4199 57.5318 57.8219 57.8366 58.0089 58.1263C58.1959 58.4161 58.3416 59.4763 58.3214 60.4385C58.2947 61.4304 58.2601 63.7613 58.2559 65.6622C58.2588 68.6871 58.1859 69.1702 57.6766 69.6528C57.3548 69.9888 56.8139 70.184 56.4266 70.1006C56.0626 70.0533 55.6244 69.7719 55.4906 69.5248C55.327 69.2713 55.2172 66.5975 55.2376 63.6089C55.3136 58.4809 55.3544 58.1468 55.9403 57.743C56.2662 57.5326 56.7943 57.397 57.0922 57.4612ZM50.3378 59.4354C50.6059 59.4931 51.0207 59.7384 51.227 59.9387C51.4566 60.1753 51.6165 61.8933 51.5989 64.2902C51.59 66.5019 51.5472 68.5816 51.4702 68.9391C51.3803 69.3562 50.986 69.739 50.4814 69.9108C49.7722 70.1633 49.5637 70.1184 49.0448 69.6325C48.5791 69.1892 48.465 68.4163 48.4988 64.9317C48.5269 62.6306 48.5866 60.6169 48.6018 60.402C48.6403 60.2232 48.9323 59.8808 49.2518 59.7002C49.5778 59.4898 50.0696 59.3776 50.3378 59.4354ZM43.7348 59.2597C43.8837 59.2918 44.239 59.5243 44.4622 59.7906C44.7619 60.1358 44.9007 61.6622 44.8803 64.6509C44.8823 68.5485 44.803 69.0614 44.2872 69.5739C43.9952 69.9163 43.4245 70.1051 43.0372 70.0216C42.6732 69.9744 42.2648 69.6993 42.1012 69.4458C41.9674 69.1987 41.8461 67.3019 41.8228 65.2392C41.8294 63.1829 41.902 61.1096 41.9813 60.5967C42.1033 60.0306 42.4146 59.5988 42.7937 59.4311C43.1301 59.3165 43.556 59.2212 43.7348 59.2597Z" fill="#F24A25"/>
<path opacity="0.9" fill-rule="evenodd" clip-rule="evenodd" d="M73.7419 53.3885C75.7839 53.4799 76.8507 53.6628 77.9174 54.1504C78.7403 54.5162 80.1423 55.5524 81.0871 56.4058C82.0929 57.3811 83.0987 58.6917 83.5559 59.6975C84.135 60.8861 84.4093 62.0443 84.5007 63.6596C84.5921 65.214 84.5007 66.4941 84.1654 67.6218C83.8911 68.5361 83.1901 69.9686 82.611 70.822C82.032 71.6449 81.6357 72.4678 81.7577 72.6507C81.8491 72.8336 83.0682 74.388 84.4702 76.1557C85.8417 77.9234 86.9694 79.6302 86.9999 79.9655C86.9999 80.3007 86.8475 80.7579 86.6342 80.9713C86.4208 81.1541 85.9332 81.337 85.476 81.337C84.8664 81.3675 84.2264 80.7274 82.1234 78.1063C80.6909 76.3081 79.4413 74.6927 79.3194 74.5099C79.167 74.2661 78.8013 74.327 78.1003 74.6623C77.5517 74.9366 76.2716 75.3328 75.2658 75.5157C74.0162 75.729 72.858 75.7595 71.6084 75.5461C70.6026 75.3937 69.0482 74.8756 68.1339 74.4184C67.2195 73.9308 65.848 72.8336 64.9946 71.8888C64.1412 70.9439 63.2269 69.5114 62.8916 68.5971C62.5869 67.7437 62.2211 66.2808 62.1297 65.3969C62.0078 64.3606 62.0992 63.1415 62.4345 61.8309C62.7088 60.7337 63.3793 59.1793 63.9279 58.3564C64.4765 57.5335 65.3604 56.4668 65.8785 55.9791C66.4271 55.522 67.4634 54.821 68.1644 54.4552C68.8654 54.12 69.8102 53.6933 70.2369 53.5713C70.6636 53.419 72.2485 53.358 73.7419 53.3885ZM69.414 57.3202C68.9568 57.5945 68.0425 58.3564 67.4024 59.0574C66.7929 59.7279 66.0614 60.8252 65.7871 61.4347C65.5432 62.0748 65.3299 63.4158 65.2994 64.4216C65.2994 65.5798 65.5128 66.7379 65.8785 67.6218C66.2138 68.3838 66.8843 69.4505 67.3719 69.9991C67.8596 70.5782 69.0178 71.4011 69.9321 71.8278C71.1817 72.4069 72.0656 72.6202 73.4371 72.6202C74.5953 72.6202 75.7534 72.3764 76.6373 71.9802C77.3993 71.6449 78.466 70.883 79.0451 70.3344C79.6242 69.7553 80.4166 68.5971 80.7824 67.7742C81.2395 66.8294 81.5138 65.6712 81.5138 64.7264C81.5138 63.873 81.3614 62.6843 81.209 62.0443C81.0262 61.4347 80.4471 60.3375 79.8985 59.606C79.3499 58.905 78.2831 57.9297 77.5212 57.4726C76.4849 56.802 75.723 56.5887 74.0467 56.4973C72.8885 56.4058 71.5475 56.4668 71.0903 56.6192C70.6331 56.7411 69.8712 57.0763 69.414 57.3202Z" fill="#F24A25"/>
</svg>
