<svg width="56" height="56" viewBox="0 0 56 56" fill="none" xmlns="http://www.w3.org/2000/svg">
<path fill-rule="evenodd" clip-rule="evenodd" d="M26.7164 7.50709C26.9219 7.29289 27.1536 7.09617 27.2235 7.0612C27.2935 7.0306 27.4202 7.00437 27.4946 7C27.5733 7 27.7044 7.02623 27.7787 7.0612C27.8574 7.0918 28.0935 7.29289 28.2989 7.50709C28.5044 7.72129 28.7973 8.05352 28.9503 8.24586C29.1033 8.43821 29.3568 8.7923 29.5142 9.03273C29.6759 9.27316 29.9076 9.66659 30.03 9.90702C30.1524 10.1474 30.3273 10.5409 30.4147 10.7813C30.5021 11.0217 30.6289 11.4327 30.6901 11.6993C30.7906 12.119 30.8038 12.2763 30.8081 12.967C30.8081 13.6402 30.795 13.8195 30.7032 14.2129C30.6464 14.4664 30.5415 14.838 30.4715 15.0435C30.4016 15.2489 30.2267 15.6511 30.0868 15.9396C29.947 16.2281 29.7109 16.6522 29.5623 16.8795C29.4093 17.1068 29.1732 17.4434 29.0377 17.6226C28.8978 17.8019 28.6574 18.0948 28.2071 18.5844V20.7919C28.2071 22.0072 28.2202 23.0083 28.2377 23.017C28.2596 23.0301 28.8672 22.4137 30.9174 20.2674V19.8302C30.9174 19.5898 30.948 19.1352 30.983 18.8248C31.0223 18.5144 31.101 18.0292 31.1622 17.7538C31.2234 17.4784 31.3414 17.0456 31.4289 16.7921C31.5119 16.5385 31.6824 16.1276 31.8092 15.8741C31.9316 15.6205 32.1371 15.2664 32.2595 15.0872C32.3862 14.908 32.6223 14.6151 32.784 14.4358C32.9458 14.2566 33.2693 13.9725 33.4966 13.802C33.7239 13.6315 34.0867 13.3998 34.3053 13.2862C34.5239 13.1725 34.8736 13.0151 35.0922 12.9321C35.3107 12.849 35.7304 12.7179 36.032 12.6435C36.3336 12.5692 36.8101 12.4774 37.0899 12.4425C37.3741 12.4075 37.8986 12.3769 38.2615 12.3769C38.8297 12.3769 38.939 12.39 39.092 12.4643C39.1926 12.5124 39.3106 12.6217 39.3631 12.7135C39.4592 12.8709 39.4636 12.9277 39.4592 13.6009C39.4592 13.9987 39.433 14.5276 39.4024 14.7812C39.3718 15.0347 39.2975 15.4763 39.2407 15.7648C39.1795 16.0533 39.0571 16.5167 38.9653 16.7921C38.8735 17.0675 38.6942 17.5002 38.5675 17.7538C38.4407 18.0073 38.2396 18.3614 38.1172 18.5406C37.9948 18.7199 37.6888 19.074 37.4353 19.3275C37.1817 19.581 36.8145 19.8958 36.6222 20.0226C36.4298 20.1493 36.0845 20.3417 35.8572 20.451C35.6298 20.5603 35.2146 20.7264 34.9392 20.8138C34.6638 20.9056 34.231 21.0193 33.9774 21.0717C33.7239 21.1198 33.3436 21.181 33.125 21.2072C32.9064 21.2291 32.548 21.2509 31.9228 21.2509L28.2115 25.1197L28.2071 27.7513C28.2071 29.8889 28.194 30.4135 28.1459 30.5272C28.1153 30.6059 28.0235 30.7326 27.9492 30.8026C27.8224 30.9206 27.7831 30.9337 27.5077 30.9337C27.2323 30.9337 27.1929 30.9206 27.0662 30.8026C26.9918 30.7326 26.9 30.6059 26.8694 30.5272C26.8214 30.4135 26.8082 29.8889 26.8039 25.1197L25.2957 23.546C24.4651 22.6804 23.6258 21.8105 23.0707 21.2466L22.6772 21.2509C22.463 21.2509 22.1046 21.2291 21.8904 21.2072C21.6762 21.181 21.2915 21.1198 21.0379 21.0717C20.7844 21.0193 20.3516 20.9056 20.0762 20.8138C19.8008 20.7264 19.3855 20.5603 19.1582 20.451C18.9309 20.3417 18.5855 20.1493 18.3932 20.0226C18.2009 19.8958 17.8336 19.581 17.5801 19.3275C17.3266 19.074 17.0206 18.7199 16.8982 18.5406C16.7758 18.3614 16.5747 18.0073 16.4479 17.7538C16.3211 17.5002 16.1419 17.0675 16.0501 16.7921C15.9583 16.5167 15.8359 16.0533 15.7747 15.7648C15.7179 15.4763 15.6435 15.0347 15.6129 14.7812C15.5823 14.5276 15.5561 13.9987 15.5561 13.6009C15.5517 12.9277 15.5561 12.8709 15.6523 12.7135C15.7047 12.6217 15.8228 12.5124 15.9233 12.4643C16.0763 12.39 16.1856 12.3769 16.7539 12.3769C17.1167 12.3769 17.6413 12.4075 17.9254 12.4425C18.2052 12.4774 18.6817 12.5692 18.9833 12.6435C19.285 12.7179 19.709 12.849 19.9232 12.9321C20.1374 13.0151 20.4959 13.1725 20.7101 13.2862C20.9243 13.3998 21.2915 13.6315 21.5188 13.802C21.7461 13.9725 22.0696 14.2566 22.2313 14.4358C22.3931 14.6151 22.6291 14.908 22.7559 15.0872C22.8783 15.2664 23.0838 15.6205 23.2062 15.8741C23.3329 16.1276 23.5034 16.5385 23.5865 16.7921C23.6739 17.0456 23.7919 17.4784 23.8531 17.7538C23.9143 18.0292 23.993 18.5144 24.0324 18.8248C24.0673 19.1352 24.0979 19.5898 24.0979 20.2674L25.4181 21.6531C26.1482 22.4138 26.7558 23.0301 26.7776 23.017C26.7951 23.0083 26.8082 22.0072 26.8082 18.5844L26.5197 18.2652C26.358 18.0948 26.1176 17.8019 25.9777 17.6226C25.8422 17.4434 25.6061 17.1068 25.4531 16.8795C25.3045 16.6522 25.0684 16.2281 24.9285 15.9396C24.7886 15.6511 24.6138 15.2489 24.5438 15.0435C24.4739 14.838 24.369 14.4664 24.3121 14.2129C24.2203 13.8195 24.2072 13.6402 24.2072 12.967C24.2116 12.2763 24.2247 12.119 24.3253 11.6993C24.3865 11.4327 24.5132 11.0217 24.6007 10.7813C24.6881 10.5409 24.8629 10.1474 24.9853 9.90702C25.1077 9.66659 25.3394 9.27316 25.5012 9.03273C25.6586 8.7923 25.9121 8.43821 26.0651 8.24586C26.2181 8.05352 26.511 7.72129 26.7164 7.50709ZM10.1005 28.7567C10.153 28.6693 10.271 28.5556 10.3585 28.5076H10.3628C10.5158 28.4289 10.6251 28.4245 12.1202 28.4245C13.6939 28.4201 13.7201 28.4245 13.8862 28.5207C13.9824 28.5731 14.1004 28.6868 14.1485 28.7698C14.2316 28.9054 14.2403 29.0059 14.2534 29.6529C14.2578 30.0594 14.2665 30.3873 14.2753 30.3873C14.2797 30.3873 14.4108 30.3479 14.5682 30.2955C14.7255 30.2474 15.0665 30.1687 15.3332 30.1206C15.6304 30.0638 16.0938 30.0245 16.5572 30.007C17.1167 29.9895 17.4009 30.0026 17.7156 30.0551C17.9429 30.09 18.3757 30.1906 18.6773 30.2736C18.979 30.3567 19.4992 30.5272 19.8358 30.6496C20.1724 30.7763 20.78 31.0211 21.1909 31.196C21.6018 31.3709 22.1614 31.5851 22.4368 31.6725C22.7122 31.7599 23.1275 31.8692 23.3548 31.9173C23.5821 31.9654 23.9493 32.0222 24.1635 32.0484C24.4039 32.0747 26.0738 32.0922 28.4475 32.0922C31.8048 32.0922 32.3775 32.1009 32.6223 32.1621C32.7797 32.1971 33.0551 32.3064 33.2343 32.3982C33.4135 32.4943 33.6802 32.6736 33.8201 32.8003C33.9643 32.9271 34.1698 33.1719 34.4802 33.6615L37.6932 31.3446C39.5248 30.0288 40.9718 29.0146 41.0592 28.9884C41.1422 28.9666 41.4002 28.9272 41.6275 28.901C41.916 28.8704 42.1695 28.8704 42.4581 28.901C42.6854 28.9228 43.0001 28.984 43.1575 29.0365C43.3149 29.0846 43.5597 29.1895 43.6996 29.2638C43.8438 29.3425 44.0799 29.5217 44.2285 29.666C44.3859 29.8234 44.5564 30.0507 44.6525 30.2343C44.74 30.4004 44.8405 30.6496 44.8798 30.7807C44.9192 30.9119 44.9673 31.196 44.9891 31.4146C45.0066 31.6419 45.0066 32.0135 44.9848 32.2889C44.9629 32.573 44.9148 32.8397 44.8667 32.9446C44.823 33.0408 44.5957 33.338 44.3596 33.6003C44.1192 33.8626 43.5203 34.4833 43.0263 34.9773C42.5324 35.4713 41.8373 36.1401 41.4745 36.468C41.116 36.7915 40.5827 37.2548 40.2942 37.4953C40.0057 37.7357 39.503 38.1422 39.1795 38.3914C38.856 38.645 38.3533 39.0209 38.0647 39.2264C37.7762 39.4318 37.3129 39.7466 37.0375 39.9258C36.762 40.1094 36.2987 40.3979 36.0102 40.5684C35.7216 40.7433 35.1228 41.0667 34.6769 41.2897C34.231 41.517 33.6233 41.8055 33.3217 41.9279C33.0201 42.0547 32.2857 42.3214 31.6824 42.5224C31.0835 42.7192 30.2748 42.9596 29.8901 43.0558C29.5054 43.1519 29.0027 43.2568 28.7754 43.2874C28.535 43.3224 27.9711 43.3486 27.4421 43.3486C26.9219 43.3486 26.3536 43.3224 26.1307 43.2918C25.9165 43.2612 25.5405 43.1956 25.3001 43.1432C25.0597 43.0951 24.6487 42.9902 24.3821 42.9115C24.1023 42.8241 22.9657 42.352 21.6718 41.7837C20.1505 41.1148 19.1844 40.717 18.6336 40.5334C18.1877 40.3848 17.6107 40.2056 17.344 40.1356C17.0774 40.0657 16.6184 39.9783 16.3168 39.9433C16.0151 39.9083 15.5649 39.8733 15.3113 39.869C15.0578 39.8602 14.7212 39.8602 14.2622 39.8733L14.2534 40.7345C14.2403 41.517 14.2316 41.6132 14.1485 41.7531C14.1004 41.8361 13.9911 41.9498 13.9081 42.0066L13.9074 42.007C13.7594 42.1028 13.7527 42.1072 12.1202 42.1072C10.4876 42.1072 10.4809 42.1028 10.3329 42.007L10.3322 42.0066C10.2492 41.9498 10.1399 41.8361 10.0918 41.7531C10 41.6001 10 41.5782 10 28.9228L10.1005 28.7567ZM46.7071 48.9485C46.659 48.8917 46.6634 48.8698 46.729 48.8348C46.7683 48.813 46.8077 48.7911 46.812 48.7911C46.8164 48.7911 46.812 48.813 46.8033 48.8348C46.7902 48.8567 46.8295 48.8873 47 48.9223L46.847 49.237L46.8033 49.1321C46.7825 49.074 46.7381 49.0001 46.7113 48.9554L46.7071 48.9485ZM26.664 9.81958C26.8083 9.60538 27.0443 9.27315 27.193 9.08954V9.08517C27.3416 8.90157 27.4858 8.74857 27.5077 8.74857C27.5339 8.74857 27.6607 8.87971 27.7962 9.04146C27.9274 9.20757 28.1547 9.51358 28.2989 9.73215C28.4432 9.94635 28.6661 10.331 28.7929 10.5846C28.9241 10.8381 29.0902 11.2272 29.1645 11.4458C29.2388 11.6687 29.3306 12.0359 29.3656 12.2545C29.4005 12.4774 29.4311 12.8097 29.4311 12.9889C29.4311 13.1681 29.4005 13.4916 29.3656 13.7102C29.3306 13.9244 29.2519 14.261 29.1863 14.4533C29.1251 14.6457 28.9809 14.9998 28.8672 15.2402C28.7536 15.4806 28.5656 15.826 28.229 16.333L28.2071 14.532C28.1853 12.7834 28.1809 12.731 28.0935 12.6086C28.041 12.543 27.9449 12.4468 27.8836 12.3987C27.7962 12.3332 27.6957 12.3113 27.5077 12.3113C27.3154 12.3113 27.2236 12.3332 27.1274 12.4031C27.0618 12.4556 26.9656 12.5517 26.9176 12.6129C26.8345 12.7266 26.8301 12.8097 26.817 14.4664C26.8126 15.4194 26.7952 16.2325 26.782 16.2675C26.7675 16.3112 26.7004 16.2383 26.581 16.0489C26.4848 15.8915 26.3099 15.5768 26.1963 15.3495C26.0826 15.1222 25.9252 14.7506 25.8509 14.5276C25.7766 14.3091 25.6848 13.9419 25.6498 13.7189C25.6149 13.5003 25.5843 13.1681 25.5843 12.9889C25.5843 12.8097 25.6149 12.4818 25.6498 12.2676C25.6848 12.0534 25.7854 11.6687 25.8728 11.4152C25.9602 11.1616 26.1132 10.79 26.2181 10.5846C26.323 10.3791 26.5241 10.0338 26.664 9.81958ZM17.0206 14.6544C16.9944 14.4271 16.9681 14.1342 16.9594 14.0074L16.9419 13.7801H17.0993C17.1867 13.7801 17.4228 13.802 17.6282 13.8238C17.8337 13.8501 18.1878 13.9113 18.4151 13.9593C18.6424 14.0074 19.0009 14.1036 19.2107 14.1735C19.4249 14.2479 19.7659 14.3921 19.9757 14.497C20.1899 14.6019 20.4784 14.7768 20.6227 14.8817C20.7669 14.9866 20.9986 15.1921 21.1385 15.3364C21.2828 15.4762 21.5013 15.7516 21.6281 15.944C21.7592 16.1363 21.9297 16.4423 22.0128 16.6216C22.0958 16.8008 22.2226 17.1374 22.2969 17.3647C22.3669 17.592 22.463 17.9461 22.5024 18.1516C22.5417 18.357 22.568 18.5494 22.5592 18.5843C22.5505 18.6237 22.0609 18.1428 21.3877 17.439C20.7057 16.7265 20.1768 16.2063 20.0981 16.1757C20.0281 16.1494 19.897 16.1276 19.8139 16.1276C19.7309 16.1276 19.5997 16.1582 19.5298 16.1932C19.4599 16.2325 19.3506 16.3156 19.2894 16.3855C19.2282 16.4554 19.1626 16.5866 19.1451 16.674C19.1276 16.7658 19.132 16.9144 19.1539 17.0019C19.1888 17.133 19.438 17.4215 20.3997 18.4357C21.0642 19.1308 21.6062 19.7166 21.6062 19.734C21.6062 19.7559 21.4358 19.7297 21.2216 19.6816C21.0117 19.6335 20.6839 19.5417 20.4915 19.4805C20.2992 19.4193 19.9932 19.3013 19.8139 19.2182C19.6347 19.1308 19.3506 18.9734 19.1801 18.8597C19.014 18.7461 18.7692 18.5537 18.638 18.4357C18.5069 18.3133 18.2883 18.0685 18.1528 17.8893C18.0216 17.7101 17.8206 17.3735 17.7069 17.1461C17.5976 16.9188 17.4446 16.5516 17.3747 16.3374C17.3047 16.1188 17.2042 15.7473 17.1517 15.5068C17.1036 15.2664 17.0424 14.8817 17.0206 14.6544ZM36.6878 13.9331C36.8932 13.8938 37.1905 13.8457 37.3435 13.8238C37.5009 13.8063 37.7282 13.7889 38.0648 13.7801L38.0517 14.0074C38.0473 14.1342 38.0211 14.4227 37.9992 14.65C37.973 14.8817 37.9118 15.262 37.8637 15.5025C37.8112 15.7429 37.7151 16.1188 37.6407 16.333C37.5708 16.5516 37.4222 16.9144 37.3085 17.1418C37.1992 17.3735 36.9981 17.7057 36.8626 17.8849C36.7271 18.0685 36.5085 18.3133 36.3774 18.4313C36.2462 18.5537 36.0014 18.7461 35.8353 18.8554C35.6692 18.969 35.3851 19.1308 35.2015 19.2138C35.0222 19.2969 34.7162 19.4193 34.5239 19.4805C34.3315 19.5417 34.0037 19.6335 33.7939 19.6816C33.584 19.7297 33.4092 19.7515 33.4092 19.734C33.4092 19.7166 33.9512 19.1308 34.6157 18.4313C35.5774 17.4215 35.8266 17.133 35.8616 17.0019C35.8834 16.9101 35.8878 16.7658 35.8703 16.674C35.8572 16.5822 35.7785 16.4423 35.7042 16.3549C35.6168 16.2587 35.4944 16.1844 35.372 16.1538C35.2627 16.1232 35.1271 16.1188 35.0485 16.1363C35.0221 16.1446 34.9933 16.1534 34.9655 16.1619C34.9195 16.1761 34.8763 16.1894 34.8517 16.1975C34.8168 16.2106 34.266 16.7702 33.6277 17.4347C32.9633 18.1341 32.4649 18.6193 32.4562 18.5843C32.4474 18.5494 32.4737 18.3527 32.5174 18.1472C32.5567 17.9461 32.6485 17.592 32.7228 17.3603C32.7928 17.133 32.9196 16.8008 33.0026 16.6172C33.0857 16.438 33.2605 16.132 33.3873 15.9396C33.5141 15.7516 33.737 15.4762 33.8769 15.332C34.0168 15.1877 34.2485 14.9866 34.3927 14.8774C34.537 14.7724 34.8343 14.5976 35.0485 14.4883C35.267 14.379 35.6386 14.226 35.879 14.1517C36.1195 14.073 36.4867 13.9768 36.6878 13.9331ZM11.4208 40.7083V35.2614V29.8234H12.8633V40.7083H11.4208ZM35.9708 34.3216C36.6178 33.8538 38.1391 32.7566 39.3543 31.8823L41.5576 30.2911L42.1084 30.3042C42.563 30.3173 42.6941 30.3392 42.8734 30.4222C42.9958 30.4747 43.1575 30.584 43.2362 30.6627C43.3149 30.737 43.4198 30.8987 43.4723 31.0211C43.5509 31.196 43.5728 31.3446 43.6078 32.3326L43.1051 32.879C42.8297 33.1763 42.2002 33.8189 41.7106 34.2997C41.221 34.7806 40.5172 35.4407 40.1412 35.7642C39.7696 36.092 39.2888 36.5029 39.0702 36.6822C38.856 36.8614 38.3227 37.2767 37.8899 37.6002C37.4571 37.928 36.8189 38.3827 36.4692 38.61C36.1238 38.8417 35.6386 39.1477 35.3982 39.2919C35.1578 39.4362 34.7162 39.6854 34.4146 39.8471C34.1173 40.0088 33.6321 40.2493 33.3436 40.3848C33.0551 40.5159 32.6048 40.7083 32.3382 40.8132C32.0759 40.9137 31.5163 41.1105 31.0923 41.246C30.6726 41.3815 30.0737 41.5607 29.759 41.6438C29.4486 41.7268 29.0159 41.823 28.7973 41.858C28.5831 41.8973 28.1285 41.941 27.7918 41.9541C27.4246 41.9716 26.9744 41.9629 26.6553 41.9279C26.3668 41.9017 25.934 41.8361 25.6936 41.788C25.4531 41.7443 25.0815 41.6525 24.863 41.5913C24.6488 41.5301 23.4685 41.0361 22.2401 40.4984C20.5527 39.7509 19.779 39.4362 19.0489 39.1914C18.52 39.0165 17.8424 38.8111 17.5408 38.7368C17.2435 38.6668 16.7321 38.575 16.4042 38.5357C16.0807 38.4963 15.4643 38.4613 14.2622 38.4526V31.8736L14.5813 31.7643C14.7562 31.7031 15.0665 31.6157 15.2676 31.5676C15.4731 31.5195 15.8184 31.4627 16.0326 31.4364C16.2512 31.4102 16.6053 31.3927 16.8195 31.3883C17.0381 31.3883 17.3834 31.4189 17.5845 31.4539C17.79 31.4889 18.1921 31.5894 18.4806 31.6769C18.7692 31.7643 19.2413 31.926 19.5298 32.0353C19.8183 32.1446 20.3516 32.3588 20.7101 32.5162C21.0729 32.6692 21.5625 32.8615 21.803 32.9402C22.0434 33.0233 22.4106 33.1325 22.6117 33.185C22.8171 33.2375 23.1931 33.3205 23.4423 33.3686C23.8838 33.456 24.0936 33.4604 32.3382 33.5129L32.5567 33.6178C32.6791 33.679 32.854 33.8058 32.9502 33.9019C33.042 33.9981 33.1731 34.1861 33.2343 34.3216C33.3217 34.5139 33.3436 34.6276 33.3436 34.9117C33.3436 35.2002 33.3261 35.3008 33.2299 35.5019C33.1644 35.633 33.0157 35.8297 32.9021 35.9347C32.7841 36.0396 32.6004 36.1707 32.4912 36.2188C32.2988 36.3062 32.2114 36.3106 28.2203 36.3325C24.1767 36.3499 24.1504 36.3543 24.0237 36.4417C23.9581 36.4942 23.8575 36.6035 23.8007 36.6822C23.7351 36.7827 23.7045 36.8964 23.7045 37.0319C23.7045 37.163 23.7351 37.2767 23.8007 37.3772C23.8575 37.4559 23.9581 37.5652 24.028 37.6177C24.1504 37.7051 24.1679 37.7095 28.2028 37.7182C32.1546 37.7313 32.2595 37.7269 32.6004 37.6395C32.7928 37.5914 33.0595 37.4996 33.1906 37.4297C33.3261 37.3641 33.5447 37.2242 33.6846 37.1149C33.8245 37.01 34.0255 36.8133 34.1261 36.6822C34.231 36.5467 34.3796 36.3193 34.4539 36.1795C34.5239 36.0352 34.6201 35.7773 34.6594 35.6112C34.6987 35.4407 34.7468 35.2746 34.7643 35.2396C34.7818 35.2002 35.3239 34.7893 35.9708 34.3216Z" fill="white"/>
<rect width="56" height="56" rx="28" fill="black" fill-opacity="0.2"/>
</svg>
