<svg width="111" height="111" viewBox="0 0 111 111" fill="none" xmlns="http://www.w3.org/2000/svg">
<circle cx="55.5" cy="55.5" r="55.5" fill="white"/>
<path d="M28.2974 34.1163C28.9729 34.1163 29.5206 33.5687 29.5206 32.8931C29.5206 32.2176 28.9729 31.6699 28.2974 31.6699C27.6219 31.6699 27.0742 32.2176 27.0742 32.8931C27.0742 33.5687 27.6219 34.1163 28.2974 34.1163Z" fill="#F24A25"/>
<path d="M36.4537 34.1163C37.1292 34.1163 37.6768 33.5687 37.6768 32.8931C37.6768 32.2176 37.1292 31.6699 36.4537 31.6699C35.7781 31.6699 35.2305 32.2176 35.2305 32.8931C35.2305 33.5687 35.7781 34.1163 36.4537 34.1163Z" fill="#F24A25"/>
<path d="M32.3833 34.1163C33.0589 34.1163 33.6065 33.5687 33.6065 32.8931C33.6065 32.2176 33.0589 31.6699 32.3833 31.6699C31.7078 31.6699 31.1602 32.2176 31.1602 32.8931C31.1602 33.5687 31.7078 34.1163 32.3833 34.1163Z" fill="#F24A25"/>
<path d="M41.3483 50.6412L45.0179 46.9717C45.2482 46.7413 45.3776 46.4289 45.3776 46.1032C45.3776 45.7775 45.2482 45.4651 45.0179 45.2347C44.7875 45.0044 44.4751 44.875 44.1494 44.875C43.8237 44.875 43.5113 45.0044 43.2809 45.2347L38.7307 49.7972C38.5029 50.0264 38.375 50.3364 38.375 50.6595C38.375 50.9827 38.5029 51.2927 38.7307 51.5219L43.2809 56.0844C43.3946 56.199 43.5299 56.29 43.679 56.3521C43.828 56.4142 43.9879 56.4462 44.1494 56.4462C44.3109 56.4462 44.4707 56.4142 44.6198 56.3521C44.7689 56.29 44.9041 56.199 45.0179 56.0844C45.2457 55.8552 45.3736 55.5452 45.3736 55.222C45.3736 54.8989 45.2457 54.5889 45.0179 54.3597L41.3483 50.6412Z" fill="#F24A25"/>
<path d="M58.8654 56.0599C59.0946 56.2877 59.4046 56.4156 59.7278 56.4156C60.0509 56.4156 60.3609 56.2877 60.5901 56.0599L65.1526 51.5586C65.3804 51.3294 65.5083 51.0194 65.5083 50.6962C65.5083 50.3731 65.3804 50.0631 65.1526 49.8339L60.5901 45.2714C60.3598 45.0427 60.048 44.9149 59.7235 44.916C59.3989 44.9172 59.088 45.0472 58.8593 45.2775C58.6306 45.5079 58.5028 45.8196 58.5039 46.1442C58.5051 46.4688 58.6351 46.7796 58.8654 47.0083L62.535 50.6779L58.8654 54.3475C58.6413 54.5761 58.5158 54.8835 58.5158 55.2037C58.5158 55.5239 58.6413 55.8313 58.8654 56.0599Z" fill="#F24A25"/>
<path d="M54.8021 45.6257C54.6625 45.5448 54.5083 45.4924 54.3483 45.4714C54.1883 45.4503 54.0258 45.4612 53.87 45.5032C53.7143 45.5453 53.5684 45.6178 53.4407 45.7165C53.3131 45.8152 53.2063 45.9381 53.1263 46.0783L48.6128 54.0045C48.5243 54.1437 48.4649 54.2994 48.4381 54.4622C48.4113 54.625 48.4177 54.7915 48.457 54.9517C48.4962 55.112 48.5675 55.2626 48.6665 55.3946C48.7654 55.5266 48.8901 55.6372 49.0329 55.7197C49.1757 55.8023 49.3338 55.8551 49.4976 55.875C49.6613 55.8949 49.8274 55.8814 49.9859 55.8355C50.1443 55.7895 50.2918 55.712 50.4195 55.6075C50.5472 55.5031 50.6524 55.3739 50.7289 55.2277L55.2914 47.3382C55.3767 47.1948 55.4319 47.0356 55.4534 46.8702C55.4749 46.7047 55.4624 46.5367 55.4166 46.3763C55.3707 46.2159 55.2926 46.0666 55.1869 45.9375C55.0812 45.8084 54.9503 45.7023 54.8021 45.6257Z" fill="#F24A25"/>
<path d="M85.2111 62.5672C85.139 62.5666 85.0687 62.5441 85.0097 62.5026C84.9507 62.461 84.9058 62.4025 84.8809 62.3348C84.3942 61.0544 83.7044 59.8608 82.8382 58.7998C82.7971 58.7405 82.7752 58.6701 82.7752 58.598C82.7752 58.5258 82.7971 58.4554 82.8382 58.3961C83.2107 57.7504 83.3117 56.9833 83.1191 56.2631C82.9265 55.543 82.4559 54.9288 81.8107 54.5553L80.8933 54.0049V31.6696C80.8933 30.6963 80.5067 29.763 79.8185 29.0748C79.1303 28.3866 78.197 28 77.2238 28H26.6696C25.6963 28 24.763 28.3866 24.0748 29.0748C23.3866 29.763 23 30.6963 23 31.6696V62.665C23.0032 63.4199 23.3045 64.143 23.8383 64.6767C24.3721 65.2105 25.0951 65.5118 25.85 65.5151H42.5709L41.3478 70.0408H39.7209C38.5295 70.0417 37.3732 70.4441 36.4388 71.1832C35.5044 71.9223 34.8465 72.9549 34.5713 74.114H31.5623C31.2379 74.114 30.9268 74.2429 30.6974 74.4723C30.468 74.7017 30.3391 75.0128 30.3391 75.3372C30.3391 75.6616 30.468 75.9728 30.6974 76.2021C30.9268 76.4315 31.2379 76.5604 31.5623 76.5604H62.7168C62.6961 76.8527 62.725 77.1463 62.8024 77.4289C62.8941 77.7877 63.0573 78.1243 63.2822 78.4185C63.5071 78.7128 63.7891 78.9586 64.1112 79.1413L66.6921 80.6336C67.0126 80.8176 67.3661 80.9366 67.7326 80.9839C68.099 81.0312 68.4712 81.0059 68.8279 80.9093C69.1846 80.8128 69.5187 80.6469 69.8113 80.4212C70.1038 80.1955 70.349 79.9144 70.5329 79.5939C70.5726 79.5315 70.6296 79.4821 70.6969 79.4516C70.7643 79.4212 70.8391 79.4111 70.9121 79.4227C72.2558 79.6551 73.6294 79.6551 74.9731 79.4227C75.0475 79.4106 75.1238 79.4217 75.1916 79.4546C75.2595 79.4874 75.3156 79.5403 75.3523 79.6061C75.6016 80.033 75.959 80.3866 76.3885 80.6314C76.8179 80.8762 77.3043 81.0036 77.7986 81.0006C78.2918 81.0053 78.7773 80.8787 79.2053 80.6336L81.7862 79.1413C82.1067 78.9565 82.3873 78.7099 82.6119 78.416C82.8366 78.1221 83.0008 77.7866 83.095 77.4289C83.1924 77.0733 83.2177 76.7018 83.1694 76.3363C83.1211 75.9708 83.0002 75.6186 82.8137 75.3005C82.7716 75.2393 82.7491 75.1668 82.7491 75.0926C82.7491 75.0183 82.7716 74.9458 82.8137 74.8846C83.6773 73.8263 84.3668 72.6371 84.8564 71.3619C84.8797 71.2931 84.9243 71.2336 84.9837 71.1918C85.043 71.1501 85.1141 71.1282 85.1867 71.1295C85.9318 71.1263 86.6455 70.8288 87.1724 70.3019C87.6994 69.775 87.9968 69.0613 88 68.3161V65.3316C87.9873 64.5982 87.6886 63.8987 87.1676 63.3823C86.6467 62.8659 85.9446 62.5735 85.2111 62.5672ZM25.4464 31.6696C25.4464 31.3451 25.5752 31.034 25.8046 30.8046C26.034 30.5752 26.3451 30.4464 26.6696 30.4464H77.2238C77.5482 30.4464 77.8593 30.5752 78.0887 30.8046C78.3181 31.034 78.4469 31.3451 78.4469 31.6696V35.3391H25.4464V31.6696ZM25.85 63.0687C25.797 63.0687 25.7445 63.0582 25.6955 63.038C25.6466 63.0177 25.6021 62.9879 25.5646 62.9505C25.5271 62.913 25.4974 62.8685 25.4771 62.8195C25.4568 62.7705 25.4464 62.718 25.4464 62.665V37.7855H78.4469V52.7817C77.8681 52.628 77.2553 52.6638 76.6983 52.884C76.1413 53.1041 75.6696 53.497 75.3523 54.0049C75.3142 54.0652 75.2588 54.1127 75.1933 54.141C75.1279 54.1694 75.0554 54.1774 74.9853 54.1639C73.6406 53.9437 72.2691 53.9437 70.9244 54.1639C70.8542 54.1792 70.7811 54.1721 70.7153 54.1435C70.6494 54.115 70.5942 54.0665 70.5574 54.0049C70.3737 53.6842 70.1283 53.4031 69.8354 53.1777C69.5425 52.9523 69.2079 52.7871 68.8509 52.6916C68.4939 52.5961 68.1215 52.5721 67.7552 52.6212C67.3889 52.6703 67.0359 52.7913 66.7166 52.9774L64.1357 54.4697C63.8144 54.6505 63.5328 54.8942 63.3079 55.1864C63.083 55.4785 62.9194 55.8131 62.8269 56.1699C62.6313 56.8911 62.728 57.6602 63.096 58.3105C63.1406 58.3683 63.1648 58.4393 63.1648 58.5123C63.1648 58.5854 63.1406 58.6563 63.096 58.7142C62.2297 59.7752 61.54 60.9688 61.0533 62.2492C61.0284 62.3169 60.9834 62.3754 60.9244 62.4169C60.8654 62.4585 60.7952 62.481 60.723 62.4816C60.1239 62.4824 59.5408 62.6753 59.0595 63.032L25.85 63.0687ZM58.4723 70.0408H43.7941L45.0173 65.5151H57.8607V68.3161C57.8686 68.9428 58.0836 69.5492 58.4723 70.0408ZM39.7332 72.4872H61.5058C61.7854 73.0511 62.1042 73.5947 62.4599 74.114H37.1522C37.3832 73.628 37.747 73.2174 38.2015 72.9295C38.6561 72.6416 39.1829 72.4882 39.7209 72.4872H39.7332ZM85.5781 68.3161C85.5781 68.4135 85.5394 68.5068 85.4706 68.5756C85.4018 68.6444 85.3085 68.6831 85.2111 68.6831C84.6414 68.6845 84.0853 68.8582 83.616 69.1812C83.1467 69.5043 82.786 69.9617 82.5813 70.4934C82.1903 71.5247 81.637 72.4868 80.9422 73.3434C80.584 73.7859 80.3678 74.3264 80.3219 74.8939C80.2761 75.4613 80.4028 76.0294 80.6854 76.5237C80.705 76.5658 80.7152 76.6118 80.7152 76.6583C80.7152 76.7048 80.705 76.7507 80.6854 76.7928C80.6747 76.8414 80.654 76.8872 80.6245 76.9272C80.5949 76.9673 80.5574 77.0007 80.5141 77.0252L77.9699 78.4686C77.9274 78.4922 77.8806 78.5072 77.8323 78.5126C77.784 78.518 77.7351 78.5137 77.6884 78.5001C77.6418 78.4864 77.5983 78.4636 77.5605 78.433C77.5227 78.4024 77.4914 78.3646 77.4684 78.3218C77.1792 77.8289 76.7473 77.4352 76.2297 77.1928C75.7122 76.9504 75.1333 76.8706 74.5694 76.9641C73.4926 77.1475 72.3926 77.1475 71.3158 76.9641C70.7507 76.8718 70.1709 76.9534 69.6532 77.198C69.1355 77.4427 68.7043 77.8388 68.4168 78.334C68.366 78.416 68.2859 78.4756 68.1927 78.5006C68.0995 78.5256 68.0003 78.5142 67.9153 78.4686L65.3344 76.9763C65.2912 76.9517 65.2536 76.9183 65.2241 76.8783C65.1946 76.8383 65.1738 76.7925 65.1632 76.7439C65.1435 76.7018 65.1333 76.6558 65.1333 76.6093C65.1333 76.5628 65.1435 76.5169 65.1632 76.4748C65.4425 75.9795 65.5672 75.4121 65.5215 74.8453C65.4757 74.2786 65.2614 73.7385 64.9063 73.2945C64.2053 72.4401 63.6476 71.4776 63.255 70.4445C63.0498 69.9268 62.6944 69.4823 62.2344 69.1684C61.7744 68.8545 61.231 68.6855 60.6741 68.6831C60.5767 68.6831 60.4834 68.6444 60.4146 68.5756C60.3458 68.5068 60.3071 68.4135 60.3071 68.3161V65.3316C60.3054 65.2829 60.3137 65.2344 60.3316 65.1892C60.3494 65.1439 60.3764 65.1027 60.4108 65.0683C60.4452 65.0339 60.4864 65.0069 60.5316 64.9891C60.5769 64.9712 60.6254 64.9629 60.6741 64.9646C61.2421 64.9624 61.7962 64.7883 62.2635 64.4652C62.7307 64.1421 63.0892 63.6851 63.2917 63.1543C63.6815 62.1199 64.2394 61.1569 64.943 60.3043C65.2981 59.8603 65.5124 59.3202 65.5582 58.7535C65.6039 58.1867 65.4792 57.6193 65.1999 57.124C65.1799 57.0798 65.1696 57.0318 65.1696 56.9833C65.1696 56.9348 65.1799 56.8869 65.1999 56.8427C65.2098 56.7954 65.2304 56.751 65.26 56.7128C65.2897 56.6747 65.3277 56.6438 65.3711 56.6225L67.952 55.1302C68.012 55.1135 68.0755 55.1135 68.1355 55.1302C68.1967 55.131 68.2567 55.1471 68.3102 55.177C68.3636 55.2069 68.4086 55.2497 68.4413 55.3015C68.73 55.7955 69.1614 56.1906 69.6787 56.4351C70.1961 56.6796 70.7752 56.762 71.3402 56.6714C72.417 56.488 73.5171 56.488 74.5939 56.6714C75.1627 56.7482 75.7413 56.6516 76.2542 56.394C76.7671 56.1365 77.1903 55.7301 77.4684 55.2281C77.4923 55.1877 77.524 55.1525 77.5616 55.1245C77.5992 55.0965 77.642 55.0762 77.6875 55.0648C77.733 55.0534 77.7803 55.0512 77.8267 55.0582C77.8731 55.0653 77.9176 55.0814 77.9577 55.1058L80.5386 56.598C80.582 56.6193 80.62 56.6502 80.6496 56.6884C80.6793 56.7265 80.6999 56.7709 80.7098 56.8182C80.7297 56.8624 80.74 56.9104 80.74 56.9589C80.74 57.0074 80.7297 57.0553 80.7098 57.0995C80.4283 57.592 80.3022 58.158 80.348 58.7233C80.3938 59.2887 80.6095 59.827 80.9667 60.2676C81.6617 61.1285 82.215 62.0947 82.6058 63.1298C82.7986 63.6705 83.1508 64.1399 83.616 64.4762C84.0811 64.8126 84.6373 64.9999 85.2111 65.0136C85.2598 65.0118 85.3083 65.0202 85.3536 65.038C85.3989 65.0558 85.44 65.0828 85.4744 65.1172C85.5088 65.1516 85.5358 65.1928 85.5536 65.2381C85.5715 65.2834 85.5798 65.3319 85.5781 65.3805V68.3161Z" fill="#F24A25"/>
<path d="M72.9439 61.2715C71.8456 61.2715 70.7719 61.5972 69.8587 62.2074C68.9454 62.8176 68.2337 63.6849 67.8133 64.6996C67.393 65.7143 67.2831 66.8309 67.4973 67.9081C67.7116 68.9854 68.2405 69.9749 69.0171 70.7515C69.7938 71.5281 70.7833 72.057 71.8605 72.2713C72.9377 72.4856 74.0543 72.3756 75.069 71.9553C76.0837 71.535 76.951 70.8232 77.5612 69.91C78.1714 68.9967 78.4971 67.9231 78.4971 66.8247C78.4971 65.3519 77.9121 63.9394 76.8706 62.898C75.8292 61.8566 74.4167 61.2715 72.9439 61.2715ZM72.9439 69.9316C72.3294 69.9316 71.7287 69.7494 71.2178 69.408C70.7069 69.0666 70.3086 68.5814 70.0735 68.0137C69.8383 67.446 69.7768 66.8213 69.8967 66.2186C70.0166 65.6159 70.3125 65.0623 70.747 64.6278C71.1815 64.1933 71.7351 63.8974 72.3378 63.7776C72.9404 63.6577 73.5651 63.7192 74.1328 63.9544C74.7005 64.1895 75.1858 64.5877 75.5272 65.0986C75.8686 65.6096 76.0508 66.2103 76.0508 66.8247C76.0443 67.6445 75.7141 68.4285 75.1322 69.0058C74.5502 69.5832 73.7637 69.9072 72.9439 69.9072V69.9316Z" fill="#F24A25"/>
</svg>
