<svg width="228" height="46" viewBox="0 0 228 46" fill="none" xmlns="http://www.w3.org/2000/svg">
<path d="M86.9933 34.3416C85.9362 34.3416 84.9841 34.1533 84.137 33.7768C83.2971 33.3931 82.631 32.8283 82.1386 32.0825C81.6535 31.3368 81.411 30.4172 81.411 29.3239C81.411 28.3827 81.5847 27.6043 81.9323 26.9889C82.2798 26.3735 82.7541 25.8811 83.355 25.5119C83.956 25.1426 84.633 24.8638 85.386 24.6756C86.1462 24.4801 86.9318 24.3389 87.7427 24.252C88.7202 24.1507 89.513 24.0602 90.1212 23.9805C90.7294 23.8936 91.1711 23.7633 91.4462 23.5895C91.7286 23.4085 91.8698 23.1298 91.8698 22.7533V22.6881C91.8698 21.8699 91.6272 21.2364 91.1421 20.7875C90.657 20.3386 89.9583 20.1141 89.046 20.1141C88.083 20.1141 87.3192 20.3241 86.7544 20.744C86.1969 21.164 85.8204 21.6599 85.6249 22.2319L81.954 21.7106C82.2436 20.697 82.7215 19.8498 83.3876 19.1692C84.0537 18.4814 84.8683 17.9673 85.8312 17.627C86.7942 17.2795 87.8586 17.1057 89.0243 17.1057C89.828 17.1057 90.628 17.1998 91.4245 17.3881C92.2209 17.5763 92.9486 17.8877 93.6075 18.3221C94.2663 18.7493 94.7949 19.3322 95.1931 20.0707C95.5986 20.8092 95.8013 21.7324 95.8013 22.8401V34.0049H92.0218V31.7133H91.8915C91.6526 32.1767 91.3159 32.6111 90.8814 33.0166C90.4543 33.4148 89.9149 33.737 89.2632 33.9832C88.6188 34.2221 87.8622 34.3416 86.9933 34.3416ZM88.0142 31.4526C88.8034 31.4526 89.4877 31.297 90.0669 30.9856C90.6461 30.667 91.0914 30.2471 91.4028 29.7258C91.7213 29.2045 91.8806 28.6361 91.8806 28.0207V26.0549C91.7575 26.1563 91.5476 26.2504 91.2507 26.3373C90.9611 26.4242 90.6353 26.5002 90.2733 26.5653C89.9112 26.6305 89.5528 26.6884 89.198 26.7391C88.8433 26.7898 88.5355 26.8332 88.2749 26.8694C87.6884 26.9491 87.1635 27.0794 86.7001 27.2604C86.2367 27.4414 85.8711 27.6948 85.6032 28.0207C85.3353 28.3392 85.2013 28.752 85.2013 29.2588C85.2013 29.9828 85.4656 30.5295 85.9942 30.8987C86.5227 31.268 87.1961 31.4526 88.0142 31.4526ZM106.695 34.3307C105.03 34.3307 103.6 33.9651 102.405 33.2338C101.217 32.5025 100.302 31.4925 99.6571 30.2037C99.02 28.9076 98.7014 27.4161 98.7014 25.7291C98.7014 24.0348 99.0272 22.5397 99.6788 21.2436C100.33 19.9403 101.25 18.9267 102.437 18.2026C103.632 17.4714 105.044 17.1057 106.673 17.1057C108.027 17.1057 109.225 17.3555 110.268 17.8551C111.318 18.3475 112.154 19.0462 112.777 19.9512C113.399 20.849 113.754 21.8989 113.841 23.1008H110.083C109.931 22.2971 109.569 21.6274 108.997 21.0916C108.433 20.5485 107.676 20.277 106.727 20.277C105.924 20.277 105.218 20.4942 104.61 20.9287C104.001 21.3559 103.527 21.9713 103.187 22.775C102.854 23.5787 102.687 24.5416 102.687 25.6639C102.687 26.8007 102.854 27.7781 103.187 28.5963C103.52 29.4072 103.987 30.0335 104.588 30.4752C105.196 30.9096 105.909 31.1268 106.727 31.1268C107.307 31.1268 107.824 31.0182 108.28 30.801C108.744 30.5765 109.131 30.2543 109.443 29.8344C109.754 29.4145 109.967 28.904 110.083 28.303H113.841C113.747 29.4832 113.399 30.5295 112.798 31.4418C112.198 32.3468 111.379 33.0564 110.344 33.5705C109.309 34.0773 108.092 34.3307 106.695 34.3307ZM121.533 34.3416C120.476 34.3416 119.524 34.1533 118.677 33.7768C117.837 33.3931 117.171 32.8283 116.679 32.0825C116.194 31.3368 115.951 30.4172 115.951 29.3239C115.951 28.3827 116.125 27.6043 116.472 26.9889C116.82 26.3735 117.294 25.8811 117.895 25.5119C118.496 25.1426 119.173 24.8638 119.926 24.6756C120.686 24.4801 121.472 24.3389 122.283 24.252C123.26 24.1507 124.053 24.0602 124.661 23.9805C125.269 23.8936 125.711 23.7633 125.986 23.5895C126.269 23.4085 126.41 23.1298 126.41 22.7533V22.6881C126.41 21.8699 126.167 21.2364 125.682 20.7875C125.197 20.3386 124.498 20.1141 123.586 20.1141C122.623 20.1141 121.859 20.3241 121.294 20.744C120.737 21.164 120.36 21.6599 120.165 22.2319L116.494 21.7106C116.784 20.697 117.262 19.8498 117.928 19.1692C118.594 18.4814 119.408 17.9673 120.371 17.627C121.334 17.2795 122.399 17.1057 123.564 17.1057C124.368 17.1057 125.168 17.1998 125.965 17.3881C126.761 17.5763 127.489 17.8877 128.148 18.3221C128.806 18.7493 129.335 19.3322 129.733 20.0707C130.139 20.8092 130.341 21.7324 130.341 22.8401V34.0049H126.562V31.7133H126.432C126.193 32.1767 125.856 32.6111 125.422 33.0166C124.994 33.4148 124.455 33.737 123.803 33.9832C123.159 34.2221 122.402 34.3416 121.533 34.3416ZM122.554 31.4526C123.344 31.4526 124.028 31.297 124.607 30.9856C125.186 30.667 125.632 30.2471 125.943 29.7258C126.261 29.2045 126.421 28.6361 126.421 28.0207V26.0549C126.298 26.1563 126.088 26.2504 125.791 26.3373C125.501 26.4242 125.175 26.5002 124.813 26.5653C124.451 26.6305 124.093 26.6884 123.738 26.7391C123.383 26.7898 123.076 26.8332 122.815 26.8694C122.229 26.9491 121.704 27.0794 121.24 27.2604C120.777 27.4414 120.411 27.6948 120.143 28.0207C119.875 28.3392 119.741 28.752 119.741 29.2588C119.741 29.9828 120.006 30.5295 120.534 30.8987C121.063 31.268 121.736 31.4526 122.554 31.4526ZM140.149 34.2981C138.838 34.2981 137.665 33.9614 136.63 33.2881C135.595 32.6147 134.776 31.6373 134.175 30.3557C133.575 29.0741 133.274 27.5175 133.274 25.6856C133.274 23.8321 133.578 22.2681 134.186 20.9938C134.802 19.7123 135.631 18.7457 136.673 18.094C137.716 17.4352 138.878 17.1057 140.16 17.1057C141.137 17.1057 141.941 17.2722 142.571 17.6053C143.201 17.9311 143.7 18.3257 144.07 18.7891C144.439 19.2453 144.725 19.6761 144.928 20.0815H145.09V11.7623H149.033V34.0049H145.166V31.3766H144.928C144.725 31.7821 144.432 32.2129 144.048 32.669C143.664 33.1179 143.157 33.5017 142.527 33.8203C141.897 34.1388 141.105 34.2981 140.149 34.2981ZM141.246 31.0725C142.078 31.0725 142.788 30.8481 143.374 30.3991C143.961 29.943 144.406 29.3095 144.71 28.4985C145.014 27.6876 145.166 26.7427 145.166 25.6639C145.166 24.5851 145.014 23.6474 144.71 22.851C144.413 22.0546 143.972 21.4355 143.385 20.9938C142.806 20.5522 142.093 20.3313 141.246 20.3313C140.37 20.3313 139.638 20.5594 139.052 21.0156C138.465 21.4717 138.024 22.1016 137.727 22.9053C137.43 23.709 137.282 24.6285 137.282 25.6639C137.282 26.7065 137.43 27.6369 137.727 28.4551C138.031 29.266 138.476 29.9068 139.063 30.3774C139.656 30.8408 140.384 31.0725 141.246 31.0725ZM160.271 34.3307C158.599 34.3307 157.154 33.9832 155.938 33.2881C154.729 32.5858 153.798 31.5938 153.147 30.3123C152.495 29.0235 152.169 27.5066 152.169 25.7617C152.169 24.0457 152.495 22.5397 153.147 21.2436C153.805 19.9403 154.725 18.9267 155.905 18.2026C157.085 17.4714 158.472 17.1057 160.065 17.1057C161.093 17.1057 162.063 17.2722 162.975 17.6053C163.895 17.9311 164.706 18.438 165.408 19.1258C166.118 19.8136 166.675 20.6897 167.081 21.7541C167.486 22.8112 167.689 24.071 167.689 25.5336V26.7391H154.015V24.0891H163.92C163.913 23.3361 163.75 22.6664 163.432 22.0799C163.113 21.4862 162.668 21.0192 162.096 20.6789C161.531 20.3386 160.872 20.1684 160.119 20.1684C159.315 20.1684 158.609 20.3639 158.001 20.7549C157.393 21.1386 156.919 21.6455 156.579 22.2754C156.245 22.8981 156.075 23.5823 156.068 24.328V26.6414C156.068 27.6116 156.245 28.4442 156.6 29.1393C156.955 29.8272 157.451 30.3557 158.088 30.725C158.725 31.087 159.471 31.268 160.325 31.268C160.897 31.268 161.415 31.1884 161.879 31.0291C162.342 30.8625 162.744 30.62 163.084 30.3014C163.424 29.9828 163.681 29.5882 163.855 29.1176L167.526 29.5303C167.294 30.5005 166.853 31.3476 166.201 32.0717C165.557 32.7885 164.731 33.346 163.725 33.7442C162.718 34.1352 161.567 34.3307 160.271 34.3307ZM170.679 34.0049V17.3229H174.436V20.1576H174.632C174.979 19.2018 175.555 18.4561 176.359 17.9203C177.162 17.3772 178.122 17.1057 179.237 17.1057C180.366 17.1057 181.318 17.3809 182.093 17.9311C182.875 18.4742 183.425 19.2163 183.744 20.1576H183.918C184.287 19.2308 184.91 18.4923 185.786 17.942C186.669 17.3845 187.715 17.1057 188.925 17.1057C190.459 17.1057 191.712 17.5908 192.682 18.561C193.653 19.5313 194.138 20.9468 194.138 22.8076V34.0049H190.195V23.4158C190.195 22.3804 189.92 21.6237 189.37 21.1459C188.82 20.6608 188.146 20.4182 187.35 20.4182C186.401 20.4182 185.659 20.7151 185.123 21.3088C184.595 21.8953 184.33 22.6591 184.33 23.6004V34.0049H180.475V23.2528C180.475 22.3912 180.214 21.7034 179.693 21.1893C179.179 20.6753 178.506 20.4182 177.673 20.4182C177.108 20.4182 176.594 20.563 176.131 20.8526C175.667 21.135 175.298 21.5369 175.023 22.0582C174.748 22.5722 174.61 23.1732 174.61 23.861V34.0049H170.679ZM199.636 40.2606C199.1 40.2606 198.604 40.2172 198.148 40.1303C197.699 40.0506 197.341 39.9565 197.073 39.8479L197.985 36.7852C198.557 36.9517 199.068 37.0314 199.517 37.0241C199.966 37.0169 200.36 36.8757 200.7 36.6006C201.048 36.3327 201.341 35.8838 201.58 35.2539L201.917 34.3524L195.867 17.3229H200.038L203.883 29.9213H204.056L207.912 17.3229H212.093L205.414 36.025C205.103 36.9083 204.69 37.6649 204.176 38.2948C203.662 38.932 203.032 39.4171 202.286 39.7502C201.548 40.0905 200.664 40.2606 199.636 40.2606Z" fill="#F24A25"/>
<path fill-rule="evenodd" clip-rule="evenodd" d="M19.6917 8.33887C20.9468 8.356 21.9748 8.37314 21.979 8.37742C21.9833 8.37742 21.8163 9.13557 21.238 11.7227L18.9165 11.7356C17.64 11.7398 16.5949 11.7398 16.5949 11.7356C16.5949 11.727 16.7662 10.9817 16.9804 10.0736C17.1946 9.16555 17.3787 8.39884 17.3916 8.36457C17.413 8.31745 17.7942 8.31317 19.6917 8.33887ZM14.7316 12.6907L14.6845 12.9135C14.6588 13.0377 14.0292 15.6377 13.2924 18.6917C12.5514 21.75 11.956 24.26 11.9689 24.2729C11.9817 24.2857 12.3415 24.29 13.5537 24.2515L13.5923 24.093C13.618 24.003 14.012 22.3497 14.4746 20.4179C14.9372 18.4861 15.3313 16.8927 15.3442 16.8756C15.3613 16.8584 16.4064 16.8456 19.9659 16.8627L18.5909 22.521C17.8328 25.635 17.2074 28.1921 17.1946 28.205C17.1817 28.2178 14.0592 28.2307 10.2556 28.2392C4.70008 28.2521 3.26945 28.2435 2.99532 28.2007C2.80685 28.1707 2.5113 28.1065 2.33997 28.0593C2.16863 28.0165 1.9202 27.9223 1.78313 27.8537C1.63322 27.7809 1.45332 27.6353 1.31197 27.4811C1.17918 27.3355 1.04212 27.1299 0.990718 26.9928C0.905051 26.7829 0.896484 26.6758 0.896484 26.029C0.900768 25.4251 0.917901 25.1938 1.01642 24.6798C1.07638 24.3371 1.26485 23.5404 1.4319 22.9022C1.59895 22.2683 1.96303 20.8419 2.24145 19.7325C2.52415 18.6274 2.80685 17.4452 2.99532 16.4986H5.27405C7.42857 16.4986 7.55707 16.5029 7.53565 16.5757C7.52708 16.6143 7.12873 18.3276 6.65757 20.375C6.18212 22.4268 5.78805 24.1444 5.75807 24.2943H7.3429L7.39002 24.1144C7.41143 24.0116 7.4714 23.806 7.51423 23.6518C7.56135 23.4976 7.68128 23.0179 7.78837 22.581C7.89545 22.1441 8.15673 21.009 8.3709 20.0538C8.58507 19.0986 8.962 17.4324 9.20615 16.3487C9.4503 15.265 9.71158 14.0828 9.7844 13.7273C9.85293 13.3675 9.94288 13.0163 9.97715 12.9435C10.0114 12.8749 10.0928 12.785 10.1571 12.7507C10.2556 12.6993 10.6325 12.6907 14.7316 12.6907Z" fill="#1B94D1"/>
<path fill-rule="evenodd" clip-rule="evenodd" d="M15.0166 6.08789L16.1988 6.11787C16.8499 6.13501 17.3896 6.15214 17.4024 6.16499C17.4153 6.17356 17.2225 6.64472 16.9784 7.21869C16.7342 7.78837 16.5243 8.26382 16.5158 8.27667C16.5029 8.28952 16.4729 8.26811 16.4472 8.22956C16.4172 8.19101 16.2887 8.07107 15.9247 7.76696L15.5392 8.02824C15.325 8.17387 14.8624 8.49512 14.5112 8.74356C14.1556 8.99199 13.2604 9.63877 12.5194 10.1828C11.7784 10.7267 10.9003 11.3735 10.5705 11.6177C10.2407 11.8618 9.21696 12.6114 8.30032 13.2839C7.37941 13.9521 6.42422 14.6546 6.16722 14.8387C5.91451 15.0229 5.58897 15.2328 5.43906 15.3099C5.27629 15.3913 5.06641 15.4555 4.89508 15.477C4.74088 15.4984 4.38964 15.5112 4.11123 15.5155C3.81996 15.5155 3.60151 15.4984 3.58866 15.4727C3.57581 15.447 3.72573 15.2971 3.91848 15.1386C4.11551 14.9758 4.42819 14.7274 4.61666 14.586C4.80513 14.4447 5.32341 14.072 5.77316 13.7593C6.21862 13.4424 8.44596 11.8618 10.7204 10.247C12.9949 8.63219 14.9652 7.23154 15.098 7.13731C15.325 6.98311 15.3421 6.95741 15.3207 6.84176C15.3079 6.76894 15.235 6.57191 15.1579 6.40057L15.0166 6.08789Z" fill="#F7254B"/>
<path fill-rule="evenodd" clip-rule="evenodd" d="M75.825 11.4729L75.8244 11.4729C75.486 11.4643 75.2505 11.4814 75.1391 11.52C75.0449 11.55 74.8435 11.6399 74.6893 11.717C74.5266 11.7984 74.2996 11.9697 74.1496 12.1196C73.9997 12.2696 73.8284 12.4966 73.7513 12.6508C73.6785 12.7964 73.5885 13.0363 73.55 13.1862C73.4986 13.3789 73.4857 13.5631 73.4986 13.8587C73.5157 14.1414 73.5543 14.347 73.6185 14.5226C73.6742 14.6639 73.7984 14.8952 73.8969 15.0366C73.9954 15.1779 74.1882 15.3878 74.3295 15.4992C74.4666 15.6106 74.7279 15.7648 74.9035 15.8376C75.1648 15.9447 75.3019 15.9746 75.6317 15.9918C75.9229 16.0046 76.1114 15.9918 76.3042 15.9404C76.4541 15.9018 76.6897 15.8162 76.831 15.7433C76.9724 15.6748 77.1994 15.5035 77.3364 15.3707C77.4735 15.2336 77.6406 15.028 77.7091 14.9081C77.7776 14.7924 77.8804 14.574 77.9318 14.4284C78.0089 14.2185 78.0303 14.0686 78.0303 13.743C78.0303 13.4432 78.0089 13.2547 77.949 13.0877C77.9061 12.9592 77.8162 12.745 77.7519 12.6165C77.6834 12.488 77.5121 12.261 77.3707 12.1196C77.178 11.9226 77.0066 11.807 76.7239 11.6699C76.3386 11.4815 76.3341 11.4814 75.825 11.4729ZM70.7915 17.5209C70.4017 17.4867 69.7292 17.4524 69.2923 17.4395C68.8554 17.431 68.3757 17.431 68.2215 17.4395C68.0673 17.4481 67.7118 17.4738 67.4291 17.4995C67.1464 17.5252 66.6966 17.5766 66.4311 17.6194C66.0284 17.6794 65.9513 17.7051 65.9513 17.7694C65.9513 17.8079 66.0756 18.6089 66.2298 19.5469C66.2727 19.8002 66.3138 20.043 66.3511 20.263C66.4511 20.8544 66.5234 21.2813 66.5296 21.3031C66.5467 21.3417 66.6024 21.3245 66.7309 21.2517C66.8337 21.196 67.0864 21.0889 67.3006 21.0118C67.5105 20.939 67.8703 20.8491 68.093 20.8105C68.38 20.7591 68.7612 20.7377 69.378 20.7377C70.1661 20.7377 70.3118 20.7506 70.8001 20.8534C71.0999 20.9176 71.4768 21.0204 71.6353 21.0804C71.7938 21.1403 72.0594 21.2603 72.2221 21.3459C72.402 21.4402 72.6419 21.6244 72.8218 21.8043C73.0188 21.997 73.1816 22.2112 73.2801 22.4039C73.3658 22.571 73.4686 22.8451 73.5071 23.0164C73.5457 23.1835 73.5757 23.479 73.5757 23.6675C73.5757 23.9759 73.5671 24.0059 73.4986 23.9845C73.4721 23.9757 73.3105 23.9285 73.0981 23.8665C73.0011 23.8382 72.8934 23.8068 72.7833 23.7746C72.4277 23.6718 71.948 23.5519 71.7124 23.5047C71.4768 23.4576 71.0442 23.3934 70.7487 23.3677C70.4103 23.3334 69.8063 23.3248 69.121 23.3377C68.3671 23.3505 67.9088 23.3805 67.6433 23.4319C67.4291 23.4705 67.1421 23.5304 67.0008 23.5647C66.8594 23.599 66.551 23.6975 66.3154 23.7789C66.0798 23.8645 65.7243 24.0145 65.523 24.113C65.3217 24.2158 65.0047 24.4 64.8163 24.5242C64.6278 24.6527 64.3322 24.8925 64.1566 25.0596C63.981 25.2224 63.724 25.5136 63.5827 25.7021C63.4413 25.8906 63.2529 26.199 63.1629 26.3874C63.073 26.5759 62.9573 26.8457 62.9102 26.9871C62.8588 27.1284 62.7945 27.4197 62.7603 27.6296C62.726 27.8438 62.696 28.2164 62.696 28.4648C62.696 28.7133 62.726 29.0774 62.7603 29.2787C62.7945 29.48 62.8545 29.7584 62.893 29.8998C62.9316 30.0411 63.0387 30.3195 63.1329 30.5208C63.2229 30.7222 63.3899 31.022 63.5013 31.1848C63.6127 31.3518 63.8568 31.6474 64.0453 31.8444C64.2337 32.0371 64.5122 32.2941 64.6664 32.4055C64.8206 32.5169 65.1161 32.7096 65.3303 32.8296C65.5401 32.9495 65.8828 33.1165 66.0884 33.1979C66.294 33.2793 66.641 33.395 66.8594 33.4506C67.0779 33.5106 67.4891 33.5877 67.7718 33.6263C68.1573 33.6819 68.4485 33.6948 68.9497 33.6777C69.3609 33.6648 69.7806 33.622 70.0505 33.5663C70.2946 33.5149 70.6502 33.4164 70.8429 33.3478C71.0399 33.275 71.3098 33.1551 71.4426 33.078C71.5796 33.0052 71.8666 32.8167 72.0851 32.6625C72.2992 32.5083 72.6719 32.1956 72.9075 31.9686C73.2373 31.6474 73.3658 31.5488 73.4557 31.5488H73.5757V33.1765H77.8162C77.8162 25.5265 77.799 23.5005 77.7691 23.1963C77.7476 22.9265 77.6962 22.5496 77.6577 22.3611C77.6234 22.1726 77.5463 21.8642 77.4864 21.6758C77.4264 21.4873 77.3022 21.1618 77.2079 20.9476C77.1137 20.7377 76.9338 20.4079 76.8096 20.2194C76.6811 20.031 76.4369 19.7226 76.2656 19.5341C76.09 19.3456 75.8116 19.0972 75.6488 18.9773C75.486 18.8616 75.1519 18.6646 74.9035 18.5361C74.6551 18.4119 74.2139 18.232 73.9183 18.1377C73.6228 18.0392 73.1902 17.9193 72.9546 17.8636C72.719 17.8079 72.295 17.7222 72.0123 17.6751C71.7296 17.6237 71.1813 17.5552 70.7915 17.5209ZM44.3291 17.5595C44.0807 17.5209 43.5495 17.4867 43.0141 17.4781C42.5172 17.4695 41.9604 17.4824 41.7719 17.5038C41.5835 17.5252 41.2665 17.5723 41.0652 17.6066C40.8639 17.6451 40.4998 17.7351 40.2514 17.8079C40.0029 17.8807 39.5617 18.0478 39.2662 18.1806C38.9706 18.3133 38.5552 18.5275 38.3453 18.656C38.1311 18.7845 37.7842 19.0158 37.5743 19.17C37.3601 19.3285 36.996 19.6455 36.7562 19.881C36.5206 20.1123 36.2079 20.4593 36.0665 20.6478C35.9252 20.8362 35.7196 21.1318 35.6082 21.3031C35.5011 21.4702 35.3255 21.7786 35.2227 21.9884C35.1199 22.194 34.9657 22.5538 34.8843 22.7894C34.803 23.025 34.6916 23.372 34.6402 23.5604C34.5888 23.7489 34.5203 24.0659 34.486 24.2672C34.4517 24.4685 34.4132 24.9311 34.4003 25.2952C34.3832 25.6935 34.3918 26.1476 34.4218 26.4303C34.4475 26.6915 34.5074 27.0942 34.5588 27.3298C34.6059 27.5653 34.7002 27.9337 34.773 28.1436C34.8415 28.3578 35.0214 28.7818 35.1671 29.0859C35.317 29.3943 35.544 29.8055 35.6768 30.0068C35.8096 30.2082 36.0794 30.5637 36.2721 30.795C36.4692 31.0306 36.8161 31.3775 37.0389 31.5703C37.2616 31.763 37.6385 32.05 37.8741 32.2085C38.1097 32.367 38.5337 32.6068 38.8164 32.7482C39.0991 32.8852 39.5617 33.0823 39.8444 33.1765C40.1271 33.275 40.5598 33.3992 40.8082 33.4549C41.0566 33.5106 41.4593 33.5791 41.7077 33.6091C41.9561 33.6391 42.5601 33.6648 43.0569 33.6648C43.6952 33.6648 44.1064 33.6434 44.4704 33.5877C44.7531 33.5492 45.1087 33.4849 45.2629 33.4506C45.4171 33.4164 45.704 33.3393 45.9054 33.275C46.1067 33.2151 46.4708 33.078 46.7192 32.9752C46.9676 32.8681 47.3617 32.6625 47.5973 32.5212C47.8329 32.3798 48.1712 32.1571 48.3469 32.0286C48.5225 31.9001 48.9465 31.5146 49.2892 31.1676C49.6918 30.7607 50.0259 30.3795 50.2401 30.0711C50.42 29.8141 50.5699 29.5828 50.5742 29.5571C50.5742 29.5357 49.7989 29.1502 48.8523 28.7047C47.9014 28.2592 47.0961 27.8909 47.0619 27.878C47.019 27.8652 46.9248 27.968 46.7834 28.1736C46.6635 28.3449 46.4236 28.6276 46.248 28.7989C46.0724 28.9746 45.8111 29.2016 45.6698 29.3044C45.5284 29.4029 45.2286 29.5742 45.0059 29.677C44.7831 29.7841 44.4662 29.8998 44.3077 29.9383C44.1492 29.9769 43.7937 30.0283 43.5153 30.0582C43.134 30.0968 42.8985 30.0968 42.5429 30.0582C42.2817 30.0325 41.8876 29.964 41.6649 29.9083C41.4421 29.8526 41.0738 29.7156 40.851 29.6085C40.6283 29.5014 40.3113 29.3087 40.1443 29.1844C39.9815 29.0602 39.7331 28.8204 39.5874 28.6533C39.4461 28.482 39.2491 28.2121 39.1548 28.0536C39.0563 27.8909 38.9278 27.6125 38.8679 27.4368C38.8079 27.2612 38.7351 27.0214 38.7094 26.9014C38.6976 26.8382 38.6821 26.7672 38.669 26.7075C38.6581 26.658 38.649 26.6163 38.6451 26.593L38.6237 26.4945H50.7884C50.8355 26.1775 50.8483 25.7706 50.844 25.3808C50.8398 24.9911 50.8141 24.4813 50.7884 24.2458C50.7584 24.0102 50.7027 23.6332 50.6556 23.4105C50.6085 23.1878 50.4928 22.7637 50.3943 22.4682C50.2958 22.1726 50.0945 21.7015 49.9531 21.4188C49.8118 21.1361 49.5847 20.7506 49.452 20.5621C49.3192 20.3736 49.0236 20.0181 48.7923 19.774C48.5567 19.5298 48.2226 19.2171 48.047 19.0843C47.8714 18.9516 47.5887 18.7588 47.4259 18.656C47.2589 18.5532 46.9248 18.3733 46.6764 18.2577C46.4279 18.142 46.0638 17.9878 45.8625 17.9193C45.6612 17.8507 45.3271 17.7565 45.1215 17.7137C44.9159 17.6666 44.5604 17.598 44.3291 17.5595ZM62.5675 17.5638C62.3662 17.5252 61.925 17.4867 61.5823 17.4781C61.2397 17.4695 60.9142 17.4695 60.8542 17.4824C60.7942 17.4909 60.5843 17.5295 60.383 17.5723C60.1817 17.6109 59.8562 17.7051 59.6549 17.7779C59.4535 17.855 59.1323 17.9964 58.9352 18.0949C58.7425 18.1891 58.4727 18.339 58.3356 18.429C58.2028 18.5147 57.9287 18.7203 57.7316 18.8873C57.5346 19.0544 57.2648 19.3285 57.1363 19.4913C57.0078 19.6583 56.8707 19.8553 56.8321 19.9324C56.7765 20.0481 56.7379 20.0695 56.6222 20.0695H56.4852V17.9707H52.4589V33.1765H56.7422C56.7422 27.2912 56.7593 25.4622 56.785 25.2095C56.8064 24.9611 56.875 24.567 56.9349 24.3314C56.9992 24.0659 57.132 23.7232 57.2733 23.4319C57.4104 23.1621 57.6245 22.8194 57.7787 22.6267C57.9287 22.4425 58.19 22.1855 58.3699 22.057C58.5455 21.9242 58.7768 21.77 58.8839 21.7186C58.9909 21.6672 59.2308 21.573 59.4193 21.5087C59.6077 21.4487 59.9247 21.3759 60.126 21.3502C60.3316 21.3202 60.7214 21.3117 61.0255 21.3245C61.3339 21.3374 61.7066 21.3845 61.9036 21.4359C62.0921 21.483 62.3491 21.5644 62.4733 21.6201C62.6361 21.6886 62.7089 21.7057 62.7303 21.6672C62.7474 21.6415 63.0087 20.8277 63.3171 19.8553L63.8739 18.0906C63.7069 17.9664 63.497 17.8636 63.2957 17.7822C63.0944 17.7008 62.7688 17.6023 62.5675 17.5638ZM74.8435 12.1402C74.9591 12.076 75.1605 11.9946 75.289 11.9603C75.4432 11.9132 75.6359 11.8961 75.8458 11.9089C76.0214 11.9175 76.2741 11.9646 76.4026 12.016C76.5311 12.0631 76.7324 12.1745 76.8524 12.2644C76.968 12.3544 77.1094 12.4743 77.1651 12.5343C77.2207 12.5943 77.3235 12.757 77.3921 12.8984C77.4606 13.0397 77.542 13.2924 77.5677 13.4552C77.6062 13.6865 77.6062 13.8193 77.5677 14.0335C77.542 14.1877 77.4606 14.4275 77.3921 14.5689C77.315 14.7316 77.1822 14.9072 77.0323 15.04C76.9038 15.16 76.6939 15.3056 76.5697 15.3699C76.4412 15.4341 76.2013 15.5069 76.0385 15.5326C75.8758 15.5583 75.6702 15.5669 75.5888 15.554C75.5074 15.5412 75.3532 15.5069 75.2461 15.4812C75.139 15.4555 74.9463 15.3741 74.8178 15.297C74.6893 15.2199 74.5051 15.0614 74.4066 14.9501C74.3124 14.8344 74.1924 14.6631 74.141 14.5689C74.0939 14.4746 74.0339 14.329 74.0082 14.2476C73.9825 14.1662 73.9526 14.0035 73.9397 13.8835C73.9226 13.7508 73.9354 13.5494 73.9783 13.3481C74.0168 13.1725 74.0982 12.9412 74.1624 12.8341C74.2267 12.727 74.3595 12.5557 74.458 12.4486C74.5565 12.3415 74.7321 12.2045 74.8435 12.1402ZM41.365 21.0153C41.5192 20.9639 41.7676 20.8953 41.9218 20.8611C42.1188 20.8225 42.4187 20.8097 42.9498 20.8225C43.4124 20.8311 43.7979 20.8611 43.9564 20.8996C44.0977 20.9382 44.359 21.0238 44.5346 21.0924C44.7103 21.1609 44.9801 21.2937 45.1343 21.3836C45.2885 21.4736 45.5841 21.7177 45.8025 21.9319C46.0766 22.2103 46.2308 22.4074 46.3422 22.6215C46.4279 22.7886 46.5264 23.007 46.5607 23.1141C46.5949 23.2212 46.6335 23.3797 46.6763 23.6281H38.8806L38.9063 23.5082C38.9192 23.4439 38.9877 23.2683 39.0563 23.1141C39.1291 22.9599 39.2876 22.6815 39.4161 22.493C39.5403 22.3046 39.7544 22.0433 39.8915 21.9105C40.0329 21.782 40.2599 21.5978 40.4012 21.4993C40.5426 21.4051 40.7525 21.2808 40.8724 21.2209C40.988 21.1609 41.2108 21.071 41.365 21.0153ZM68.6712 26.4808C68.7869 26.4423 69.0096 26.3866 69.1638 26.3523C69.3437 26.3138 69.7249 26.2881 70.256 26.2881C70.8043 26.2838 71.1898 26.3052 71.434 26.348C71.6353 26.3823 72.0293 26.4808 72.312 26.5622C72.5947 26.6436 72.9888 26.7764 73.5542 27.0034L73.5414 27.2775C73.5328 27.4274 73.4985 27.663 73.46 27.8044C73.4257 27.9457 73.3358 28.1941 73.2587 28.3612C73.1816 28.5282 73.0573 28.7595 72.976 28.8752C72.8946 28.9951 72.7318 29.1922 72.6119 29.3207C72.4962 29.4449 72.2821 29.6333 72.1407 29.7319C71.9994 29.8304 71.7209 29.9974 71.5196 30.0959C71.3183 30.1945 70.9714 30.3272 70.7486 30.3872C70.4188 30.4729 70.2389 30.4943 69.7849 30.4986C69.4765 30.4986 69.1124 30.4772 68.971 30.4472C68.8297 30.4172 68.607 30.3487 68.4785 30.2973C68.35 30.2501 68.1272 30.1431 67.9859 30.0617C67.8445 29.9803 67.6261 29.8047 67.5019 29.6719C67.3734 29.5391 67.2192 29.3249 67.1592 29.1964C67.0564 28.9823 67.0435 28.9137 67.0435 28.4683C67.0435 27.9928 67.0478 27.9628 67.1935 27.6759C67.2877 27.4831 67.4333 27.2861 67.6004 27.119C67.746 26.9734 67.9902 26.7935 68.1572 26.7078C68.3243 26.6222 68.5513 26.5194 68.6712 26.4808Z" fill="#100E2E"/>
<path fill-rule="evenodd" clip-rule="evenodd" d="M74.8169 14.8343V13.6564V12.4785H75.5108C76.1147 12.4785 76.2347 12.4914 76.3889 12.5642C76.4917 12.6113 76.6116 12.7098 76.6587 12.7869C76.7101 12.8726 76.7444 13.0054 76.7444 13.1082C76.7444 13.211 76.7144 13.3566 76.6801 13.4294C76.6402 13.5236 76.5516 13.6065 76.4146 13.6778C76.3573 13.7087 76.3023 13.7372 76.2607 13.7589C76.2213 13.7793 76.1938 13.7936 76.1876 13.7978C76.1747 13.8063 76.2218 13.8535 76.2946 13.9091C76.3675 13.9605 76.5345 14.179 76.6673 14.3889C76.8044 14.5988 76.9157 14.7829 76.9157 14.8044C76.9157 14.8215 76.7915 14.8343 76.3589 14.8343L76.1105 14.4403C75.9691 14.2218 75.8021 13.9991 75.7335 13.9434C75.6521 13.8792 75.5536 13.8449 75.2881 13.8492V14.8343H74.8169ZM75.28 13.1946C75.2757 13.0447 75.2886 12.9076 75.31 12.8948C75.3314 12.8776 75.4856 12.8648 75.6612 12.8648C75.8326 12.8648 76.021 12.8862 76.081 12.9076C76.141 12.9333 76.2095 12.9933 76.2352 13.049C76.2737 13.1175 76.2737 13.1775 76.2395 13.2717C76.2095 13.3445 76.1452 13.4131 76.0938 13.4302C76.0382 13.4473 75.8368 13.4645 75.2886 13.4645L75.28 13.1946Z" fill="#100E2E"/>
<path fill-rule="evenodd" clip-rule="evenodd" d="M18.5649 11.9146C19.6443 11.9146 23.1867 11.9274 32.3616 11.9788L32.2074 12.2786C32.126 12.4457 31.9247 12.8012 31.7576 13.071C31.5906 13.3409 31.3593 13.7178 31.235 13.9063C31.1151 14.0948 30.6268 14.8358 30.1556 15.5554C29.6845 16.275 29.1748 17.076 29.0206 17.333C28.8664 17.5942 28.6608 17.9626 28.5622 18.1596C28.4637 18.3524 28.3909 18.5194 28.3952 18.528C28.4038 18.5366 28.6308 18.6479 28.9006 18.7764C29.1705 18.9092 29.526 19.1105 29.693 19.2262C29.8558 19.3461 30.1342 19.5731 30.3098 19.7359C30.4855 19.8987 30.7339 20.1685 30.871 20.3313C31.0037 20.4983 31.1922 20.7468 31.2864 20.8881C31.3807 21.0295 31.5691 21.3593 31.6976 21.6163C31.8304 21.8776 32.0018 22.2888 32.0874 22.5372C32.1688 22.7856 32.2845 23.2268 32.3444 23.5224C32.4044 23.8179 32.4729 24.2805 32.5029 24.5504C32.5329 24.8502 32.5415 25.2828 32.5243 25.664C32.5072 26.0067 32.4644 26.4864 32.4301 26.7349C32.3958 26.9833 32.323 27.3774 32.2673 27.613C32.2074 27.8485 32.0917 28.234 32.006 28.4696C31.9204 28.7052 31.7533 29.0821 31.6334 29.3049C31.5177 29.5276 31.3164 29.866 31.1922 30.0545C31.0637 30.2429 30.841 30.5342 30.6911 30.7055C30.5411 30.8769 30.2584 31.1596 30.0571 31.3437C29.8558 31.5236 29.5174 31.7892 29.3075 31.9306C29.0934 32.0762 28.7207 32.2904 28.4723 32.4146C28.2239 32.5388 27.8212 32.7058 27.5728 32.7915C27.3244 32.8729 26.8832 32.9928 26.5876 33.0485C26.2364 33.1213 25.7609 33.177 25.217 33.207C24.7501 33.2327 23.0153 33.2584 21.2977 33.2627C19.6015 33.2627 14.1231 33.2584 9.12448 33.2455C4.12584 33.2327 0.0224052 33.2113 0.000988549 33.1899C-0.0161448 33.1727 0.185172 32.2175 0.939038 28.9836H12.9795C22.5956 28.9836 25.1099 28.9708 25.4525 28.9279C25.6881 28.898 25.9965 28.8423 26.1379 28.808C26.2792 28.7737 26.5277 28.6924 26.6947 28.6324C26.8575 28.5681 27.1102 28.4396 27.2515 28.3411C27.3929 28.2426 27.5985 28.0499 27.7141 27.9085C27.8255 27.7714 27.9754 27.5401 28.044 27.3988C28.1125 27.2574 28.211 26.9876 28.2624 26.7991C28.3481 26.495 28.3609 26.3494 28.3609 25.5355C28.3652 24.8031 28.3481 24.5504 28.2881 24.2934C28.2496 24.1178 28.1468 23.8265 28.0611 23.6509C27.9754 23.4753 27.8384 23.244 27.757 23.1369C27.6756 23.0298 27.5128 22.8585 27.3886 22.7557C27.2644 22.6529 27.0888 22.5244 26.9945 22.473C26.9003 22.4173 26.6476 22.3145 26.4377 22.2374C26.2235 22.1646 25.8295 22.0618 25.5596 22.0146C25.127 21.9375 24.8315 21.9204 21.3577 21.8733L21.5633 21.4664C21.6789 21.2436 21.8974 20.8581 22.0473 20.6097C22.1929 20.3613 22.6684 19.6203 23.0967 18.9606C23.525 18.301 23.9962 17.56 24.1461 17.3115C24.2918 17.0631 24.4759 16.7376 24.553 16.5834C24.6301 16.4292 24.7072 16.2578 24.7586 16.0908L20.1669 16.1251C15.8108 16.155 15.5795 16.1508 15.5966 16.0822C15.6094 16.0394 15.8407 15.0928 16.1106 13.9834C16.3847 12.8697 16.6075 11.9488 16.6075 11.936C16.6075 11.9231 17.4898 11.9146 18.5649 11.9146Z" fill="#F7254B"/>
<path d="M196.983 12.8268C196.956 13.0273 197.034 13.1751 197.217 13.27L211.257 19.8013C211.291 19.8146 211.334 19.8247 211.387 19.8315C211.439 19.8384 211.483 19.8398 211.519 19.8357L220.4 18.2642C220.736 18.61 220.981 19.1368 221.136 19.8445C221.292 20.5523 221.337 21.3499 221.274 22.2373C220.683 22.4789 220.346 22.9179 220.262 23.5543C220.183 24.1558 220.374 24.6555 220.837 25.0534L219.333 30.6159C219.299 30.7357 219.32 30.8492 219.394 30.9566C219.46 31.0628 219.558 31.1246 219.689 31.1418L222.2 31.4723C222.331 31.4895 222.442 31.4553 222.533 31.3698C222.633 31.2854 222.682 31.181 222.68 31.0566L222.667 25.2944C223.217 25.0297 223.531 24.5965 223.61 23.995C223.694 23.3586 223.474 22.8374 222.951 22.4315C223.093 20.6143 222.855 19.1195 222.238 17.9474L226.771 17.1606C226.972 17.1161 227.086 16.9936 227.112 16.7931C227.139 16.5926 227.061 16.4448 226.878 16.3498L212.838 9.81862C212.804 9.80531 212.761 9.79521 212.709 9.78833C212.656 9.78144 212.612 9.78006 212.576 9.78419L197.324 12.4593C197.123 12.5038 197.009 12.6263 196.983 12.8268Z" fill="#1B94D1"/>
</svg>
